# Blender 4.3.2
# www.blender.org
mtllib banjo.mtl
o Cylinder
v 0.000000 0.481844 -0.052677
v 0.000000 0.481844 0.052677
v 0.044527 0.477459 -0.052677
v 0.044527 0.477459 0.052677
v 0.087344 0.464471 -0.052677
v 0.087344 0.464471 0.052677
v 0.126804 0.443379 -0.052677
v 0.126804 0.443379 0.052677
v 0.161390 0.414994 -0.052677
v 0.161390 0.414994 0.052677
v 0.189775 0.380408 -0.052677
v 0.189775 0.380408 0.052677
v 0.210867 0.340948 -0.052677
v 0.210867 0.340948 0.052677
v 0.223855 0.298132 -0.052677
v 0.223855 0.298131 0.052677
v 0.228240 0.253604 -0.052677
v 0.228240 0.253604 0.052677
v 0.223855 0.209077 -0.052677
v 0.223855 0.209077 0.052677
v 0.210867 0.166260 -0.052677
v 0.210867 0.166260 0.052677
v 0.189775 0.126800 -0.052677
v 0.189775 0.126800 0.052677
v 0.161390 0.092214 -0.052677
v 0.161390 0.092214 0.052677
v 0.126804 0.063829 -0.052677
v 0.126804 0.063829 0.052677
v 0.087344 0.042737 -0.052677
v 0.087344 0.042737 0.052677
v 0.044527 0.029749 -0.052677
v 0.044527 0.029749 0.052677
v 0.000000 0.025364 -0.052677
v 0.000000 0.025364 0.052677
v -0.044527 0.029749 -0.052677
v -0.044527 0.029749 0.052677
v -0.087344 0.042737 -0.052677
v -0.087344 0.042737 0.052677
v -0.126804 0.063829 -0.052677
v -0.126804 0.063829 0.052677
v -0.161390 0.092214 -0.052677
v -0.161390 0.092214 0.052677
v -0.189775 0.126800 -0.052677
v -0.189775 0.126800 0.052677
v -0.210867 0.166260 -0.052677
v -0.210867 0.166260 0.052677
v -0.223855 0.209077 -0.052677
v -0.223855 0.209077 0.052677
v -0.228240 0.253604 -0.052677
v -0.228240 0.253604 0.052677
v -0.223855 0.298132 -0.052677
v -0.223855 0.298131 0.052677
v -0.210867 0.340948 -0.052677
v -0.210867 0.340948 0.052677
v -0.189775 0.380408 -0.052677
v -0.189775 0.380408 0.052677
v -0.161390 0.414994 -0.052677
v -0.161390 0.414994 0.052677
v -0.126804 0.443379 -0.052677
v -0.126804 0.443379 0.052677
v -0.087344 0.464471 -0.052677
v -0.087344 0.464471 0.052677
v -0.044527 0.477459 -0.052677
v -0.044527 0.477459 0.052677
v 0.046199 0.485863 0.052677
v -0.000000 0.490413 0.052677
v 0.090623 0.472387 0.052677
v 0.131564 0.450504 0.052677
v 0.167449 0.421053 0.052677
v 0.196900 0.385168 0.052677
v 0.218783 0.344227 0.052677
v 0.232259 0.299803 0.052677
v 0.236809 0.253604 0.052677
v 0.232259 0.207405 0.052677
v 0.218783 0.162981 0.052677
v 0.196900 0.122040 0.052677
v 0.167449 0.086155 0.052677
v 0.131564 0.056704 0.052677
v 0.090623 0.034821 0.052677
v 0.046199 0.021345 0.052677
v -0.000000 0.016795 0.052677
v -0.046199 0.021345 0.052677
v -0.090623 0.034821 0.052677
v -0.131564 0.056704 0.052677
v -0.167449 0.086155 0.052677
v -0.196900 0.122040 0.052677
v -0.218783 0.162981 0.052677
v -0.232259 0.207405 0.052677
v -0.236809 0.253604 0.052677
v -0.232259 0.299803 0.052677
v -0.218783 0.344227 0.052677
v -0.196900 0.385168 0.052677
v -0.167449 0.421053 0.052677
v -0.131564 0.450504 0.052677
v -0.090623 0.472387 0.052677
v -0.046199 0.485863 0.052677
v 0.043796 0.473781 0.066866
v -0.000000 0.478095 0.066866
v 0.085909 0.461006 0.066866
v 0.124720 0.440261 0.066866
v 0.158739 0.412343 0.066866
v 0.186657 0.378324 0.066866
v 0.207402 0.339513 0.066866
v 0.220177 0.297400 0.066866
v 0.224491 0.253604 0.066866
v 0.220177 0.209808 0.066866
v 0.207402 0.167695 0.066866
v 0.186657 0.128884 0.066866
v 0.158739 0.094865 0.066866
v 0.124720 0.066947 0.066866
v 0.085909 0.046202 0.066866
v 0.043796 0.033427 0.066866
v -0.000000 0.029113 0.066866
v -0.043796 0.033427 0.066866
v -0.085909 0.046202 0.066866
v -0.124720 0.066947 0.066866
v -0.158739 0.094865 0.066866
v -0.186657 0.128884 0.066866
v -0.207402 0.167695 0.066866
v -0.220177 0.209808 0.066866
v -0.224491 0.253604 0.066866
v -0.220177 0.297400 0.066866
v -0.207402 0.339513 0.066866
v -0.186657 0.378324 0.066866
v -0.158739 0.412343 0.066866
v -0.124720 0.440261 0.066866
v -0.085909 0.461006 0.066866
v -0.043796 0.473781 0.066866
v 0.046199 0.485863 0.066866
v -0.000000 0.490413 0.066866
v 0.090623 0.472387 0.066866
v 0.131564 0.450504 0.066866
v 0.167449 0.421053 0.066866
v 0.196900 0.385168 0.066866
v 0.218783 0.344227 0.066866
v 0.232259 0.299803 0.066866
v 0.236809 0.253604 0.066866
v 0.232259 0.207405 0.066866
v 0.218783 0.162981 0.066866
v 0.196900 0.122040 0.066866
v 0.167449 0.086155 0.066866
v 0.131564 0.056704 0.066866
v 0.090623 0.034821 0.066866
v 0.046199 0.021345 0.066866
v -0.000000 0.016795 0.066866
v -0.046199 0.021345 0.066866
v -0.090623 0.034821 0.066866
v -0.131564 0.056704 0.066866
v -0.167449 0.086155 0.066866
v -0.196900 0.122040 0.066866
v -0.218783 0.162981 0.066866
v -0.232259 0.207405 0.066866
v -0.236809 0.253604 0.066866
v -0.232259 0.299803 0.066866
v -0.218783 0.344227 0.066866
v -0.196900 0.385168 0.066866
v -0.167449 0.421053 0.066866
v -0.131564 0.450504 0.066866
v -0.090623 0.472387 0.066866
v -0.046199 0.485863 0.066866
v 0.043796 0.473781 0.066893
v -0.000000 0.478095 0.066893
v 0.085909 0.461006 0.066893
v 0.124720 0.440261 0.066893
v 0.158739 0.412343 0.066893
v 0.186657 0.378324 0.066893
v 0.207402 0.339513 0.066893
v 0.220177 0.297400 0.066893
v 0.224491 0.253604 0.066893
v 0.220177 0.209808 0.066893
v 0.207402 0.167695 0.066893
v 0.186657 0.128884 0.066893
v 0.158739 0.094865 0.066893
v 0.124720 0.066947 0.066893
v 0.085909 0.046202 0.066893
v 0.043796 0.033427 0.066893
v -0.000000 0.029113 0.066893
v -0.043796 0.033427 0.066893
v -0.085909 0.046202 0.066893
v -0.124720 0.066947 0.066893
v -0.158739 0.094865 0.066893
v -0.186657 0.128884 0.066893
v -0.207402 0.167695 0.066893
v -0.220177 0.209808 0.066893
v -0.224491 0.253604 0.066893
v -0.220177 0.297400 0.066893
v -0.207402 0.339513 0.066893
v -0.186657 0.378324 0.066893
v -0.158739 0.412343 0.066893
v -0.124720 0.440261 0.066893
v -0.085909 0.461006 0.066893
v -0.043796 0.473781 0.066893
v 0.043796 0.473781 0.059807
v -0.000000 0.478095 0.059807
v 0.085909 0.461006 0.059807
v 0.124720 0.440261 0.059807
v 0.158739 0.412343 0.059807
v 0.186657 0.378324 0.059807
v 0.207402 0.339513 0.059807
v 0.220177 0.297400 0.059807
v 0.224491 0.253604 0.059807
v 0.220177 0.209808 0.059807
v 0.207402 0.167695 0.059807
v 0.186657 0.128884 0.059807
v 0.158739 0.094865 0.059807
v 0.124720 0.066947 0.059807
v 0.085909 0.046202 0.059807
v 0.043796 0.033427 0.059807
v -0.000000 0.029113 0.059807
v -0.043796 0.033427 0.059807
v -0.085909 0.046202 0.059807
v -0.124720 0.066947 0.059807
v -0.158739 0.094865 0.059807
v -0.186657 0.128884 0.059807
v -0.207402 0.167695 0.059807
v -0.220177 0.209808 0.059807
v -0.224491 0.253604 0.059807
v -0.220177 0.297400 0.059807
v -0.207402 0.339513 0.059807
v -0.186657 0.378324 0.059807
v -0.158739 0.412343 0.059807
v -0.124720 0.440261 0.059807
v -0.085909 0.461006 0.059807
v -0.043796 0.473781 0.059807
v 0.000000 0.552650 -0.052677
v 0.044527 0.548265 -0.052677
v 0.044527 0.575095 0.052677
v 0.000000 0.579480 0.052677
v -0.044527 0.575095 0.052677
v -0.044527 0.548265 -0.052677
v 0.046199 0.618794 0.052677
v -0.000000 0.623344 0.052677
v -0.046199 0.618794 0.052677
v 0.046199 0.618794 0.066866
v -0.000000 0.623344 0.066866
v -0.046199 0.618794 0.066866
v 0.046199 1.170249 0.052677
v -0.000000 1.174799 0.052677
v -0.046199 1.170249 0.052677
v 0.046199 1.170249 0.066866
v -0.000000 1.174799 0.066866
v -0.046199 1.170249 0.066866
v 0.076452 1.407462 0.048031
v -0.000000 1.414992 0.048031
v -0.076452 1.407462 0.048031
v 0.076452 1.407462 0.071512
v -0.000000 1.414992 0.071512
v -0.076452 1.407462 0.071512
v 0.099119 0.458176 -0.049595
v 0.099119 0.458176 0.049595
v 0.115028 0.449673 0.049595
v 0.115028 0.449673 -0.049595
v 0.196069 0.368632 -0.049595
v 0.196069 0.368632 0.049595
v 0.204572 0.352723 0.049595
v 0.204572 0.352723 -0.049595
v 0.226932 0.240316 -0.049595
v 0.226932 0.240316 0.049595
v 0.225164 0.222364 0.049595
v 0.225164 0.222364 -0.049595
v 0.181304 0.116479 -0.049595
v 0.181304 0.116479 0.049595
v 0.169861 0.102535 0.049595
v 0.169861 0.102535 -0.049595
v 0.074567 0.038862 -0.049595
v 0.074567 0.038862 0.049595
v 0.057305 0.033625 0.049595
v 0.057305 0.033625 -0.049595
v -0.057305 0.033625 -0.049595
v -0.057305 0.033625 0.049595
v -0.074567 0.038862 0.049595
v -0.074567 0.038862 -0.049595
v -0.169861 0.102535 -0.049595
v -0.169861 0.102535 0.049595
v -0.181304 0.116479 0.049595
v -0.181304 0.116479 -0.049595
v -0.225164 0.222364 -0.049595
v -0.225164 0.222364 0.049595
v -0.226932 0.240316 0.049595
v -0.226932 0.240316 -0.049595
v -0.204572 0.352723 -0.049595
v -0.204572 0.352723 0.049595
v -0.196069 0.368632 0.049595
v -0.196069 0.368632 -0.049595
v -0.115028 0.449673 -0.049595
v -0.115028 0.449673 0.049595
v -0.099119 0.458176 0.049595
v -0.099119 0.458176 -0.049595
v 0.103672 0.466695 0.049595
v 0.103672 0.466695 -0.049595
v 0.119581 0.458191 -0.049595
v 0.119581 0.458191 0.049595
v 0.204587 0.373185 0.049595
v 0.204587 0.373185 -0.049595
v 0.213091 0.357276 -0.049595
v 0.213091 0.357276 0.049595
v 0.236544 0.239370 0.049595
v 0.236544 0.239370 -0.049595
v 0.234776 0.221418 -0.049595
v 0.234776 0.221418 0.049595
v 0.188771 0.110352 0.049595
v 0.188771 0.110352 -0.049595
v 0.177327 0.096408 -0.049595
v 0.177327 0.096408 0.049595
v 0.077370 0.029619 0.049595
v 0.077370 0.029619 -0.049595
v 0.060108 0.024382 -0.049595
v 0.060108 0.024382 0.049595
v -0.060108 0.024382 0.049595
v -0.060108 0.024382 -0.049595
v -0.077370 0.029619 -0.049595
v -0.077370 0.029619 0.049595
v -0.177327 0.096408 0.049595
v -0.177327 0.096408 -0.049595
v -0.188771 0.110352 -0.049595
v -0.188771 0.110352 0.049595
v -0.234776 0.221418 0.049595
v -0.234776 0.221418 -0.049595
v -0.236544 0.239370 -0.049595
v -0.236544 0.239370 0.049595
v -0.213091 0.357276 0.049595
v -0.213091 0.357276 -0.049595
v -0.204587 0.373185 -0.049595
v -0.204587 0.373185 0.049595
v -0.119581 0.458191 0.049595
v -0.119581 0.458191 -0.049595
v -0.103672 0.466695 -0.049595
v -0.103672 0.466695 0.049595
v 0.046199 1.169945 0.036979
v -0.000000 1.174495 0.036979
v -0.046199 1.169945 0.036979
v 0.076452 1.407159 0.032334
v -0.000000 1.414689 0.032334
v -0.076452 1.407159 0.032334
v 0.052150 1.216909 0.051763
v 0.058200 1.264352 0.050834
v 0.064251 1.311795 0.049905
v 0.070301 1.359237 0.048976
v 0.070301 1.359237 0.070568
v 0.064251 1.311795 0.069638
v 0.058200 1.264352 0.068709
v 0.052150 1.216909 0.067780
v -0.000000 1.222045 0.067780
v -0.000000 1.270084 0.068709
v -0.000000 1.318123 0.069639
v -0.000000 1.366161 0.070568
v -0.070301 1.359237 0.070568
v -0.064251 1.311795 0.069638
v -0.058200 1.264352 0.068709
v -0.052150 1.216909 0.067780
v -0.052150 1.216909 0.051763
v -0.058200 1.264352 0.050834
v -0.064251 1.311795 0.049905
v -0.070301 1.359237 0.048976
v 0.052150 1.216605 0.036065
v 0.058200 1.264048 0.035136
v 0.064251 1.311491 0.034207
v 0.070301 1.358934 0.033278
v -0.052150 1.216605 0.036065
v -0.058200 1.264048 0.035136
v -0.064251 1.311491 0.034207
v -0.070301 1.358934 0.033278
v -0.000000 1.365858 0.033278
v -0.000000 1.317819 0.034207
v -0.000000 1.269780 0.035136
v -0.000000 1.221742 0.036065
v -0.053855 1.230282 0.054624
v -0.053855 1.230282 0.064920
v -0.056495 1.250979 0.065325
v -0.056495 1.250979 0.054218
v -0.065956 1.325167 0.052765
v -0.065956 1.325167 0.066778
v -0.068596 1.345865 0.067183
v -0.068596 1.345865 0.052360
v 0.053855 1.230282 0.064920
v 0.053855 1.230282 0.054624
v 0.056495 1.250979 0.054218
v 0.056495 1.250979 0.065325
v 0.065956 1.325167 0.066778
v 0.065956 1.325167 0.052765
v 0.068596 1.345865 0.052360
v 0.068596 1.345865 0.067183
v -0.088020 1.217330 0.069127
v -0.088020 1.217330 0.050417
v -0.092816 1.254941 0.049680
v -0.092816 1.254941 0.069863
v -0.100261 1.313312 0.071762
v -0.100261 1.313312 0.047781
v -0.104778 1.348731 0.047088
v -0.104778 1.348731 0.072455
v 0.087758 1.215279 0.049396
v 0.087758 1.215279 0.070147
v 0.093078 1.256993 0.070964
v 0.093078 1.256992 0.048579
v 0.100075 1.311854 0.046795
v 0.100075 1.311854 0.072749
v 0.104964 1.350189 0.073499
v 0.104964 1.350189 0.046044
v -0.050476 0.170267 0.070673
v -0.050476 0.165388 0.070673
v -0.050476 0.170267 0.060177
v -0.050476 0.165388 0.060177
v 0.050476 0.170267 0.070673
v 0.050476 0.165388 0.070673
v 0.050476 0.170267 0.060177
v 0.050476 0.165388 0.060177
v -0.000000 0.073112 0.066893
v 0.043796 0.077425 0.066893
v -0.043796 0.077425 0.066893
v -0.000000 0.073112 0.059807
v 0.043796 0.077425 0.059807
v -0.043796 0.077425 0.059807
v -0.032529 0.163742 0.072553
v -0.028580 0.163742 0.072553
v -0.032710 1.183236 0.067150
v -0.028761 1.183236 0.067150
v -0.016446 0.163742 0.072553
v -0.012498 0.163742 0.072553
v -0.016628 1.183236 0.067150
v -0.012679 1.183236 0.067150
v 0.010443 0.163742 0.072553
v 0.014391 0.163742 0.072553
v 0.010261 1.183236 0.067150
v 0.014210 1.183236 0.067150
v 0.029875 0.163742 0.072553
v 0.033824 0.163742 0.072553
v 0.029694 1.183236 0.067150
v 0.033642 1.183236 0.067150
v -0.032529 0.066666 0.066935
v -0.028580 0.066666 0.066935
v -0.016446 0.066666 0.066935
v -0.012498 0.066666 0.066935
v 0.010443 0.066666 0.066935
v 0.014391 0.066666 0.066935
v 0.029875 0.066666 0.066935
v 0.033824 0.066666 0.066935
vn -0.0000 -0.0000 1.0000
vn 0.2903 0.9569 -0.0000
vn 0.6344 0.7730 -0.0000
vn 0.7730 0.6344 -0.0000
vn 0.9569 0.2903 -0.0000
vn 0.9952 0.0980 -0.0000
vn -0.0000 -0.0000 -1.0000
vn 0.9569 -0.2903 -0.0000
vn 0.8819 -0.4714 -0.0000
vn 0.6344 -0.7730 -0.0000
vn 0.4714 -0.8819 -0.0000
vn -0.9569 -0.2903 -0.0000
vn 0.0980 -0.9952 -0.0000
vn -0.0980 -0.9952 -0.0000
vn -0.4714 0.8819 -0.0000
vn -0.4714 -0.8819 -0.0000
vn -0.6344 -0.7730 -0.0000
vn 0.8819 0.4714 -0.0000
vn -0.8819 -0.4714 -0.0000
vn -0.9952 0.0980 -0.0000
vn -0.9569 0.2903 -0.0000
vn -0.7730 0.6344 -0.0000
vn -0.6344 0.7730 -0.0000
vn -0.2903 0.9569 -0.0000
vn 0.9952 -0.0980 -0.0000
vn -0.9952 -0.0980 -0.0000
vn 0.7730 -0.6344 -0.0000
vn -0.8819 0.4714 -0.0000
vn 0.2903 -0.9569 -0.0000
vn 0.4714 0.8819 -0.0000
vn -0.2903 -0.9569 -0.0000
vn 1.0000 -0.0000 -0.0000
vn -0.7730 -0.6344 -0.0000
vn -0.9570 -0.2902 -0.0000
vn 0.9570 -0.2902 -0.0000
vn 0.8820 -0.4713 -0.0000
vn -0.9570 0.2902 -0.0000
vn -0.8820 0.4713 -0.0000
vn 0.4716 -0.8818 -0.0000
vn 0.0981 0.9952 -0.0000
vn 0.2902 -0.9570 -0.0000
vn 0.2902 0.9570 -0.0000
vn 0.0981 -0.9952 -0.0000
vn 0.4716 0.8818 -0.0000
vn -0.4716 0.8818 -0.0000
vn -0.0981 -0.9952 -0.0000
vn -0.2902 0.9570 -0.0000
vn -0.2902 -0.9570 -0.0000
vn -0.0981 0.9952 -0.0000
vn -0.4716 -0.8818 -0.0000
vn 0.8820 0.4713 -0.0000
vn 0.9570 0.2902 -0.0000
vn -0.8820 -0.4713 -0.0000
vn -1.0000 -0.0000 -0.0000
vn 0.0950 0.9647 -0.2457
vn -0.0950 0.9647 -0.2457
vn 0.0019 -0.0193 0.9998
vn 0.9920 -0.1265 -0.0000
vn 0.0980 0.9952 -0.0000
vn -0.0980 0.9952 -0.0000
vn -0.0980 0.9950 -0.0192
vn -0.9920 -0.1265 -0.0000
vn -0.0019 -0.0193 0.9998
vn 0.9920 -0.1265 0.0024
vn 0.0019 -0.0193 -0.9998
vn -0.0019 -0.0193 -0.9998
vn -0.9920 -0.1265 0.0024
vn -0.0980 -0.9950 0.0193
vn 0.0980 -0.9950 0.0192
vn 0.0980 0.9950 -0.0193
vn -0.1524 0.0001 -0.9883
vn 0.1084 0.9941 -0.0000
vn -0.1714 0.0026 0.9852
vn 0.1441 -0.0010 0.9896
vn 0.0790 0.9969 -0.0000
vn -0.1714 0.0026 -0.9852
vn -0.1622 0.9868 -0.0000
vn -0.1181 0.9930 -0.0000
vn 0.3545 -0.9351 -0.0000
vn 0.3266 -0.9451 -0.0000
vn 0.1236 -0.0037 -0.9923
vn -0.4047 -0.9145 -0.0000
vn 0.1441 -0.0010 -0.9896
vn -0.3635 -0.9316 -0.0000
vn 0.1236 -0.0037 0.9923
vn -0.1524 0.0001 0.9883
vn -0.0000 -1.0000 -0.0000
vn -0.0000 1.0000 -0.0000
vn -0.0000 0.0053 1.0000
vn -0.0000 -0.0578 0.9983
vn -0.9569 -0.2904 -0.0000
vn 0.9569 -0.2904 -0.0000
vn 0.8818 -0.4715 -0.0000
vn -0.9569 0.2904 -0.0000
vn 0.6343 -0.7731 -0.0000
vn -0.8818 0.4715 -0.0000
vn 0.4713 -0.8820 -0.0000
vn -0.6343 0.7731 -0.0000
vn 0.4713 0.8820 -0.0000
vn -0.4713 0.8820 -0.0000
vn 0.6343 0.7731 -0.0000
vn -0.4713 -0.8820 -0.0000
vn 0.8818 0.4715 -0.0000
vn -0.6343 -0.7731 -0.0000
vn 0.9569 0.2904 -0.0000
vn -0.8818 -0.4715 -0.0000
vn -0.0980 0.9950 -0.0193
vn -0.0980 -0.9950 0.0192
vn 0.0980 -0.9950 0.0193
vn 0.0980 0.9950 -0.0192
vt 0.141669 0.503713
vt 0.123395 0.431320
vt 0.148799 0.431330
vt 0.859236 0.000000
vt 0.879924 0.249837
vt 0.859236 0.249837
vt 0.511055 0.837994
vt 0.505768 0.828125
vt 0.511055 0.828125
vt 0.902770 0.000000
vt 0.926898 0.249837
vt 0.902770 0.249837
vt 0.926898 0.000000
vt 0.951379 0.249837
vt 0.038746 0.827315
vt 0.044032 0.837183
vt 0.038746 0.837184
vt 0.975272 0.000000
vt 0.997660 0.249837
vt 0.975272 0.249837
vt 0.750614 0.506525
vt 0.770913 0.756362
vt 0.750614 0.756361
vt 0.516340 0.818252
vt 0.511054 0.808382
vt 0.516340 0.808381
vt 0.793494 0.506526
vt 0.817490 0.756363
vt 0.793494 0.756363
vt 0.817490 0.506526
vt 0.841978 0.756363
vt 0.038746 0.827314
vt 0.044032 0.817443
vt 0.044032 0.827314
vt 0.866017 0.506526
vt 0.888684 0.756362
vt 0.866017 0.756363
vt 0.888684 0.506525
vt 0.909107 0.756361
vt 0.887922 0.991584
vt 0.883635 0.756363
vt 0.887922 0.756363
vt 0.257933 0.625442
vt 0.275861 0.875279
vt 0.257933 0.875279
vt 0.275861 0.625442
vt 0.296698 0.875279
vt 0.850430 0.756363
vt 0.855362 0.991584
vt 0.850430 0.991584
vt 0.319645 0.625442
vt 0.343819 0.875279
vt 0.319645 0.875279
vt 0.343819 0.625442
vt 0.368291 0.875279
vt 0.845272 0.756363
vt 0.392122 0.625442
vt 0.414394 0.875279
vt 0.392122 0.875279
vt 0.414394 0.625442
vt 0.434253 0.875279
vt 0.855361 0.756363
vt 0.860255 0.991584
vt 0.855361 0.991584
vt 0.533967 0.506523
vt 0.553989 0.756360
vt 0.533967 0.756360
vt 0.553989 0.506523
vt 0.576377 0.756360
vt 0.164078 0.826723
vt 0.169362 0.836595
vt 0.164078 0.836596
vt 0.600271 0.506523
vt 0.624752 0.756360
vt 0.600271 0.756360
vt 0.624752 0.506523
vt 0.648879 0.756360
vt 0.516339 0.837999
vt 0.511055 0.828126
vt 0.516339 0.828126
vt 0.272808 0.179048
vt 0.260783 0.156702
vt 0.265368 0.155721
vt 0.671726 0.506523
vt 0.692414 0.756360
vt 0.671726 0.756360
vt 0.559362 0.043400
vt 0.553719 -0.000000
vt 0.579263 0.029137
vt 0.740783 0.213375
vt 0.565669 0.236423
vt 0.542624 0.061272
vt 0.892884 0.432328
vt 0.859237 0.411267
vt 0.892885 0.411267
vt 0.361399 0.007440
vt 0.385662 -0.000000
vt 0.385729 0.004689
vt 0.512391 0.127788
vt 0.514950 0.153038
vt 0.510338 0.152189
vt 0.341358 0.245669
vt 0.317053 0.238375
vt 0.319602 0.234439
vt 0.282681 0.061695
vt 0.294580 0.039276
vt 0.297943 0.042544
vt 0.490357 0.058701
vt 0.477824 0.036635
vt 0.494218 0.056040
vt 0.436940 0.244291
vt 0.461027 0.236299
vt 0.438796 0.248598
vt 0.257933 0.131456
vt 0.262622 0.131389
vt 0.410976 0.002126
vt 0.410127 0.006738
vt 0.507922 0.177454
vt 0.503565 0.175722
vt 0.297189 0.222542
vt 0.300457 0.219179
vt 0.316646 0.026739
vt 0.313986 0.022877
vt 0.502205 0.080128
vt 0.506511 0.078271
vt 0.413614 0.251737
vt 0.389351 0.259177
vt 0.389284 0.254488
vt 0.414594 0.256322
vt 0.260063 0.106139
vt 0.264675 0.106987
vt 0.435388 0.009150
vt 0.433655 0.013507
vt 0.496267 0.200031
vt 0.492332 0.197482
vt 0.284656 0.200476
vt 0.280795 0.203137
vt 0.338073 0.014885
vt 0.336217 0.010579
vt 0.514230 0.102475
vt 0.509645 0.103456
vt 0.364037 0.257051
vt 0.364886 0.252439
vt 0.267091 0.081723
vt 0.271448 0.083455
vt 0.457960 0.020802
vt 0.455411 0.024738
vt 0.480433 0.219900
vt 0.477070 0.216633
vt 0.268502 0.180905
vt 0.360419 0.002854
vt 0.517080 0.127721
vt 0.339625 0.250027
vt 0.278746 0.059146
vt 0.474556 0.039998
vt 0.458367 0.232438
vt 0.764331 0.415007
vt 0.764268 0.392797
vt 0.764332 0.392797
vt 0.514914 0.669155
vt 0.481265 0.646046
vt 0.514914 0.646047
vt 0.859237 0.387838
vt 0.892886 0.387838
vt 0.481265 0.625442
vt 0.514914 0.625442
vt 0.859238 0.362941
vt 0.892887 0.362941
vt 0.960151 0.972088
vt 0.926502 0.954567
vt 0.960151 0.954567
vt 0.859238 0.337534
vt 0.892887 0.337534
vt 0.926502 0.933793
vt 0.960151 0.933793
vt 0.859238 0.312592
vt 0.892887 0.312592
vt 0.926502 0.910565
vt 0.960151 0.910565
vt 0.859237 0.289074
vt 0.892886 0.289075
vt 0.926502 0.885774
vt 0.960151 0.885774
vt 0.859237 0.267884
vt 0.892885 0.267885
vt 0.024368 0.815035
vt 0.048736 0.764022
vt 0.048736 0.817443
vt 0.926502 0.860374
vt 0.960151 0.860374
vt 0.892884 0.249837
vt 0.727312 0.899982
vt 0.693663 0.878517
vt 0.727312 0.878517
vt 0.926502 0.835341
vt 0.960151 0.835341
vt 0.514913 0.808381
vt 0.481265 0.789781
vt 0.514913 0.789781
vt 0.693663 0.854813
vt 0.727312 0.854813
vt 0.926502 0.811636
vt 0.960151 0.811636
vt 0.481265 0.768161
vt 0.514913 0.768161
vt 0.693663 0.829780
vt 0.727312 0.829780
vt 0.926502 0.790172
vt 0.960151 0.790172
vt 0.481265 0.744353
vt 0.514913 0.744353
vt 0.693663 0.804379
vt 0.727312 0.804379
vt 0.481265 0.625444
vt 0.447172 0.875279
vt 0.434253 0.625442
vt 0.481265 0.719271
vt 0.514914 0.719271
vt 0.693663 0.779589
vt 0.727312 0.779589
vt 0.481265 0.693880
vt 0.514914 0.693880
vt 0.693663 0.756360
vt 0.727312 0.756360
vt 0.481265 0.669155
vt 0.116925 0.510411
vt 0.141008 0.510420
vt 0.091348 0.508649
vt 0.116265 0.503703
vt 0.071056 0.524307
vt 0.093305 0.515100
vt 0.051032 0.537677
vt 0.067878 0.518361
vt 0.034003 0.554698
vt 0.046755 0.532465
vt 0.014678 0.571535
vt 0.028792 0.550420
vt 0.011407 0.596958
vt 0.020623 0.574714
vt 0.006709 0.620573
vt 0.004956 0.594999
vt 0.006709 0.644653
vt -0.000000 0.619910
vt 0.004956 0.670226
vt -0.000000 0.645311
vt 0.020623 0.690522
vt 0.011407 0.668272
vt 0.034003 0.710549
vt 0.014678 0.693697
vt 0.051032 0.727582
vt 0.028792 0.714822
vt 0.067878 0.746910
vt 0.046755 0.732790
vt 0.093305 0.750190
vt 0.071056 0.740967
vt 0.116925 0.754897
vt 0.091348 0.756640
vt 0.141008 0.754906
vt 0.116265 0.761604
vt 0.166585 0.756668
vt 0.141669 0.761614
vt 0.186878 0.741010
vt 0.164628 0.750217
vt 0.206902 0.727640
vt 0.190055 0.746956
vt 0.223931 0.710619
vt 0.211178 0.732852
vt 0.243255 0.693782
vt 0.229142 0.714897
vt 0.246526 0.668359
vt 0.237310 0.690603
vt 0.251225 0.644744
vt 0.252977 0.670318
vt 0.251225 0.620664
vt 0.257933 0.645407
vt 0.252977 0.595091
vt 0.257933 0.620006
vt 0.237310 0.574795
vt 0.246526 0.597045
vt 0.223931 0.554769
vt 0.243255 0.571620
vt 0.206902 0.537735
vt 0.229142 0.550495
vt 0.190055 0.518407
vt 0.211178 0.532527
vt 0.164628 0.515127
vt 0.186878 0.524350
vt 0.166585 0.508677
vt 0.750614 0.838188
vt 0.767419 0.862266
vt 0.750614 0.862266
vt 0.764396 0.281506
vt 0.764332 0.261974
vt 0.764396 0.261974
vt 0.764269 0.369195
vt 0.764332 0.369195
vt 0.764266 0.451871
vt 0.764203 0.435261
vt 0.764266 0.435261
vt 0.764269 0.345109
vt 0.764332 0.345109
vt 0.764203 0.415568
vt 0.764266 0.415568
vt 0.764269 0.321465
vt 0.764332 0.321465
vt 0.764203 0.393547
vt 0.764266 0.393547
vt 0.764268 0.299171
vt 0.764332 0.299171
vt 0.764203 0.370046
vt 0.764266 0.370046
vt 0.764267 0.279083
vt 0.764331 0.279083
vt 0.764460 0.415568
vt 0.764396 0.398125
vt 0.764460 0.398125
vt 0.764203 0.345967
vt 0.764266 0.345967
vt 0.764266 0.261974
vt 0.764330 0.261974
vt 0.764396 0.377777
vt 0.764460 0.377777
vt 0.764203 0.322236
vt 0.764266 0.322236
vt 0.764396 0.435397
vt 0.764332 0.417764
vt 0.764396 0.417764
vt 0.764396 0.355305
vt 0.764460 0.355305
vt 0.764203 0.299765
vt 0.764266 0.299765
vt 0.764332 0.397269
vt 0.764396 0.397269
vt 0.764396 0.331574
vt 0.764460 0.331574
vt 0.764203 0.279417
vt 0.764266 0.279417
vt 0.764332 0.374699
vt 0.764396 0.374699
vt 0.764396 0.307495
vt 0.764460 0.307495
vt 0.764203 0.261974
vt 0.764266 0.261974
vt 0.764332 0.350922
vt 0.764396 0.350922
vt 0.764396 0.283994
vt 0.764460 0.283994
vt 0.764332 0.326852
vt 0.764396 0.326852
vt 0.764396 0.261974
vt 0.764460 0.261974
vt 0.764332 0.303413
vt 0.764396 0.303413
vt 0.764330 0.434972
vt 0.764267 0.415007
vt 0.764332 0.281506
vt 0.717221 0.289270
vt 0.734246 0.462191
vt 0.561391 0.479228
vt 0.727313 0.798536
vt 0.744117 0.822137
vt 0.727312 0.822137
vt 0.767419 0.885997
vt 0.750614 0.885997
vt 0.744117 0.846223
vt 0.727312 0.846223
vt 0.767419 0.908469
vt 0.750614 0.908469
vt 0.910603 0.267470
vt 0.927408 0.287965
vt 0.910603 0.287965
vt 0.744117 0.869867
vt 0.727312 0.869867
vt 0.767419 0.928817
vt 0.750614 0.928817
vt 0.927408 0.310534
vt 0.910603 0.310534
vt 0.744117 0.892162
vt 0.727313 0.892162
vt 0.094900 0.841397
vt 0.111705 0.823161
vt 0.111705 0.841397
vt 0.927408 0.334311
vt 0.910603 0.334311
vt 0.744118 0.912249
vt 0.727313 0.912249
vt 0.092540 0.809549
vt 0.070826 0.785589
vt 0.094900 0.785581
vt 0.927408 0.358382
vt 0.910603 0.358382
vt 0.744119 0.929358
vt 0.727314 0.929358
vt 0.828467 0.756363
vt 0.845272 0.776711
vt 0.828467 0.776711
vt 0.927408 0.381821
vt 0.910603 0.381821
vt 0.910603 0.249837
vt 0.927408 0.267470
vt 0.845272 0.799182
vt 0.828467 0.799182
vt 0.927408 0.403727
vt 0.910603 0.403727
vt 0.845272 0.822913
vt 0.828467 0.822913
vt 0.927408 0.423260
vt 0.910603 0.423260
vt 0.845272 0.846992
vt 0.828467 0.846992
vt 0.750614 0.756363
vt 0.767419 0.772973
vt 0.750614 0.772973
vt 0.845272 0.870493
vt 0.828467 0.870493
vt 0.767419 0.792666
vt 0.750614 0.792666
vt 0.845272 0.892514
vt 0.828467 0.892514
vt 0.767419 0.814686
vt 0.750614 0.814686
vt 0.727314 0.756360
vt 0.744118 0.776326
vt 0.727313 0.776326
vt 0.767419 0.838188
vt 0.744117 0.798536
vt 0.892887 0.499921
vt 0.910603 0.250625
vt 0.910603 0.500709
vt 0.732880 0.506523
vt 0.739494 0.756360
vt 0.721760 0.756360
vt 0.926502 0.735077
vt 0.960151 0.506523
vt 0.960151 0.735077
vt 0.429799 0.327464
vt 0.517080 0.614863
vt 0.492878 0.622588
vt 0.814556 0.451623
vt 0.848207 0.387617
vt 0.848204 0.451623
vt 0.173715 0.436294
vt 0.404556 0.330318
vt -0.000000 0.764005
vt 0.024368 0.761614
vt 0.692414 0.506523
vt 0.454001 0.319739
vt 0.517080 0.032135
vt 0.533817 0.014263
vt 0.188787 0.026656
vt 0.232674 0.008232
vt 0.226701 0.034211
vt 0.805792 0.024821
vt 0.859236 -0.000000
vt 0.856995 0.024821
vt 0.152974 0.131045
vt 0.178378 0.131055
vt 0.467635 0.625442
vt 0.814558 0.387617
vt 0.848216 0.122091
vt 0.203294 0.136019
vt 0.767419 0.812046
vt 0.797943 0.756404
vt 0.797868 0.812087
vt 0.798018 0.812087
vt 0.828392 0.756363
vt 0.828467 0.812046
vt 0.828392 0.849272
vt 0.797943 0.849313
vt 0.556495 0.869795
vt 0.609988 0.888327
vt 0.554305 0.888478
vt 0.149403 -0.000000
vt 0.191442 0.000016
vt 0.812400 0.098075
vt 0.777341 0.122237
vt 0.775175 0.098221
vt 0.879924 0.000000
vt 0.886741 0.242529
vt 0.886741 0.007308
vt 0.895952 0.007308
vt 0.895952 0.242529
vt 0.951379 0.000000
vt 0.958509 0.242529
vt 0.958509 0.007308
vt 0.968142 0.007308
vt 0.968142 0.242529
vt 0.770913 0.506525
vt 0.777652 0.749054
vt 0.777652 0.513833
vt 0.786756 0.513834
vt 0.786756 0.749055
vt 0.841978 0.506526
vt 0.849152 0.749055
vt 0.849152 0.513834
vt 0.858844 0.513834
vt 0.858844 0.749055
vt 0.909107 0.506525
vt 0.914298 0.749053
vt 0.926502 0.506523
vt 0.914298 0.513832
vt 0.926502 0.756360
vt 0.921311 0.513831
vt 0.921311 0.749053
vt 0.296698 0.625442
vt 0.303546 0.867971
vt 0.303546 0.632750
vt 0.312797 0.632750
vt 0.312797 0.867971
vt 0.368291 0.625442
vt 0.375403 0.867971
vt 0.375403 0.632750
vt 0.385010 0.632750
vt 0.385010 0.867971
vt 0.517080 0.506523
vt 0.522119 0.749052
vt 0.517080 0.756360
vt 0.522119 0.513831
vt 0.528927 0.513831
vt 0.528927 0.749052
vt 0.576377 0.506523
vt 0.583508 0.749052
vt 0.583508 0.513831
vt 0.593141 0.513831
vt 0.593141 0.749052
vt 0.648879 0.506523
vt 0.655697 0.749052
vt 0.655697 0.513831
vt 0.664908 0.513831
vt 0.664908 0.749052
vt 0.965973 0.249837
vt 0.975184 0.485058
vt 0.965973 0.485058
vt 0.937100 0.249837
vt 0.946733 0.485058
vt 0.937100 0.485058
vt 0.969362 0.741745
vt 0.978466 0.976966
vt 0.969362 0.976966
vt 0.927408 0.249837
vt 0.937100 0.485058
vt 0.927408 0.485058
vt 0.969402 0.506524
vt 0.976415 0.741745
vt 0.969402 0.741745
vt 0.960151 0.506523
vt 0.969402 0.741745
vt 0.960151 0.741745
vt 0.956366 0.249837
vt 0.965973 0.485058
vt 0.956366 0.485058
vt 0.518291 0.513831
vt 0.525099 0.749052
vt 0.518291 0.749052
vt 0.946733 0.249837
vt 0.956366 0.485058
vt 0.960151 0.741745
vt 0.969362 0.976966
vt 0.960151 0.976966
vt 0.978466 0.741745
vt 0.983684 0.976966
vt 0.978466 0.976966
vt 0.980471 0.249837
vt 0.985679 0.485058
vt 0.980471 0.485058
vt 0.986906 0.741744
vt 0.981698 0.506523
vt 0.986906 0.506523
vt 0.883635 0.991584
vt 0.879226 0.756363
vt 0.883635 0.756363
vt 0.133391 0.815432
vt 0.138677 0.825304
vt 0.133391 0.825304
vt 0.094900 0.829303
vt 0.089615 0.819431
vt 0.094900 0.819431
vt 0.500483 0.818254
vt 0.505768 0.828128
vt 0.500483 0.828126
vt 0.164078 0.826724
vt 0.158794 0.836595
vt 0.158794 0.826722
vt 0.983684 0.741745
vt 0.988864 0.976966
vt 0.983684 0.976966
vt 0.990611 0.485058
vt 0.985679 0.249837
vt 0.990611 0.249837
vt 0.745456 0.756360
vt 0.750614 0.991581
vt 0.745456 0.991581
vt 0.981698 0.741744
vt 0.976415 0.506523
vt 0.981698 0.506523
vt 0.505768 0.808381
vt 0.511054 0.818253
vt 0.505768 0.818252
vt 0.193998 0.819466
vt 0.188711 0.809595
vt 0.193998 0.809595
vt 0.511054 0.828126
vt 0.516340 0.818253
vt 0.516340 0.828124
vt 0.237448 0.828351
vt 0.232162 0.818483
vt 0.237448 0.818481
vt 0.891792 0.991584
vt 0.891792 0.756363
vt 0.895620 0.991584
vt 0.865087 0.991584
vt 0.860254 0.756363
vt 0.865087 0.756363
vt 0.980471 0.485058
vt 0.975184 0.249837
vt 0.980471 0.249837
vt 0.188711 0.799723
vt 0.193997 0.809594
vt 0.188711 0.809595
vt 0.138677 0.805558
vt 0.133391 0.815431
vt 0.133391 0.805559
vt 0.133392 0.835174
vt 0.138678 0.825306
vt 0.138678 0.835176
vt 0.511054 0.828125
vt 0.505768 0.818253
vt 0.511054 0.818255
vt 0.869920 0.756363
vt 0.874728 0.991584
vt 0.869920 0.991584
vt 0.869920 0.991584
vt 0.525099 0.513831
vt 0.879226 0.991584
vt 0.874728 0.756363
vt 0.879226 0.756363
vt 0.094900 0.819431
vt 0.089615 0.809557
vt 0.094900 0.809558
vt 0.500483 0.818254
vt 0.505768 0.808382
vt 0.505768 0.818255
vt 0.651795 0.863693
vt 0.693663 0.886325
vt 0.651825 0.890446
vt 0.609988 0.886325
vt 0.613324 0.859904
vt 0.519269 0.869795
vt 0.564965 0.756360
vt 0.527798 0.777980
vt 0.527739 0.756360
vt 0.565074 0.796580
vt 0.565023 0.777980
vt 0.767494 0.849272
vt 0.562956 0.814657
vt 0.527848 0.796580
vt 0.560802 0.833036
vt 0.525730 0.814657
vt 0.558648 0.851416
vt 0.523576 0.833036
vt 0.521423 0.851416
vt 0.651678 0.758850
vt 0.623169 0.781924
vt 0.626397 0.756360
vt 0.651707 0.784735
vt 0.619888 0.807917
vt 0.651737 0.811055
vt 0.616606 0.833911
vt 0.651766 0.837374
vt 0.680246 0.781924
vt 0.683587 0.807917
vt 0.686927 0.833911
vt 0.690268 0.859904
vt 0.803553 -0.000000
vt 0.768566 0.024967
vt 0.766327 0.000146
vt 0.770769 0.049385
vt 0.807995 0.049239
vt 0.772972 0.073803
vt 0.810197 0.073657
vt 0.152272 0.105268
vt 0.180948 0.105279
vt 0.151557 0.079059
vt 0.183561 0.079071
vt 0.150843 0.052850
vt 0.186174 0.052864
vt 0.150129 0.026641
vt 0.598722 0.796489
vt 0.500483 0.825493
vt 0.481265 0.808381
vt 0.500483 0.814063
vt 0.603192 0.832921
vt 0.824067 0.464202
vt 0.809442 0.501303
vt 0.809442 0.453440
vt 0.850383 0.098075
vt 0.158253 0.816001
vt 0.139059 0.832008
vt 0.139059 0.810823
vt 0.852587 0.073657
vt 0.854791 0.049239
vt 0.193021 0.826166
vt 0.212597 0.841349
vt 0.193021 0.837607
vt 0.209073 0.110883
vt 0.214949 0.085326
vt 0.220825 0.059768
vt 0.594169 0.819751
vt 0.569753 0.819817
vt 0.600938 0.814554
vt 0.595152 0.827764
vt 0.568813 0.827835
vt 0.605445 0.851289
vt 0.565446 0.856576
vt 0.599658 0.864500
vt 0.598675 0.856486
vt 0.607698 0.869657
vt 0.564506 0.864595
vt 0.843600 0.091192
vt 0.818223 0.080540
vt 0.819184 0.091192
vt 0.844562 0.080540
vt 0.814778 0.042356
vt 0.848008 0.042356
vt 0.813817 0.031704
vt 0.848970 0.031704
vt 0.824067 0.455186
vt 0.838633 0.501303
vt 0.824067 0.499556
vt 0.242801 0.763259
vt 0.256518 0.821771
vt 0.242801 0.820126
vt 0.809442 0.455377
vt 0.787972 0.506523
vt 0.787972 0.453440
vt 0.068466 0.763395
vt 0.048736 0.826722
vt 0.048736 0.761614
vt 0.212597 0.809269
vt 0.198476 0.761614
vt 0.212597 0.774116
vt 0.038746 0.833603
vt 0.019557 0.817443
vt 0.038746 0.822173
vt 0.227232 0.774987
vt 0.242801 0.814698
vt 0.227232 0.801325
vt 0.158794 0.811744
vt 0.173586 0.761614
vt 0.173586 0.826722
vt 0.173586 0.809700
vt 0.188711 0.844092
vt 0.173586 0.834116
vt 0.212597 0.806663
vt 0.227232 0.761614
vt 0.227232 0.818481
vt 0.068466 0.825484
vt 0.088054 0.809557
vt 0.088054 0.830333
vt 0.158794 0.774010
vt 0.139059 0.810823
vt 0.139059 0.761614
vt 0.216868 0.818481
vt 0.232163 0.838094
vt 0.212597 0.838094
vt 0.114168 0.809003
vt 0.094900 0.761614
vt 0.114168 0.775773
vt -0.000000 0.822398
vt 0.019557 0.838233
vt -0.000000 0.833838
vt 0.133391 0.811632
vt 0.114168 0.828611
vt 0.114168 0.805558
vt 0.763882 0.372468
vt 0.761533 0.397358
vt 0.761533 0.372468
vt 0.764202 0.317220
vt 0.761533 0.372468
vt 0.761533 0.317221
vt 0.198476 0.763636
vt 0.173586 0.761614
vt 0.198476 0.761614
vt 0.764203 0.261975
vt 0.761533 0.317220
vt 0.761533 0.261974
vt 0.114168 0.761614
vt 0.139059 0.805558
vt 0.114168 0.805558
vt 0.198476 0.799722
vt 0.173586 0.763636
vt 0.048736 0.826722
vt 0.065540 0.844165
vt 0.048736 0.844165
vt 0.114168 0.828611
vt 0.130973 0.846053
vt 0.114168 0.846053
vt 0.785612 0.458589
vt 0.763894 0.482552
vt 0.761533 0.458584
vt 0.239714 0.842957
vt 0.256518 0.842956
vt 0.092540 0.761614
vt 0.068466 0.761622
vt 0.785612 0.506523
vt 0.787972 0.482557
vt 1.000000 0.557506
vt 0.997661 0.000000
vt 0.999822 0.000000
vt 0.997660 0.807343
vt 0.995321 0.249837
vt 0.997482 0.249837
vt 0.992981 0.807343
vt 0.990642 0.249837
vt 0.992803 0.249837
vt 0.995321 0.807343
vt 0.992981 0.249837
vt 0.995143 0.249837
vt 0.997661 0.610944
vt 0.997839 0.557506
vt 0.992981 0.860780
vt 0.993160 0.807343
vt 0.990642 0.860780
vt 0.990820 0.807343
vt 0.995321 0.860780
vt 0.995499 0.807343
vt 0.505768 0.837994
vt 0.044032 0.827314
vt 0.997660 0.000000
vt 0.511054 0.818253
vt 0.038746 0.817444
vt 0.883635 0.991584
vt 0.855362 0.756363
vt 0.845272 0.991584
vt 0.434253 0.625442
vt 0.860255 0.756363
vt 0.169362 0.826722
vt 0.511055 0.837999
vt 0.601564 0.019032
vt 0.625408 0.013473
vt 0.649878 0.012673
vt 0.674034 0.016664
vt 0.696947 0.025291
vt 0.717738 0.038224
vt 0.735606 0.054965
vt 0.749866 0.074871
vt 0.759969 0.097177
vt 0.765527 0.121026
vt 0.766327 0.145501
vt 0.762338 0.169662
vt 0.753712 0.192580
vt 0.724045 0.231247
vt 0.704144 0.245510
vt 0.681842 0.255615
vt 0.657999 0.261174
vt 0.633529 0.261974
vt 0.609373 0.257983
vt 0.586460 0.249356
vt 0.547801 0.219682
vt 0.533541 0.199776
vt 0.523438 0.177470
vt 0.517880 0.153621
vt 0.517080 0.129146
vt 0.521069 0.104985
vt 0.529694 0.082067
vt 0.859236 0.432328
vt 0.926502 0.972088
vt 0.693663 0.899982
vt 0.481265 0.808381
vt 0.481265 0.875280
vt 0.764203 0.451871
vt 0.764396 0.415568
vt 0.764332 0.435397
vt 0.764266 0.434972
vt 0.544367 0.462197
vt 0.530991 0.442170
vt 0.521777 0.419918
vt 0.517080 0.396295
vt 0.517080 0.372209
vt 0.521777 0.348586
vt 0.530991 0.326333
vt 0.544367 0.306306
vt 0.561391 0.289274
vt 0.581410 0.275892
vt 0.603654 0.266674
vt 0.627268 0.261975
vt 0.651345 0.261974
vt 0.674959 0.266672
vt 0.697202 0.275889
vt 0.734246 0.306301
vt 0.747622 0.326327
vt 0.756836 0.348579
vt 0.761533 0.372202
vt 0.761533 0.396288
vt 0.756836 0.419912
vt 0.747622 0.442164
vt 0.717221 0.479223
vt 0.697202 0.492605
vt 0.674959 0.501823
vt 0.651345 0.506523
vt 0.627268 0.506523
vt 0.603654 0.501825
vt 0.581410 0.492609
vt 0.094900 0.823161
vt 0.068466 0.809557
vt 0.845272 0.756363
vt 0.927408 0.249837
vt 0.767419 0.756363
vt 0.744119 0.756360
vt 0.892887 0.249837
vt 0.750614 0.506523
vt 0.926502 0.506523
vt -0.000000 0.817427
vt 0.814567 0.122091
vt 0.767494 0.756363
vt 0.797943 0.756404
vt 0.975184 0.249837
vt 0.978466 0.741745
vt 0.976415 0.506523
vt 0.969402 0.506523
vt 0.965973 0.249837
vt 0.956366 0.249837
vt 0.969362 0.741745
vt 0.985679 0.249837
vt 0.981698 0.741744
vt 0.879226 0.991584
vt 0.138677 0.815431
vt 0.089615 0.829304
vt 0.505768 0.818256
vt 0.164078 0.836596
vt 0.988864 0.741745
vt 0.985679 0.485058
vt 0.750614 0.756360
vt 0.976415 0.741744
vt 0.188711 0.819466
vt 0.511054 0.818255
vt 0.232162 0.828353
vt 0.895620 0.756363
vt 0.860254 0.991584
vt 0.975184 0.485058
vt 0.193997 0.799722
vt 0.138677 0.815430
vt 0.133392 0.825304
vt 0.505768 0.828123
vt 0.874728 0.756363
vt 0.869920 0.756363
vt 0.874728 0.991584
vt 0.089615 0.819430
vt 0.500483 0.808381
vt 0.517080 0.888478
vt 0.797943 0.849313
vt 0.676961 0.756360
vt 0.481265 0.831417
vt 0.824067 0.490541
vt 0.158253 0.827439
vt 0.212597 0.821771
vt 0.838633 0.453440
vt 0.256518 0.761614
vt 0.809442 0.504587
vt 0.068466 0.824942
vt 0.198476 0.821771
vt 0.019557 0.838613
vt 0.242801 0.761614
vt 0.158794 0.776592
vt 0.188711 0.799722
vt 0.212597 0.773433
vt 0.068466 0.814052
vt 0.158794 0.798427
vt 0.228301 0.818481
vt 0.094900 0.823161
vt 0.019557 0.817443
vt 0.133391 0.823070
vt 0.763882 0.397358
vt 0.764202 0.372467
vt 0.764203 0.317220
vt 0.139059 0.761614
vt 0.173586 0.799722
vt 0.065540 0.826722
vt 0.130973 0.828611
vt 0.239714 0.821772
vt 0.761533 0.506518
vt 0.999822 0.610944
vt 0.995143 0.860781
vt 0.992803 0.860781
vt 0.997482 0.860781
s 0
usemtl madeira
f 4/4/2 5/5/2 3/6/2
f 8/10/3 9/11/3 7/12/3
f 10/13/4 11/14/4 9/11/4
f 14/18/5 15/19/5 13/20/5
f 16/21/6 17/22/6 15/23/6
f 20/27/8 21/28/8 19/29/8
f 22/30/9 23/31/9 21/28/9
f 26/35/10 27/36/10 25/37/10
f 28/38/11 29/39/11 27/36/11
f 32/43/13 33/44/13 31/45/13
f 34/46/14 35/47/14 33/44/14
f 38/51/16 39/52/16 37/53/16
f 40/54/17 41/55/17 39/52/17
f 44/57/19 45/58/19 43/59/19
f 46/60/12 47/61/12 45/58/12
f 50/65/20 51/66/20 49/67/20
f 52/68/21 53/69/21 51/66/21
f 56/73/22 57/74/22 55/75/22
f 58/76/23 59/77/23 57/74/23
f 16/81/7 73/82/7 18/83/7
f 62/84/24 63/85/24 61/86/24
f 1/87/7 226/88/7 3/89/7
f 31/90/7 47/91/7 63/92/7
f 34/96/7 82/97/7 36/98/7
f 52/99/7 91/100/7 54/101/7
f 8/102/7 69/103/7 10/104/7
f 26/105/7 78/106/7 28/107/7
f 46/108/7 86/109/7 87/110/7
f 64/111/7 95/112/7 96/113/7
f 18/83/7 74/114/7 20/115/7
f 36/98/7 83/116/7 38/117/7
f 54/101/7 92/118/7 56/119/7
f 10/104/7 70/120/7 12/121/7
f 30/122/7 78/106/7 79/123/7
f 48/124/7 87/110/7 88/125/7
f 2/126/7 65/127/7 4/128/7
f 64/111/7 66/129/7 2/126/7
f 20/115/7 75/130/7 22/131/7
f 38/117/7 84/132/7 40/133/7
f 56/119/7 93/134/7 58/135/7
f 14/136/7 70/120/7 71/137/7
f 32/138/7 79/123/7 80/139/7
f 48/124/7 89/140/7 50/141/7
f 4/128/7 67/142/7 6/143/7
f 22/131/7 76/144/7 24/145/7
f 40/133/7 85/146/7 42/147/7
f 58/135/7 94/148/7 60/149/7
f 16/81/7 71/137/7 72/150/7
f 32/138/7 81/151/7 34/96/7
f 50/141/7 90/152/7 52/99/7
f 6/143/7 68/153/7 8/102/7
f 24/145/7 77/154/7 26/105/7
f 42/147/7 86/109/7 44/155/7
f 105/157/25 170/158/25 106/159/25
f 2/186/1 229/187/1 64/188/1
f 4/214/32 226/215/32 227/216/32
f 119/292/34 184/293/34 120/294/34
f 120/297/26 185/298/26 121/299/26
f 121/299/20 186/302/20 122/303/20
f 122/303/37 187/306/37 123/307/37
f 123/307/38 188/310/38 124/311/38
f 124/311/22 189/317/22 125/318/22
f 125/318/23 190/323/23 126/324/23
f 100/329/3 165/334/3 101/335/3
f 101/335/4 166/340/4 102/341/4
f 115/339/50 180/344/50 116/345/50
f 116/345/17 181/348/17 117/349/17
f 103/347/52 168/350/52 104/351/52
f 117/349/33 182/352/33 118/353/33
f 104/354/6 169/355/6 105/157/6
f 118/353/53 183/356/53 119/292/53
f 225/427/55 227/428/55 226/429/55
f 229/430/56 225/431/56 230/432/56
f 236/433/54 239/434/54 233/435/54
f 232/436/7 239/437/7 238/438/7
f 160/208/54 233/435/54 96/209/54
f 65/439/32 234/440/32 129/441/32
f 66/129/7 231/443/7 65/127/7
f 2/186/1 227/444/1 228/445/1
f 64/446/54 230/432/54 63/85/54
f 66/129/7 233/447/7 232/436/7
f 1/87/7 230/448/7 225/449/7
f 346/450/57 248/451/57 347/452/57
f 338/453/58 246/454/58 339/455/58
f 232/436/7 237/458/7 231/443/7
f 231/459/32 240/460/32 234/440/32
f 244/462/59 246/463/59 243/464/59
f 245/465/60 247/466/60 244/467/60
f 245/465/61 333/468/61 334/469/61
f 354/470/62 248/471/62 245/472/62
f 346/450/63 246/473/63 247/474/63
f 335/475/64 329/476/64 355/477/64
f 6/478/30 249/479/30 5/5/30
f 8/10/30 250/480/30 6/478/30
f 7/12/30 251/481/30 8/10/30
f 5/5/30 252/482/30 7/12/30
f 12/483/18 253/484/18 11/14/18
f 14/18/18 254/485/18 12/483/18
f 13/20/18 255/486/18 14/18/18
f 11/14/18 256/487/18 13/20/18
f 18/488/25 257/489/25 17/22/25
f 20/27/25 258/490/25 18/488/25
f 19/29/25 259/491/25 20/27/25
f 17/22/25 260/492/25 19/29/25
f 24/493/27 261/494/27 23/31/27
f 26/35/27 262/495/27 24/493/27
f 25/37/27 263/496/27 26/35/27
f 23/31/27 264/497/27 25/37/27
f 30/498/29 265/499/29 29/39/29
f 32/500/29 266/501/29 30/498/29
f 31/502/29 267/503/29 32/500/29
f 29/39/29 268/504/29 31/502/29
f 36/505/31 269/506/31 35/47/31
f 38/51/31 270/507/31 36/505/31
f 37/53/31 271/508/31 38/51/31
f 35/47/31 272/509/31 37/53/31
f 42/510/33 273/511/33 41/55/33
f 44/57/33 274/512/33 42/510/33
f 43/59/33 275/513/33 44/57/33
f 41/55/33 276/514/33 43/59/33
f 48/515/26 277/516/26 47/517/26
f 50/65/26 278/518/26 48/515/26
f 49/67/26 279/519/26 50/65/26
f 47/517/26 280/520/26 49/67/26
f 54/521/28 281/522/28 53/69/28
f 56/73/28 282/523/28 54/521/28
f 55/75/28 283/524/28 56/73/28
f 53/69/28 284/525/28 55/75/28
f 60/526/15 285/527/15 59/77/15
f 62/84/15 286/528/15 60/526/15
f 61/86/15 287/529/15 62/84/15
f 59/77/15 288/530/15 61/86/15
f 363/643/65 334/644/65 333/645/65
f 363/643/66 332/646/66 358/647/66
f 245/472/67 362/648/67 354/470/67
f 237/649/68 330/650/68 329/651/68
f 239/652/69 330/650/69 238/653/69
f 243/464/70 333/654/70 244/462/70
f 351/655/67 331/656/67 239/652/67
f 352/657/67 359/658/67 351/655/67
f 353/659/67 360/660/67 352/657/67
f 354/470/67 361/661/67 353/659/67
f 330/662/66 355/663/66 329/664/66
f 366/665/66 356/666/66 355/663/66
f 365/667/66 357/668/66 356/666/66
f 364/669/66 358/647/66 357/668/66
f 330/662/65 359/670/65 366/665/65
f 366/665/65 360/671/65 365/667/65
f 365/667/65 361/672/65 364/669/65
f 364/669/65 362/673/65 363/643/65
f 243/674/64 358/675/64 332/676/64
f 338/453/64 357/677/64 358/675/64
f 337/678/64 356/679/64 357/677/64
f 336/680/64 355/477/64 356/679/64
f 241/457/63 342/681/63 343/682/63
f 343/682/63 341/683/63 344/684/63
f 344/684/63 340/685/63 345/686/63
f 345/686/63 339/687/63 346/450/63
f 242/688/62 351/655/62 239/652/62
f 349/692/62 353/659/62 352/657/62
f 240/460/58 335/475/58 342/696/58
f 341/700/58 337/678/58 340/701/58
f 241/457/57 350/705/57 242/461/57
f 343/682/57 349/706/57 350/705/57
f 344/684/57 348/707/57 349/706/57
f 345/686/57 347/452/57 348/707/57
f 351/655/62 368/708/62 367/709/62
f 350/710/62 369/711/62 368/708/62
f 352/657/62 369/711/62 349/692/62
f 351/655/62 370/712/62 352/657/62
f 348/713/62 371/714/62 353/659/62
f 348/713/62 373/715/62 372/716/62
f 354/470/62 373/715/62 347/717/62
f 353/659/62 374/718/62 354/470/62
f 335/475/58 375/719/58 342/696/58
f 335/475/58 377/720/58 376/721/58
f 336/680/58 378/722/58 377/720/58
f 342/696/58 378/722/58 341/700/58
f 340/701/58 380/723/58 379/724/58
f 337/678/58 381/725/58 380/723/58
f 339/455/58 381/725/58 338/453/58
f 340/701/58 382/726/58 339/455/58
f 402/778/1 405/779/1 401/780/1
f 208/798/7 410/799/7 411/800/7
f 210/805/7 410/799/7 209/806/7
f 4/4/2 6/478/2 5/5/2
f 8/10/3 10/13/3 9/11/3
f 10/13/4 12/483/4 11/14/4
f 14/18/5 16/829/5 15/19/5
f 16/21/6 18/488/6 17/22/6
f 20/27/8 22/30/8 21/28/8
f 22/30/9 24/493/9 23/31/9
f 26/35/10 28/38/10 27/36/10
f 28/38/11 30/498/11 29/39/11
f 32/43/13 34/46/13 33/44/13
f 34/46/14 36/505/14 35/47/14
f 38/51/16 40/54/16 39/52/16
f 40/54/17 42/510/17 41/55/17
f 44/57/19 46/60/19 45/58/19
f 46/60/12 48/835/12 47/61/12
f 50/65/20 52/68/20 51/66/20
f 52/68/21 54/521/21 53/69/21
f 56/73/22 58/76/22 57/74/22
f 58/76/23 60/526/23 59/77/23
f 16/81/7 72/150/7 73/82/7
f 62/84/24 64/446/24 63/85/24
f 1/87/7 225/449/7 226/88/7
f 63/92/7 1/87/7 3/89/7
f 3/89/7 5/839/7 7/840/7
f 7/840/7 9/841/7 11/842/7
f 11/842/7 13/843/7 15/844/7
f 15/844/7 17/845/7 19/846/7
f 19/846/7 21/847/7 23/848/7
f 23/848/7 25/849/7 27/850/7
f 27/850/7 29/851/7 31/90/7
f 31/90/7 33/852/7 35/853/7
f 35/853/7 37/854/7 39/855/7
f 39/855/7 41/856/7 43/857/7
f 43/857/7 45/858/7 47/91/7
f 47/91/7 49/859/7 51/860/7
f 51/860/7 53/861/7 55/862/7
f 55/862/7 57/863/7 59/864/7
f 59/864/7 61/865/7 63/92/7
f 63/92/7 3/89/7 7/840/7
f 7/840/7 11/842/7 15/844/7
f 15/844/7 19/846/7 23/848/7
f 23/848/7 27/850/7 31/90/7
f 31/90/7 35/853/7 39/855/7
f 39/855/7 43/857/7 47/91/7
f 47/91/7 51/860/7 55/862/7
f 55/862/7 59/864/7 63/92/7
f 63/92/7 7/840/7 15/844/7
f 15/844/7 23/848/7 31/90/7
f 31/90/7 39/855/7 47/91/7
f 47/91/7 55/862/7 63/92/7
f 63/92/7 15/844/7 31/90/7
f 34/96/7 81/151/7 82/97/7
f 52/99/7 90/152/7 91/100/7
f 8/102/7 68/153/7 69/103/7
f 26/105/7 77/154/7 78/106/7
f 46/108/7 44/155/7 86/109/7
f 64/111/7 62/156/7 95/112/7
f 18/83/7 73/82/7 74/114/7
f 36/98/7 82/97/7 83/116/7
f 54/101/7 91/100/7 92/118/7
f 10/104/7 69/103/7 70/120/7
f 30/122/7 28/107/7 78/106/7
f 48/124/7 46/108/7 87/110/7
f 2/126/7 66/129/7 65/127/7
f 64/111/7 96/113/7 66/129/7
f 20/115/7 74/114/7 75/130/7
f 38/117/7 83/116/7 84/132/7
f 56/119/7 92/118/7 93/134/7
f 14/136/7 12/121/7 70/120/7
f 32/138/7 30/122/7 79/123/7
f 48/124/7 88/125/7 89/140/7
f 4/128/7 65/127/7 67/142/7
f 22/131/7 75/130/7 76/144/7
f 40/133/7 84/132/7 85/146/7
f 58/135/7 93/134/7 94/148/7
f 16/81/7 14/136/7 71/137/7
f 32/138/7 80/139/7 81/151/7
f 50/141/7 89/140/7 90/152/7
f 6/143/7 67/142/7 68/153/7
f 24/145/7 76/144/7 77/154/7
f 42/147/7 85/146/7 86/109/7
f 105/157/25 169/355/25 170/158/25
f 2/186/1 228/445/1 229/187/1
f 4/214/32 3/870/32 226/215/32
f 119/292/91 183/356/91 184/293/91
f 120/297/26 184/871/26 185/298/26
f 121/299/20 185/298/20 186/302/20
f 122/303/94 186/302/94 187/306/94
f 123/307/96 187/306/96 188/310/96
f 124/311/22 188/310/22 189/317/22
f 125/318/98 189/317/98 190/323/98
f 100/329/101 164/328/101 165/334/101
f 101/335/4 165/334/4 166/340/4
f 115/339/102 179/338/102 180/344/102
f 116/345/104 180/344/104 181/348/104
f 103/347/105 167/346/105 168/350/105
f 117/349/33 181/348/33 182/352/33
f 104/354/6 168/874/6 169/355/6
f 118/353/106 182/352/106 183/356/106
f 225/427/55 228/910/55 227/428/55
f 229/430/56 228/911/56 225/431/56
f 236/433/54 242/912/54 239/434/54
f 232/436/7 233/447/7 239/437/7
f 160/208/54 236/433/54 233/435/54
f 65/439/32 231/459/32 234/440/32
f 66/129/7 232/436/7 231/443/7
f 2/186/1 4/913/1 227/444/1
f 64/446/54 229/430/54 230/432/54
f 66/129/7 96/113/7 233/447/7
f 1/87/7 63/92/7 230/448/7
f 346/450/57 247/474/57 248/451/57
f 338/453/58 243/674/58 246/454/58
f 232/436/7 238/438/7 237/458/7
f 231/459/32 237/914/32 240/460/32
f 244/462/59 247/915/59 246/463/59
f 245/465/60 248/916/60 247/466/60
f 245/465/107 244/467/107 333/468/107
f 354/470/62 347/717/62 248/471/62
f 346/450/63 339/687/63 246/473/63
f 335/475/64 237/914/64 329/476/64
f 6/478/30 250/480/30 249/479/30
f 8/10/30 251/481/30 250/480/30
f 7/12/30 252/482/30 251/481/30
f 5/5/30 249/479/30 252/482/30
f 12/483/18 254/485/18 253/484/18
f 14/18/18 255/486/18 254/485/18
f 13/20/18 256/487/18 255/486/18
f 11/14/18 253/484/18 256/487/18
f 18/488/25 258/490/25 257/489/25
f 20/27/25 259/491/25 258/490/25
f 19/29/25 260/492/25 259/491/25
f 17/22/25 257/489/25 260/492/25
f 24/493/27 262/495/27 261/494/27
f 26/35/27 263/496/27 262/495/27
f 25/37/27 264/497/27 263/496/27
f 23/31/27 261/494/27 264/497/27
f 30/498/29 266/501/29 265/499/29
f 32/500/29 267/503/29 266/501/29
f 31/502/29 268/504/29 267/503/29
f 29/39/29 265/499/29 268/504/29
f 36/505/31 270/507/31 269/506/31
f 38/51/31 271/508/31 270/507/31
f 37/53/31 272/509/31 271/508/31
f 35/47/31 269/506/31 272/509/31
f 42/510/33 274/512/33 273/511/33
f 44/57/33 275/513/33 274/512/33
f 43/59/33 276/514/33 275/513/33
f 41/55/33 273/511/33 276/514/33
f 48/515/26 278/518/26 277/516/26
f 50/65/26 279/519/26 278/518/26
f 49/67/26 280/520/26 279/519/26
f 47/517/26 277/516/26 280/520/26
f 54/521/28 282/523/28 281/522/28
f 56/73/28 283/524/28 282/523/28
f 55/75/28 284/525/28 283/524/28
f 53/69/28 281/522/28 284/525/28
f 60/526/15 286/528/15 285/527/15
f 62/84/15 287/529/15 286/528/15
f 61/86/15 288/530/15 287/529/15
f 59/77/15 285/527/15 288/530/15
f 363/643/65 362/673/65 334/644/65
f 363/643/66 333/645/66 332/646/66
f 245/472/67 334/950/67 362/648/67
f 237/649/108 238/653/108 330/650/108
f 239/652/109 331/656/109 330/650/109
f 243/464/110 332/951/110 333/654/110
f 351/655/67 359/658/67 331/656/67
f 352/657/67 360/660/67 359/658/67
f 353/659/67 361/661/67 360/660/67
f 354/470/67 362/648/67 361/661/67
f 330/662/66 366/665/66 355/663/66
f 366/665/66 365/667/66 356/666/66
f 365/667/66 364/669/66 357/668/66
f 364/669/66 363/643/66 358/647/66
f 330/662/65 331/952/65 359/670/65
f 366/665/65 359/670/65 360/671/65
f 365/667/65 360/671/65 361/672/65
f 364/669/65 361/672/65 362/673/65
f 243/674/64 338/453/64 358/675/64
f 338/453/64 337/678/64 357/677/64
f 337/678/64 336/680/64 356/679/64
f 336/680/64 335/475/64 355/477/64
f 241/457/63 240/456/63 342/681/63
f 343/682/63 342/681/63 341/683/63
f 344/684/63 341/683/63 340/685/63
f 345/686/63 340/685/63 339/687/63
f 242/688/62 350/710/62 351/655/62
f 349/692/62 348/713/62 353/659/62
f 240/460/58 237/914/58 335/475/58
f 341/700/58 336/680/58 337/678/58
f 241/457/57 343/682/57 350/705/57
f 343/682/57 344/684/57 349/706/57
f 344/684/57 345/686/57 348/707/57
f 345/686/57 346/450/57 347/452/57
f 351/655/62 350/710/62 368/708/62
f 350/710/62 349/692/62 369/711/62
f 352/657/62 370/712/62 369/711/62
f 351/655/62 367/709/62 370/712/62
f 348/713/62 372/716/62 371/714/62
f 348/713/62 347/717/62 373/715/62
f 354/470/62 374/718/62 373/715/62
f 353/659/62 371/714/62 374/718/62
f 335/475/58 376/721/58 375/719/58
f 335/475/58 336/680/58 377/720/58
f 336/680/58 341/700/58 378/722/58
f 342/696/58 375/719/58 378/722/58
f 340/701/58 337/678/58 380/723/58
f 337/678/58 338/453/58 381/725/58
f 339/455/58 382/726/58 381/725/58
f 340/701/58 379/724/58 382/726/58
f 402/778/1 406/974/1 405/779/1
f 208/798/7 209/806/7 410/799/7
f 210/805/7 412/981/7 410/799/7
usemtl cordas
f 413/807/89 416/808/89 415/809/89
f 417/810/89 420/811/89 419/812/89
f 421/813/89 424/814/89 423/815/89
f 425/816/89 428/817/89 427/818/89
f 413/807/90 430/819/90 414/820/90
f 425/816/90 436/821/90 426/822/90
f 421/813/90 434/823/90 422/824/90
f 417/810/90 432/825/90 418/826/90
f 413/807/89 414/820/89 416/808/89
f 417/810/89 418/826/89 420/811/89
f 421/813/89 422/824/89 424/814/89
f 425/816/89 426/822/89 428/817/89
f 413/807/90 429/982/90 430/819/90
f 425/816/90 435/983/90 436/821/90
f 421/813/90 433/984/90 434/823/90
f 417/810/90 431/985/90 432/825/90
usemtl branco
f 211/357/1 203/358/1 195/359/1
f 377/689/71 391/690/71 376/691/71
f 369/693/72 385/694/72 386/695/72
f 382/697/73 396/698/73 397/699/73
f 373/702/74 387/703/74 372/704/74
f 383/727/62 385/728/62 384/729/62
f 387/730/62 389/731/62 388/732/62
f 392/733/58 394/734/58 393/735/58
f 396/736/58 398/737/58 397/738/58
f 374/739/75 390/740/75 373/741/75
f 381/742/76 395/743/76 380/744/76
f 378/745/77 394/746/77 377/747/77
f 381/748/78 397/749/78 398/750/78
f 368/751/79 384/752/79 367/753/79
f 371/754/80 387/755/80 388/756/80
f 370/757/81 384/758/81 385/759/81
f 375/760/82 391/761/82 392/762/82
f 374/763/83 388/764/83 389/765/83
f 380/766/84 396/767/84 379/768/84
f 369/769/85 383/770/85 368/771/85
f 378/772/86 392/773/86 393/774/86
f 195/359/1 193/875/1 194/876/1
f 194/876/1 224/877/1 223/878/1
f 223/878/1 222/879/1 221/880/1
f 221/880/1 220/881/1 219/882/1
f 219/882/1 218/883/1 217/884/1
f 217/884/1 216/885/1 215/886/1
f 215/886/1 214/887/1 213/888/1
f 213/888/1 212/889/1 211/357/1
f 211/357/1 210/890/1 209/891/1
f 209/891/1 208/892/1 207/893/1
f 207/893/1 206/894/1 205/895/1
f 205/895/1 204/896/1 203/358/1
f 203/358/1 202/897/1 201/898/1
f 201/898/1 200/899/1 199/900/1
f 199/900/1 198/901/1 197/902/1
f 197/902/1 196/903/1 195/359/1
f 195/359/1 194/876/1 223/878/1
f 223/878/1 221/880/1 219/882/1
f 219/882/1 217/884/1 215/886/1
f 215/886/1 213/888/1 211/357/1
f 211/357/1 209/891/1 207/893/1
f 207/893/1 205/895/1 203/358/1
f 203/358/1 201/898/1 199/900/1
f 199/900/1 197/902/1 195/359/1
f 195/359/1 223/878/1 219/882/1
f 219/882/1 215/886/1 211/357/1
f 211/357/1 207/893/1 203/358/1
f 203/358/1 199/900/1 195/359/1
f 195/359/1 219/882/1 211/357/1
f 377/689/71 394/953/71 391/690/71
f 369/693/72 370/954/72 385/694/72
f 382/697/73 379/955/73 396/698/73
f 373/702/74 390/956/74 387/703/74
f 383/727/62 386/957/62 385/728/62
f 387/730/62 390/958/62 389/731/62
f 392/733/58 391/959/58 394/734/58
f 396/736/58 395/960/58 398/737/58
f 374/739/75 389/961/75 390/740/75
f 381/742/76 398/962/76 395/743/76
f 378/745/77 393/963/77 394/746/77
f 381/748/78 382/964/78 397/749/78
f 368/751/79 383/965/79 384/752/79
f 371/754/80 372/966/80 387/755/80
f 370/757/81 367/967/81 384/758/81
f 375/760/82 376/968/82 391/761/82
f 374/763/83 371/969/83 388/764/83
f 380/766/84 395/970/84 396/767/84
f 369/769/85 386/971/85 383/770/85
f 378/772/86 375/972/86 392/773/86
usemtl preto
f 130/1/1 234/2/1 235/3/1
f 255/7/1 293/8/1 254/9/1
f 275/15/1 313/16/1 274/17/1
f 253/24/7 295/25/7 256/26/7
f 276/32/7 314/33/7 315/34/7
f 268/40/12 308/41/12 267/42/12
f 254/48/15 294/49/15 253/50/15
f 288/50/18 328/56/18 287/48/18
f 274/62/10 314/63/10 273/64/10
f 267/70/1 305/71/1 266/72/1
f 287/78/1 325/79/1 286/80/1
f 72/93/6 137/94/6 73/95/6
f 62/156/7 94/148/7 95/112/7
f 86/160/19 151/161/19 87/162/19
f 73/95/25 138/163/25 74/164/25
f 87/162/12 152/165/12 88/166/12
f 74/164/8 139/167/8 75/168/8
f 88/169/26 153/170/26 89/171/26
f 75/168/9 140/172/9 76/173/9
f 89/171/20 154/174/20 90/175/20
f 76/173/27 141/176/27 77/177/27
f 90/175/21 155/178/21 91/179/21
f 77/177/10 142/180/10 78/181/10
f 91/179/28 156/182/28 92/183/28
f 78/181/11 143/184/11 79/185/11
f 92/183/22 157/189/22 93/190/22
f 79/185/29 144/6/29 80/191/29
f 65/192/2 131/193/2 67/194/2
f 93/190/23 158/195/23 94/196/23
f 80/197/13 145/198/13 81/199/13
f 67/194/30 132/200/30 68/201/30
f 94/196/15 159/202/15 95/203/15
f 81/199/14 146/204/14 82/205/14
f 68/201/3 133/206/3 69/207/3
f 95/203/24 160/208/24 96/209/24
f 82/205/31 147/210/31 83/211/31
f 69/207/4 134/212/4 70/213/4
f 83/211/16 148/217/16 84/218/16
f 70/213/18 135/219/18 71/220/18
f 84/218/17 149/221/17 85/222/17
f 71/220/5 136/223/5 72/224/5
f 85/222/33 150/225/33 86/160/33
f 97/226/1 130/1/1 98/227/1
f 97/226/1 131/228/1 129/229/1
f 100/230/1 131/228/1 99/231/1
f 101/232/1 132/233/1 100/230/1
f 102/234/1 133/235/1 101/232/1
f 102/234/1 135/236/1 134/237/1
f 104/238/1 135/236/1 103/239/1
f 105/240/1 136/241/1 104/238/1
f 106/242/1 137/243/1 105/240/1
f 106/242/1 139/244/1 138/245/1
f 108/246/1 139/244/1 107/247/1
f 109/248/1 140/249/1 108/246/1
f 110/250/1 141/251/1 109/248/1
f 110/250/1 143/252/1 142/253/1
f 112/254/1 143/252/1 111/255/1
f 113/256/1 144/257/1 112/254/1
f 114/258/1 145/259/1 113/256/1
f 114/258/1 147/260/1 146/261/1
f 116/262/1 147/260/1 115/263/1
f 117/264/1 148/265/1 116/262/1
f 118/266/1 149/267/1 117/264/1
f 118/266/1 151/268/1 150/269/1
f 120/270/1 151/268/1 119/271/1
f 121/272/1 152/273/1 120/270/1
f 122/274/1 153/275/1 121/272/1
f 122/274/1 155/276/1 154/277/1
f 124/278/1 155/276/1 123/279/1
f 125/280/1 156/281/1 124/278/1
f 126/282/1 157/283/1 125/280/1
f 126/282/1 159/284/1 158/285/1
f 128/286/1 159/284/1 127/287/1
f 98/227/1 160/288/1 128/286/1
f 172/289/22 205/290/22 173/291/22
f 106/159/35 171/295/35 107/296/35
f 107/296/36 172/300/36 108/301/36
f 108/301/27 173/304/27 109/305/27
f 109/305/10 174/308/10 110/309/10
f 110/309/39 175/312/39 111/313/39
f 98/314/40 161/315/40 97/316/40
f 111/313/41 176/319/41 112/320/41
f 97/316/42 163/321/42 99/322/42
f 112/325/43 177/326/43 113/327/43
f 99/322/44 164/328/44 100/329/44
f 126/324/45 191/330/45 127/331/45
f 113/327/46 178/332/46 114/333/46
f 127/331/47 192/336/47 128/337/47
f 114/333/48 179/338/48 115/339/48
f 128/337/49 162/342/49 98/343/49
f 102/341/51 167/346/51 103/347/51
f 186/360/8 219/361/8 187/362/8
f 173/291/23 206/363/23 174/364/23
f 187/362/9 220/365/9 188/366/9
f 174/364/15 207/367/15 175/368/15
f 162/369/14 193/370/14 161/371/14
f 188/366/27 221/372/27 189/373/27
f 175/368/24 208/374/24 176/375/24
f 161/371/31 195/376/31 163/377/31
f 189/373/10 222/378/10 190/379/10
f 178/380/54 412/381/54 210/382/54
f 163/377/16 196/383/16 164/384/16
f 190/379/11 223/385/11 191/386/11
f 176/387/1 407/388/1 177/389/1
f 164/384/17 197/390/17 165/391/17
f 191/386/29 224/392/29 192/393/29
f 178/394/2 211/395/2 179/396/2
f 165/391/33 198/397/33 166/398/33
f 192/399/13 194/400/13 162/369/13
f 179/396/30 212/401/30 180/402/30
f 166/398/19 199/403/19 167/404/19
f 180/402/3 213/405/3 181/406/3
f 167/404/12 200/407/12 168/408/12
f 181/406/4 214/409/4 182/410/4
f 168/411/26 201/412/26 169/413/26
f 182/410/18 215/414/18 183/415/18
f 169/413/20 202/416/20 170/417/20
f 183/415/5 216/418/5 184/419/5
f 170/417/21 203/420/21 171/421/21
f 184/422/6 217/423/6 185/424/6
f 171/421/28 204/425/28 172/289/28
f 185/424/25 218/426/25 186/360/25
f 130/1/1 236/442/1 160/288/1
f 235/3/1 240/456/1 241/457/1
f 235/3/1 242/461/1 236/442/1
f 289/531/30 291/532/30 290/533/30
f 293/534/18 295/535/18 294/536/18
f 297/537/25 299/538/25 298/539/25
f 301/540/27 303/541/27 302/542/27
f 305/543/29 307/544/29 306/545/29
f 309/546/31 311/547/31 310/548/31
f 313/549/33 315/550/33 314/551/33
f 317/552/26 319/553/26 318/554/26
f 321/555/28 323/556/28 322/535/28
f 325/557/15 327/558/15 326/559/15
f 282/560/16 322/561/16 281/562/16
f 262/563/3 302/564/3 261/565/3
f 276/566/23 316/567/23 275/568/23
f 256/569/11 296/570/11 255/571/11
f 281/572/7 323/573/7 284/574/7
f 261/575/7 303/576/7 264/577/7
f 283/578/1 321/579/1 282/580/1
f 262/581/1 304/582/1 301/583/1
f 270/584/8 310/585/8 269/586/8
f 284/587/30 324/588/30 283/589/30
f 250/590/28 290/591/28 249/592/28
f 264/593/17 304/594/17 263/595/17
f 269/596/7 311/597/7 272/598/7
f 249/599/7 291/600/7 252/601/7
f 270/602/1 312/603/1 309/604/1
f 251/605/1 289/606/1 250/607/1
f 278/42/13 318/608/13 277/40/13
f 258/609/59 298/610/59 257/608/59
f 272/611/21 312/612/21 271/613/21
f 252/614/9 292/615/9 251/616/9
f 277/617/7 319/618/7 280/619/7
f 260/620/7 298/621/7 299/622/7
f 278/623/1 320/624/1 317/625/1
f 259/626/1 297/627/1 258/628/1
f 286/629/19 326/630/19 285/631/19
f 266/613/5 306/632/5 265/611/5
f 280/520/60 320/633/60 279/519/60
f 260/634/14 300/635/14 259/636/14
f 285/637/7 327/638/7 288/639/7
f 268/640/7 306/641/7 307/642/7
f 400/775/32 401/776/32 399/777/32
f 406/781/54 403/782/54 405/783/54
f 404/784/7 399/785/7 403/786/7
f 405/787/87 399/788/87 401/789/87
f 402/790/88 404/791/88 406/781/88
f 408/792/60 410/793/60 407/794/60
f 407/795/59 412/796/59 409/797/59
f 208/801/32 408/731/32 176/802/32
f 178/803/1 407/388/1 409/804/1
f 130/1/1 129/229/1 234/2/1
f 255/7/1 296/827/1 293/8/1
f 275/15/1 316/828/1 313/16/1
f 253/24/7 294/830/7 295/25/7
f 276/32/7 273/831/7 314/33/7
f 268/40/12 307/832/12 308/41/12
f 254/48/15 293/833/15 294/49/15
f 288/50/18 327/834/18 328/56/18
f 274/62/10 313/836/10 314/63/10
f 267/70/1 308/837/1 305/71/1
f 287/78/1 328/838/1 325/79/1
f 72/93/6 136/866/6 137/94/6
f 62/156/7 60/149/7 94/148/7
f 86/160/19 150/225/19 151/161/19
f 73/95/25 137/94/25 138/163/25
f 87/162/12 151/161/12 152/165/12
f 74/164/8 138/163/8 139/167/8
f 88/169/26 152/867/26 153/170/26
f 75/168/9 139/167/9 140/172/9
f 89/171/20 153/170/20 154/174/20
f 76/173/27 140/172/27 141/176/27
f 90/175/21 154/174/21 155/178/21
f 77/177/10 141/176/10 142/180/10
f 91/179/28 155/178/28 156/182/28
f 78/181/11 142/180/11 143/184/11
f 92/183/22 156/182/22 157/189/22
f 79/185/29 143/184/29 144/6/29
f 65/192/2 129/868/2 131/193/2
f 93/190/23 157/189/23 158/195/23
f 80/197/13 144/869/13 145/198/13
f 67/194/30 131/193/30 132/200/30
f 94/196/15 158/195/15 159/202/15
f 81/199/14 145/198/14 146/204/14
f 68/201/3 132/200/3 133/206/3
f 95/203/24 159/202/24 160/208/24
f 82/205/31 146/204/31 147/210/31
f 69/207/4 133/206/4 134/212/4
f 83/211/16 147/210/16 148/217/16
f 70/213/18 134/212/18 135/219/18
f 84/218/17 148/217/17 149/221/17
f 71/220/5 135/219/5 136/223/5
f 85/222/33 149/221/33 150/225/33
f 97/226/1 129/229/1 130/1/1
f 97/226/1 99/231/1 131/228/1
f 100/230/1 132/233/1 131/228/1
f 101/232/1 133/235/1 132/233/1
f 102/234/1 134/237/1 133/235/1
f 102/234/1 103/239/1 135/236/1
f 104/238/1 136/241/1 135/236/1
f 105/240/1 137/243/1 136/241/1
f 106/242/1 138/245/1 137/243/1
f 106/242/1 107/247/1 139/244/1
f 108/246/1 140/249/1 139/244/1
f 109/248/1 141/251/1 140/249/1
f 110/250/1 142/253/1 141/251/1
f 110/250/1 111/255/1 143/252/1
f 112/254/1 144/257/1 143/252/1
f 113/256/1 145/259/1 144/257/1
f 114/258/1 146/261/1 145/259/1
f 114/258/1 115/263/1 147/260/1
f 116/262/1 148/265/1 147/260/1
f 117/264/1 149/267/1 148/265/1
f 118/266/1 150/269/1 149/267/1
f 118/266/1 119/271/1 151/268/1
f 120/270/1 152/273/1 151/268/1
f 121/272/1 153/275/1 152/273/1
f 122/274/1 154/277/1 153/275/1
f 122/274/1 123/279/1 155/276/1
f 124/278/1 156/281/1 155/276/1
f 125/280/1 157/283/1 156/281/1
f 126/282/1 158/285/1 157/283/1
f 126/282/1 127/287/1 159/284/1
f 128/286/1 160/288/1 159/284/1
f 98/227/1 130/1/1 160/288/1
f 172/289/22 204/425/22 205/290/22
f 106/159/92 170/158/92 171/295/92
f 107/296/93 171/295/93 172/300/93
f 108/301/27 172/300/27 173/304/27
f 109/305/95 173/304/95 174/308/95
f 110/309/97 174/308/97 175/312/97
f 98/314/59 162/872/59 161/315/59
f 111/313/41 175/312/41 176/319/41
f 97/316/42 161/315/42 163/321/42
f 112/325/13 176/873/13 177/326/13
f 99/322/99 163/321/99 164/328/99
f 126/324/100 190/323/100 191/330/100
f 113/327/14 177/326/14 178/332/14
f 127/331/47 191/330/47 192/336/47
f 114/333/48 178/332/48 179/338/48
f 128/337/60 192/336/60 162/342/60
f 102/341/103 166/340/103 167/346/103
f 186/360/8 218/426/8 219/361/8
f 173/291/23 205/290/23 206/363/23
f 187/362/9 219/361/9 220/365/9
f 174/364/15 206/363/15 207/367/15
f 162/369/14 194/400/14 193/370/14
f 188/366/27 220/365/27 221/372/27
f 175/368/24 207/367/24 208/374/24
f 161/371/31 193/370/31 195/376/31
f 189/373/10 221/372/10 222/378/10
f 178/380/54 409/904/54 412/381/54
f 163/377/16 195/376/16 196/383/16
f 190/379/11 222/378/11 223/385/11
f 176/387/1 408/905/1 407/388/1
f 164/384/17 196/383/17 197/390/17
f 191/386/29 223/385/29 224/392/29
f 178/394/2 210/906/2 211/395/2
f 165/391/33 197/390/33 198/397/33
f 192/399/13 224/907/13 194/400/13
f 179/396/30 211/395/30 212/401/30
f 166/398/19 198/397/19 199/403/19
f 180/402/3 212/401/3 213/405/3
f 167/404/12 199/403/12 200/407/12
f 181/406/4 213/405/4 214/409/4
f 168/411/26 200/908/26 201/412/26
f 182/410/18 214/409/18 215/414/18
f 169/413/20 201/412/20 202/416/20
f 183/415/5 215/414/5 216/418/5
f 170/417/21 202/416/21 203/420/21
f 184/422/6 216/909/6 217/423/6
f 171/421/28 203/420/28 204/425/28
f 185/424/25 217/423/25 218/426/25
f 130/1/1 235/3/1 236/442/1
f 235/3/1 234/2/1 240/456/1
f 235/3/1 241/457/1 242/461/1
f 289/531/30 292/917/30 291/532/30
f 293/534/18 296/555/18 295/535/18
f 297/537/25 300/918/25 299/538/25
f 301/540/27 304/534/27 303/541/27
f 305/543/29 308/919/29 307/544/29
f 309/546/31 312/920/31 311/547/31
f 313/549/33 316/921/33 315/550/33
f 317/552/26 320/633/26 319/553/26
f 321/555/28 324/922/28 323/556/28
f 325/557/15 328/923/15 327/558/15
f 282/560/16 321/584/16 322/561/16
f 262/563/3 301/924/3 302/564/3
f 276/566/23 315/925/23 316/567/23
f 256/569/11 295/926/11 296/570/11
f 281/572/7 322/927/7 323/573/7
f 261/575/7 302/928/7 303/576/7
f 283/578/1 324/929/1 321/579/1
f 262/581/1 263/930/1 304/582/1
f 270/584/8 309/931/8 310/585/8
f 284/587/30 323/932/30 324/588/30
f 250/590/28 289/933/28 290/591/28
f 264/593/17 303/934/17 304/594/17
f 269/596/7 310/25/7 311/597/7
f 249/599/7 290/935/7 291/600/7
f 270/602/1 271/936/1 312/603/1
f 251/605/1 292/937/1 289/606/1
f 278/42/13 317/609/13 318/608/13
f 258/609/59 297/938/59 298/610/59
f 272/611/21 311/939/21 312/612/21
f 252/614/9 291/940/9 292/615/9
f 277/617/7 318/941/7 319/618/7
f 260/620/7 257/942/7 298/621/7
f 278/623/1 279/943/1 320/624/1
f 259/626/1 300/944/1 297/627/1
f 286/629/19 325/945/19 326/630/19
f 266/613/5 305/946/5 306/632/5
f 280/520/60 319/553/60 320/633/60
f 260/634/14 299/947/14 300/635/14
f 285/637/7 326/948/7 327/638/7
f 268/640/7 265/949/7 306/641/7
f 400/775/32 402/973/32 401/776/32
f 406/781/54 404/791/54 403/782/54
f 404/784/7 400/975/7 399/785/7
f 405/787/87 403/976/87 399/788/87
f 402/790/88 400/977/88 404/791/88
f 408/792/60 411/978/60 410/793/60
f 407/795/59 410/979/59 412/796/59
f 208/801/32 411/980/32 408/731/32
f 178/803/1 177/389/1 407/388/1
