# Blender 4.3.2
# www.blender.org
mtllib client.mtl
o Cube
v 0.191187 0.656883 0.067356
v 0.098608 0.241973 0.106293
v 0.191182 0.633350 -0.061510
v 0.098322 0.230698 -0.030819
v -0.000000 0.667625 0.127250
v 0.000000 0.261255 0.159493
v -0.000000 0.664986 -0.105737
v 0.000000 0.248539 -0.066392
v 0.155834 0.149302 0.044728
v 0.152796 0.004431 0.013007
v 0.000001 0.101583 0.163150
v -0.000001 0.062122 -0.068648
v 0.169414 0.117191 0.438281
v 0.168520 0.075113 0.352165
v 0.076684 0.137067 0.453206
v 0.073861 0.012043 0.388330
v 0.096180 -0.317699 0.418543
v 0.106674 -0.321521 0.339083
v 0.168591 -0.316303 0.436368
v 0.155599 -0.320267 0.356039
v 0.182488 0.577277 0.103323
v -0.000000 0.457339 -0.062534
v 0.182100 0.513821 -0.001473
v -0.000000 0.508537 0.193167
v 0.242427 0.648998 0.045625
v 0.242388 0.622503 -0.042258
v 0.262616 0.620120 0.085685
v 0.262603 0.552006 -0.035371
v 0.296260 0.413680 0.409572
v 0.289583 0.339147 0.397669
v 0.331384 0.412012 0.412888
v 0.340362 0.338990 0.403032
v 0.298643 0.390946 0.493807
v 0.298643 0.352169 0.492673
v 0.311568 0.390859 0.496763
v 0.311568 0.352082 0.495629
v 0.329476 0.412765 0.172124
v 0.286574 0.411793 0.168874
v 0.286629 0.352624 0.167446
v 0.329652 0.351450 0.170659
v 0.096564 -0.361136 0.420654
v 0.107058 -0.364959 0.341194
v 0.168975 -0.359741 0.438479
v 0.155983 -0.363705 0.358150
v 0.168230 -0.332918 0.504663
v 0.094843 -0.332318 0.530421
v 0.168502 -0.361436 0.506154
v 0.095114 -0.360836 0.531912
v 0.148513 -0.296211 0.363591
v 0.156563 -0.293438 0.419880
v 0.106643 -0.294260 0.410643
v 0.113119 -0.297119 0.351324
v 0.053962 0.691405 -0.019493
v 0.000000 0.697155 -0.047343
v 0.053962 0.692130 0.049237
v 0.000000 0.697922 0.058385
v 0.100390 0.783618 -0.021633
v 0.000000 0.790999 -0.050654
v 0.100390 0.783618 0.045926
v 0.000000 0.752568 0.052133
v 0.110652 0.907978 -0.070907
v 0.000000 0.915359 -0.099928
v 0.110652 0.907978 0.045926
v 0.117788 1.010288 -0.076288
v 0.000000 1.050043 -0.083299
v 0.106378 1.019566 0.057052
v 0.000000 1.064717 0.066200
v 0.000000 0.766450 0.126959
v 0.074659 0.799786 0.121852
v 0.000000 0.905324 0.149238
v 0.083688 0.910525 0.141720
v 0.000000 1.037872 0.129900
v 0.090963 1.010258 0.121852
v 0.050403 0.750596 -0.012260
v 0.000000 0.756280 -0.036240
v 0.000000 0.756280 0.051122
v 0.050403 0.750596 0.043563
v 0.296619 0.400379 0.427757
v 0.290102 0.343570 0.429938
v 0.333140 0.343437 0.434483
v 0.326389 0.398966 0.430567
v 0.302800 0.419598 0.448960
v 0.324159 0.417444 0.449637
v 0.321121 0.404205 0.451430
v 0.305554 0.406090 0.442798
v 0.306566 0.418626 0.474140
v 0.318805 0.417392 0.474528
v 0.317065 0.409805 0.475556
v 0.306691 0.410851 0.475227
v 0.321452 0.391801 0.389113
v 0.305726 0.392436 0.387919
v 0.303174 0.360698 0.383274
v 0.324884 0.360641 0.385251
v 0.281602 0.419342 0.186438
v 0.281462 0.344269 0.184346
v 0.336124 0.342573 0.188767
v 0.335647 0.420717 0.190840
v 0.000000 0.847522 0.143175
v 0.000000 0.860198 0.163367
v 0.018936 0.855340 0.138280
v -0.191187 0.656899 0.067340
v -0.098612 0.242151 0.106370
v -0.191182 0.633305 -0.061522
v -0.098319 0.230041 -0.030352
v -0.155824 0.148962 0.045319
v -0.152804 0.004927 0.012745
v -0.169412 0.117126 0.438316
v -0.168510 0.074714 0.352642
v -0.076683 0.137022 0.453220
v -0.073850 0.011516 0.388848
v -0.096180 -0.317659 0.418535
v -0.106674 -0.321482 0.339075
v -0.168591 -0.316264 0.436360
v -0.155599 -0.320228 0.356031
v -0.182488 0.577398 0.103409
v -0.182100 0.513732 -0.001204
v -0.242427 0.648976 0.045642
v -0.242388 0.622427 -0.042272
v -0.262616 0.620022 0.085667
v -0.262603 0.552086 -0.035451
v -0.296260 0.413680 0.409572
v -0.289583 0.339147 0.397669
v -0.331385 0.412012 0.412888
v -0.340362 0.338990 0.403032
v -0.298643 0.390946 0.493807
v -0.298643 0.352169 0.492672
v -0.311568 0.390859 0.496763
v -0.311568 0.352082 0.495629
v -0.329476 0.412765 0.172124
v -0.286574 0.411793 0.168874
v -0.286629 0.352624 0.167446
v -0.329652 0.351450 0.170659
v -0.096564 -0.361097 0.420646
v -0.107057 -0.364919 0.341186
v -0.168975 -0.359702 0.438471
v -0.155982 -0.363665 0.358142
v -0.168230 -0.332878 0.504655
v -0.094842 -0.332278 0.530413
v -0.168502 -0.361396 0.506146
v -0.095114 -0.360797 0.531904
v -0.148513 -0.296172 0.363583
v -0.156563 -0.293399 0.419872
v -0.106643 -0.294221 0.410636
v -0.113119 -0.297079 0.351316
v -0.053962 0.691257 -0.019732
v -0.053962 0.692130 0.049237
v -0.100390 0.783618 -0.021633
v -0.100390 0.783618 0.045926
v -0.110652 0.907978 -0.070907
v -0.110652 0.907978 0.045926
v -0.117788 1.010288 -0.076288
v -0.106378 1.019566 0.057052
v -0.074659 0.799786 0.121852
v -0.083688 0.910525 0.141720
v -0.090963 1.010258 0.121852
v -0.050403 0.750596 -0.012260
v -0.050403 0.750596 0.043563
v -0.296619 0.400379 0.427757
v -0.290102 0.343570 0.429937
v -0.333140 0.343437 0.434483
v -0.326389 0.398966 0.430567
v -0.302800 0.419598 0.448960
v -0.324159 0.417444 0.449637
v -0.321121 0.404205 0.451430
v -0.305554 0.406090 0.442798
v -0.306566 0.418626 0.474140
v -0.318805 0.417392 0.474528
v -0.317065 0.409805 0.475556
v -0.306691 0.410851 0.475227
v -0.321452 0.391801 0.389113
v -0.305726 0.392436 0.387919
v -0.303174 0.360698 0.383274
v -0.324884 0.360641 0.385251
v -0.281602 0.419342 0.186438
v -0.281462 0.344269 0.184346
v -0.336124 0.342573 0.188767
v -0.335647 0.420717 0.190840
v -0.018936 0.855340 0.138280
vn 0.3397 0.9252 -0.1690
vn 0.1291 -0.4529 -0.8822
vn 0.9990 -0.0113 -0.0440
vn 0.4778 0.0201 0.8783
vn 0.0810 0.7290 -0.6797
vn 0.2967 0.3656 0.8822
vn 0.3420 0.0114 -0.9396
vn 0.8357 0.5471 -0.0467
vn 0.9348 0.3223 -0.1496
vn -0.2306 0.9691 0.0870
vn -0.3292 -0.9429 -0.0501
vn -0.8628 -0.4983 0.0848
vn 0.3281 -0.0430 -0.9436
vn -0.1741 0.3834 0.9070
vn 0.2966 0.3645 -0.8827
vn -0.9210 0.3712 -0.1184
vn 0.4530 -0.1203 0.8833
vn 0.9607 -0.2391 0.1412
vn 0.3166 0.0046 -0.9485
vn 0.9118 0.3579 -0.2015
vn 0.0750 0.9810 -0.1791
vn 0.2289 -0.4508 -0.8628
vn -0.0207 0.4135 0.9103
vn -0.9922 0.1156 0.0469
vn -0.8196 0.1469 -0.5538
vn 0.0720 -0.5850 -0.8078
vn 0.8318 0.1576 -0.5322
vn -0.2231 -0.0285 0.9744
vn -0.0176 -0.9903 0.1381
vn 0.9401 0.1363 0.3124
vn 0.0338 0.9895 0.1403
vn 0.9579 0.2502 -0.1409
vn 0.0408 -0.7101 -0.7029
vn -0.8599 -0.4352 0.2667
vn 0.0058 0.3714 0.9284
vn 0.0074 -0.9988 0.0481
vn -0.9914 -0.0151 -0.1302
vn 0.9872 0.0010 -0.1597
vn -0.9999 -0.0095 -0.0132
vn 0.3311 0.0524 0.9421
vn -0.0766 0.9689 0.2353
vn 0.9999 0.0092 0.0075
vn 0.0254 -0.9994 -0.0248
vn -0.9730 -0.0886 0.2131
vn -0.3511 -0.0099 -0.9363
vn 0.1400 -0.0876 0.9863
vn 0.9995 -0.0315 0.0050
vn 0.3683 -0.3565 -0.8586
vn 0.1771 0.8973 0.4043
vn 0.2418 0.8750 -0.4193
vn 0.2319 -0.3748 -0.8976
vn -0.1717 -0.2588 -0.9505
vn 0.5512 -0.8344 -0.0000
vn 0.3971 0.8905 0.2224
vn 0.9723 0.0140 0.2333
vn 0.9966 -0.0822 -0.0000
vn 0.3825 0.9195 -0.0903
vn 0.9976 -0.0696 -0.0000
vn 0.2488 -0.0682 -0.9661
vn 0.0762 0.1895 0.9789
vn 0.0669 -0.1401 0.9879
vn 0.9391 -0.0775 0.3348
vn 0.2990 -0.9077 0.2946
vn 0.9982 0.0601 -0.0006
vn 0.1772 0.1057 0.9785
vn 0.4657 0.1349 -0.8746
vn -0.0808 -0.9150 0.3953
vn 0.9444 0.0728 0.3206
vn -0.0174 -0.9905 0.1360
vn -0.9941 0.0769 0.0759
vn -0.2000 -0.9684 0.1492
vn 0.9741 -0.0945 0.2055
vn -0.9771 0.1622 0.1379
vn 0.0617 0.9855 -0.1583
vn -0.0174 0.1382 0.9903
vn 0.9595 -0.1922 0.2060
vn -0.9711 -0.2288 0.0677
vn 0.0995 0.9948 0.0235
vn 0.9984 0.0046 0.0567
vn -0.0379 -0.9955 0.0864
vn -0.9941 -0.0012 0.1086
vn -0.0363 0.9900 0.1365
vn 0.0089 0.9196 -0.3927
vn -0.9571 0.0061 -0.2896
vn 0.0085 -0.8974 -0.4411
vn 0.9483 0.0103 -0.3171
vn 0.8016 0.1786 0.5705
vn 0.4379 -0.7614 0.4780
vn -0.3392 0.9253 -0.1694
vn -0.3656 -0.1896 -0.9113
vn -0.9986 0.0417 -0.0312
vn -0.4772 0.0201 0.8786
vn -0.0811 0.7290 -0.6797
vn -0.2961 0.3656 0.8824
vn -0.4513 -0.0612 -0.8903
vn -0.8361 0.5462 -0.0502
vn -0.9170 0.3625 -0.1662
vn -0.1812 0.9693 -0.1663
vn -0.5857 -0.7989 0.1370
vn 0.8639 -0.4965 0.0845
vn -0.3281 -0.0430 -0.9436
vn 0.1741 0.3834 0.9070
vn -0.2966 0.3645 -0.8827
vn 0.9380 0.3175 -0.1391
vn -0.4527 -0.1203 0.8835
vn -0.9581 -0.2854 0.0232
vn -0.3470 0.0173 -0.9377
vn -0.9118 0.3581 -0.2009
vn -0.0756 0.9808 -0.1796
vn -0.2281 -0.4523 -0.8622
vn 0.0192 0.4148 0.9097
vn 0.9908 -0.0040 0.1354
vn 0.8196 0.1469 -0.5538
vn -0.0825 -0.5966 -0.7983
vn -0.8485 0.1719 -0.5006
vn 0.2231 -0.0285 0.9744
vn 0.0357 -0.9912 0.1275
vn -0.9760 -0.0064 0.2177
vn -0.0337 0.9895 0.1403
vn -0.9579 0.2504 -0.1405
vn -0.0331 -0.7108 -0.7027
vn 0.8555 -0.0133 0.5176
vn -0.0078 0.3718 0.9283
vn -0.0086 -0.9988 0.0492
vn 0.9914 -0.0151 -0.1302
vn -0.9872 0.0010 -0.1597
vn 0.9999 -0.0102 -0.0130
vn -0.3311 0.0524 0.9421
vn -0.0537 0.9901 0.1300
vn -0.9999 0.0092 0.0075
vn -0.0254 -0.9994 -0.0248
vn 0.9883 -0.1133 -0.1024
vn 0.3522 -0.0086 -0.9359
vn -0.1397 -0.0877 0.9863
vn -0.9995 -0.0315 0.0051
vn -0.3683 -0.3565 -0.8586
vn -0.1770 0.8973 0.4043
vn -0.3241 0.8286 -0.4565
vn -0.2142 -0.3598 -0.9081
vn -0.1491 -0.2932 0.9443
vn -0.5512 -0.8344 -0.0000
vn -0.2997 0.8792 0.3705
vn -0.9723 0.0140 0.2333
vn -0.9966 -0.0822 -0.0000
vn -0.3216 0.9461 -0.0383
vn -0.9976 -0.0696 -0.0000
vn -0.0999 0.1219 -0.9875
vn -0.0762 0.1895 0.9789
vn -0.0669 -0.1401 0.9879
vn -0.9540 -0.1266 0.2719
vn -0.2990 -0.9077 0.2946
vn -0.9982 0.0600 -0.0008
vn -0.1772 0.1057 0.9785
vn -0.4389 0.1658 -0.8831
vn 0.2188 -0.9580 0.1853
vn -0.9444 0.0728 0.3206
vn 0.0174 -0.9905 0.1361
vn 0.9935 0.1140 0.0004
vn 0.1046 -0.9725 0.2082
vn -0.9741 -0.0945 0.2055
vn 0.7090 -0.4072 0.5757
vn -0.0617 0.9855 -0.1583
vn 0.0174 0.1382 0.9903
vn -0.9595 -0.1922 0.2060
vn 0.9711 -0.2288 0.0677
vn -0.0995 0.9948 0.0235
vn -0.9915 0.0986 0.0854
vn 0.0109 -0.9958 0.0909
vn 0.9941 -0.0012 0.1086
vn 0.0363 0.9900 0.1365
vn -0.0089 0.9196 -0.3927
vn 0.9571 0.0061 -0.2896
vn -0.0080 -0.8968 -0.4425
vn -0.9483 0.0103 -0.3171
vn -0.8016 0.1786 0.5705
vn -0.4379 -0.7614 0.4780
vn 0.2500 0.9682 -0.0102
vn 0.3645 -0.1897 -0.9117
vn 0.9986 0.0422 -0.0310
vn 0.6244 -0.1264 0.7708
vn 0.0981 0.7376 -0.6680
vn 0.2969 0.3660 0.8820
vn 0.4516 -0.0637 -0.8900
vn 0.8403 0.0991 -0.5330
vn 0.9170 0.3625 -0.1662
vn 0.1810 0.9693 -0.1664
vn 0.5854 -0.7987 0.1393
vn -0.9565 -0.1171 0.2672
vn -0.2169 0.4933 0.8424
vn -0.9380 0.3175 -0.1391
vn 0.4722 -0.1104 0.8746
vn 0.9581 -0.2857 0.0215
vn 0.3429 0.0174 -0.9392
vn 0.9602 0.2674 -0.0810
vn 0.2973 0.9141 -0.2757
vn -0.3082 -0.1796 -0.9342
vn 0.3173 0.8379 0.4441
vn -0.9908 -0.0040 0.1354
vn -0.8382 0.1584 -0.5219
vn 0.0825 -0.5966 -0.7983
vn 0.8485 0.1719 -0.5006
vn -0.0358 -0.9912 0.1275
vn 0.9760 -0.0064 0.2177
vn -0.0201 0.9929 0.1171
vn 0.9537 0.0099 -0.3007
vn 0.0331 -0.7108 -0.7026
vn -0.8559 -0.0133 0.5170
vn -0.0786 0.3619 0.9289
vn 0.0086 -0.9988 0.0492
vn -0.9999 -0.0102 -0.0130
vn 0.0537 0.9901 0.1300
vn 0.9999 0.0099 0.0072
vn -0.0073 -1.0000 0.0026
vn -0.9883 -0.1132 -0.1024
vn 0.3201 0.1526 -0.9350
vn -0.1812 -0.0384 0.9827
vn 0.9887 -0.0575 -0.1386
vn 0.1984 -0.5337 -0.8221
vn 0.1643 0.9029 0.3972
vn 0.3239 0.8287 -0.4565
vn 0.2142 -0.3598 -0.9081
vn 0.1491 -0.2932 0.9443
vn 0.2997 0.8792 0.3705
vn 0.9624 -0.0162 0.2713
vn 0.3216 0.9461 -0.0383
vn 0.9961 0.0299 0.0832
vn 0.0999 0.1219 -0.9875
vn 0.1303 0.1431 0.9811
vn 0.1497 -0.1864 0.9710
vn 0.0990 -0.1772 0.9792
vn 0.3172 -0.1860 0.9299
vn 0.9540 -0.1266 0.2719
vn 0.4115 -0.8961 0.1663
vn 0.9982 0.0608 -0.0000
vn 0.1606 0.1219 0.9795
vn 0.4389 0.1658 -0.8831
vn -0.2188 -0.9580 0.1853
vn 0.9700 0.1323 0.2040
vn -0.9935 0.1140 0.0004
vn -0.1046 -0.9725 0.2082
vn 0.9426 -0.1780 0.2827
vn -0.7090 -0.4072 0.5757
vn 0.1035 0.9867 -0.1255
vn 0.9595 -0.1922 0.2059
vn -0.9890 0.0048 0.1481
vn 0.0996 0.9948 0.0235
vn 0.9915 0.0986 0.0854
vn -0.0109 -0.9958 0.0909
vn -0.9901 0.0611 0.1267
vn 0.0289 0.9888 0.1463
vn 0.0086 0.9193 -0.3935
vn -0.9611 0.0095 -0.2761
vn 0.0080 -0.8968 -0.4425
vn 0.9438 0.0145 -0.3302
vn -0.2502 0.9681 -0.0123
vn -0.1286 -0.4544 -0.8815
vn -0.9990 -0.0110 -0.0439
vn -0.6222 -0.1243 0.7729
vn -0.0981 0.7376 -0.6680
vn -0.2968 0.3674 0.8814
vn -0.3460 0.0114 -0.9382
vn -0.8417 0.1022 -0.5301
vn -0.9348 0.3223 -0.1496
vn 0.2294 0.9695 0.0865
vn 0.3257 -0.9440 -0.0518
vn 0.9568 -0.1154 0.2670
vn 0.2169 0.4933 0.8424
vn 0.9210 0.3712 -0.1184
vn -0.4719 -0.1103 0.8747
vn -0.9606 -0.2391 0.1419
vn -0.3182 0.0034 -0.9480
vn -0.9600 0.2680 -0.0814
vn -0.2979 0.9138 -0.2761
vn 0.3112 -0.1799 -0.9331
vn -0.3180 0.8371 0.4452
vn 0.9922 0.1156 0.0469
vn 0.8382 0.1584 -0.5219
vn -0.0720 -0.5850 -0.8078
vn -0.8318 0.1576 -0.5322
vn 0.0176 -0.9903 0.1381
vn -0.9401 0.1363 0.3124
vn 0.0201 0.9929 0.1171
vn -0.9537 0.0099 -0.3006
vn -0.0394 -0.7102 -0.7029
vn 0.8599 -0.4346 0.2677
vn 0.0786 0.3621 0.9288
vn -0.0074 -0.9988 0.0481
vn 0.9999 -0.0095 -0.0132
vn 0.0766 0.9689 0.2353
vn -0.9999 0.0099 0.0072
vn 0.0073 -1.0000 0.0026
vn 0.9723 -0.0889 0.2161
vn -0.3200 0.1544 -0.9347
vn 0.1812 -0.0385 0.9827
vn -0.9887 -0.0574 -0.1386
vn -0.1984 -0.5337 -0.8221
vn -0.1643 0.9029 0.3972
vn -0.2419 0.8751 -0.4191
vn -0.2319 -0.3748 -0.8976
vn 0.1717 -0.2588 -0.9505
vn -0.3971 0.8905 0.2224
vn -0.9624 -0.0162 0.2713
vn -0.3825 0.9195 -0.0903
vn -0.9961 0.0299 0.0832
vn -0.2488 -0.0682 -0.9661
vn -0.1303 0.1431 0.9811
vn -0.1497 -0.1864 0.9710
vn -0.3172 -0.1860 0.9299
vn -0.0990 -0.1772 0.9792
vn -0.9391 -0.0775 0.3348
vn -0.4115 -0.8961 0.1663
vn -0.9982 0.0608 -0.0000
vn -0.1606 0.1219 0.9795
vn -0.4631 0.1380 -0.8755
vn 0.0808 -0.9150 0.3953
vn -0.9700 0.1323 0.2040
vn 0.0174 -0.9905 0.1360
vn 0.9941 0.0769 0.0759
vn 0.2000 -0.9684 0.1492
vn -0.9426 -0.1780 0.2827
vn 0.9771 0.1621 0.1379
vn -0.1034 0.9867 -0.1255
vn -0.9595 -0.1922 0.2059
vn 0.9890 0.0048 0.1481
vn -0.9984 0.0046 0.0567
vn 0.0379 -0.9955 0.0864
vn 0.9901 0.0611 0.1267
vn -0.0288 0.9888 0.1463
vn -0.0087 0.9193 -0.3935
vn 0.9611 0.0095 -0.2761
vn -0.0085 -0.8974 -0.4411
vn -0.9438 0.0145 -0.3302
vt 0.394377 0.822247
vt 0.458265 0.879051
vt 0.395578 0.896204
vt 0.265700 0.064226
vt 0.173092 -0.000000
vt 0.270319 0.003955
vt 1.000000 0.218989
vt 0.935668 0.409534
vt 0.912361 0.215486
vt 0.516879 0.298185
vt 0.466837 0.209837
vt 0.516879 0.206443
vt 0.366215 0.287182
vt 0.353403 0.275312
vt 0.361401 0.274757
vt 0.424074 0.063499
vt 0.516879 -0.000000
vt 0.516879 0.090232
vt 0.223135 0.203223
vt 0.173092 0.291975
vt 0.173092 0.206909
vt 0.921152 0.146610
vt 0.997663 0.149889
vt 0.957367 0.603504
vt 0.923821 0.614231
vt 0.928749 0.602576
vt 0.430634 0.472177
vt 0.438401 0.280426
vt 0.251597 0.274013
vt 0.211911 0.461935
vt 0.786206 0.593361
vt 0.687574 0.415402
vt 0.824723 0.413314
vt 0.250965 0.661092
vt 0.226106 0.684422
vt 0.226094 0.662668
vt 0.469263 0.668656
vt 0.438456 0.657010
vt 0.463838 0.656196
vt 0.229463 0.649570
vt 0.247457 0.648429
vt 0.777313 0.785975
vt 0.743906 0.798554
vt 0.747145 0.786375
vt 0.912361 0.000000
vt 0.975734 0.002928
vt 0.173092 0.102092
vt 0.896422 0.670537
vt 0.956416 0.641913
vt 0.968119 0.670619
vt 0.457553 0.907029
vt 0.296360 0.010104
vt 0.383325 0.040259
vt 0.419650 0.002932
vt 0.046089 0.924163
vt 0.020909 0.955767
vt 0.017225 0.922058
vt 0.048878 0.907841
vt 0.021891 0.901872
vt 0.038110 0.900060
vt 0.338313 0.274206
vt 0.320361 0.282640
vt 0.327273 0.273217
vt 0.941031 0.911894
vt 0.914339 0.919289
vt 0.925116 0.910353
vt 0.680267 0.792111
vt 0.686840 0.772325
vt 0.686840 0.792001
vt 0.342512 0.300510
vt 0.324969 0.328550
vt 0.320625 0.298234
vt 0.945334 0.932668
vt 0.922635 0.966894
vt 0.917146 0.935384
vt 0.337056 0.826524
vt 0.325701 0.794157
vt 0.340897 0.794157
vt 0.948087 0.801201
vt 0.306640 0.040942
vt 0.318859 0.166662
vt 0.063444 0.684422
vt 0.015786 0.790378
vt 0.000000 0.684422
vt 0.371141 0.165862
vt 0.325701 0.842735
vt 0.295913 0.874876
vt 0.288756 0.834170
vt 0.784309 0.798007
vt 0.744171 0.820667
vt 0.964658 0.615514
vt 0.922928 0.636294
vt 0.687574 0.809428
vt 0.340005 0.721826
vt 0.325701 0.685248
vt 0.340005 0.684422
vt 0.724742 0.823949
vt 0.687574 0.867911
vt 0.688220 0.832950
vt 0.998504 0.627000
vt 0.963766 0.637577
vt 0.288558 0.800098
vt 0.692083 0.594498
vt 0.259320 0.458932
vt 0.478005 0.474971
vt 0.996654 0.411970
vt 0.519369 0.796916
vt 0.544938 0.813769
vt 0.519308 0.812991
vt 0.427424 0.813203
vt 0.459878 0.777540
vt 0.346185 0.808576
vt 0.575857 0.740414
vt 0.570418 0.798186
vt 0.295909 0.761109
vt 0.295662 0.735476
vt 0.293714 0.735476
vt 0.485299 0.874324
vt 0.459878 0.843584
vt 0.485299 0.846010
vt 0.246676 0.864049
vt 0.273559 0.914877
vt 0.239907 0.920121
vt 0.164677 0.691711
vt 0.122734 0.740471
vt 0.132065 0.684423
vt 0.084376 0.801565
vt 0.118661 0.803778
vt 0.171491 0.860408
vt 0.064067 0.684423
vt 0.063444 0.736644
vt 0.519590 0.739125
vt 0.579680 0.689710
vt 0.063444 0.820190
vt 0.113508 0.871703
vt 0.070824 0.871493
vt 0.105623 0.896432
vt 0.118338 0.939203
vt 0.157780 0.798824
vt 0.682234 0.683303
vt 0.645118 0.721272
vt 0.643124 0.670218
vt 0.791375 0.855194
vt 0.820956 0.823949
vt 0.820956 0.858305
vt 0.323588 0.735476
vt 0.325701 0.762919
vt 0.519191 0.843584
vt 0.546634 0.843584
vt 0.170945 0.803778
vt 0.160946 0.810167
vt 0.155726 0.803778
vt 0.951653 0.923335
vt 0.346185 0.285325
vt 0.010770 0.912598
vt 0.169279 0.813832
vt 0.163111 0.825665
vt 0.955048 0.942102
vt 0.007078 0.932466
vt 0.362889 0.307437
vt 0.348352 0.288732
vt 0.683585 0.670218
vt 0.687532 0.675988
vt 0.683585 0.676474
vt 0.955453 0.954889
vt 0.948361 0.943320
vt 0.011070 0.945930
vt 0.014035 0.929537
vt 0.360974 0.320045
vt 0.352027 0.307623
vt 0.952411 0.810387
vt 0.912656 0.810622
vt 0.344029 0.178325
vt 0.316231 0.175947
vt 0.011676 0.799218
vt 0.049868 0.799405
vt 0.346185 0.177561
vt 0.373669 0.175246
vt 0.349323 0.167568
vt 0.045883 0.790636
vt 0.340738 0.168383
vt 0.916897 0.801472
vt 0.510720 0.843584
vt 0.522808 0.864328
vt 0.510720 0.869051
vt 0.522808 0.850110
vt 0.533254 0.852488
vt 0.533254 0.862364
vt 0.408870 0.692293
vt 0.380435 0.769535
vt 0.346185 0.709451
vt 0.080485 0.064226
vt 0.824724 0.218357
vt 0.889118 0.409714
vt 0.828133 0.412194
vt 0.566921 0.209837
vt 0.680355 0.275312
vt 0.667544 0.287182
vt 0.672358 0.274757
vt 0.609684 0.063499
vt 0.123050 0.203223
vt 0.094588 0.274013
vt 0.903469 0.143754
vt 0.826960 0.147087
vt 0.867434 0.603428
vt 0.900980 0.614110
vt 0.860164 0.615897
vt 0.603124 0.472177
vt 0.555753 0.474971
vt 0.134274 0.461935
vt 0.086865 0.458932
vt 0.824724 0.001995
vt 0.726073 0.182561
vt 0.687574 0.000000
vt 0.095219 0.661092
vt 0.120079 0.684422
vt 0.095208 0.682847
vt 0.595303 0.657010
vt 0.564496 0.668656
vt 0.569921 0.656196
vt 0.116721 0.649570
vt 0.098728 0.648429
vt 0.734972 0.376150
vt 0.768389 0.388054
vt 0.727981 0.387925
vt 0.912361 0.000000
vt 0.836448 0.641913
vt 0.896422 0.671326
vt 0.824724 0.671407
vt 0.394920 0.670218
vt 0.049825 0.010104
vt 0.075866 0.003955
vt 0.614108 0.002932
vt 0.650434 0.040259
vt 0.596964 0.913574
vt 0.622134 0.945440
vt 0.602406 0.945513
vt 0.621173 0.891887
vt 0.594181 0.897258
vt 0.604954 0.889987
vt 0.007872 0.274206
vt 0.025824 0.282640
vt -0.000000 0.285325
vt 0.851653 0.915217
vt 0.878338 0.923322
vt 0.841022 0.927041
vt 0.281985 0.786530
vt 0.288558 0.806316
vt 0.281985 0.806206
vt 0.003673 0.300510
vt 0.021216 0.328550
vt 0.014643 0.330031
vt 0.847337 0.936204
vt 0.870017 0.969936
vt 0.850289 0.969865
vt 0.340897 0.760881
vt 0.329542 0.793248
vt 0.325701 0.760881
vt 0.844664 0.804653
vt 0.039544 0.040942
vt 0.027326 0.166662
vt 0.005447 0.168383
vt 0.579680 0.670218
vt 0.627315 0.779853
vt 0.597218 0.780120
vt 0.662617 0.165862
vt 0.643124 0.828531
vt 0.672911 0.860671
vt 0.647915 0.868957
vt 0.768128 0.410134
vt 0.727720 0.410005
vt 0.901877 0.636207
vt 0.861061 0.637994
vt 0.824724 0.398814
vt 0.824606 0.413314
vt 0.325701 0.760055
vt 0.340005 0.723478
vt 0.340005 0.760881
vt 0.761370 0.867079
vt 0.724742 0.881054
vt 0.826321 0.627401
vt 0.680267 0.785893
vt 0.680069 0.819965
vt 0.765143 0.376289
vt 0.493672 0.813574
vt 0.413483 0.760490
vt 0.372951 0.799543
vt 0.463314 0.739985
vt 0.295909 0.709844
vt 0.279564 0.684423
vt 0.485299 0.874324
vt 0.510720 0.843584
vt 0.510720 0.877850
vt 0.279835 0.823181
vt 0.279835 0.867603
vt 0.220299 0.740655
vt 0.178025 0.691356
vt 0.210632 0.684422
vt 0.258983 0.801228
vt 0.279564 0.736456
vt 0.247247 0.812885
vt 0.180452 0.803656
vt 0.278656 0.684422
vt 0.459878 0.689253
vt 0.519853 0.670218
vt 0.155726 0.813586
vt 0.155726 0.865417
vt 0.124834 0.895057
vt 0.185500 0.797989
vt 0.171491 0.742602
vt 0.682234 0.759240
vt 0.643124 0.772325
vt 0.791375 0.858305
vt 0.761617 0.827042
vt 0.791375 0.823949
vt 0.325701 0.708034
vt 0.155726 0.825665
vt 0.165725 0.832054
vt 0.157392 0.835720
vt 0.025560 0.298234
vt 0.625830 0.911706
vt 0.163560 0.847553
vt 0.158284 0.847289
vt 0.837617 0.945570
vt 0.635973 0.922324
vt 0.629018 0.919503
vt 0.685406 0.288732
vt 0.670870 0.307437
vt 0.687532 0.682731
vt 0.683585 0.676941
vt 0.687532 0.676474
vt 0.844304 0.946679
vt 0.837205 0.958179
vt 0.631978 0.935912
vt 0.681732 0.307623
vt 0.672785 0.320045
vt 0.840334 0.814081
vt 0.867569 0.913802
vt 0.002155 0.178325
vt 0.018912 0.273217
vt 0.631421 0.788496
vt 0.593229 0.788686
vt 0.687574 0.177561
vt 0.660089 0.175246
vt 0.684435 0.167568
vt 0.029954 0.175948
vt 0.875854 0.804933
vt 0.325700 0.827432
vt 0.338731 0.850141
vt 0.325700 0.851478
vt 0.537528 0.843584
vt 0.250977 0.682847
vt 0.432448 0.670218
vt 0.908165 0.641913
vt 0.411118 0.919696
vt 0.393592 0.009318
vt 0.040637 0.955836
vt 0.680267 0.772435
vt 0.331541 0.330031
vt 0.942363 0.966824
vt 0.330380 0.827432
vt 0.320910 0.883162
vt 0.784573 0.820120
vt 0.687694 0.823949
vt 0.325701 0.722652
vt 0.724742 0.881035
vt 0.997971 0.641489
vt 0.325701 0.786530
vt 0.424630 0.785353
vt 0.279564 0.786530
vt 0.459878 0.877850
vt 0.171491 0.743105
vt 0.172325 0.922395
vt 0.108647 0.803778
vt 0.079243 0.924809
vt 0.115538 0.900074
vt 0.683585 0.721272
vt 0.791375 0.826806
vt 0.168387 0.825401
vt 0.687532 0.670685
vt 0.951621 0.955587
vt 0.007137 0.945249
vt 0.354750 0.320152
vt 0.912361 0.214793
vt 0.595357 0.280426
vt 0.896039 0.602186
vt 0.820197 0.183640
vt 0.120091 0.662668
vt 0.601311 0.670218
vt 0.848991 0.002988
vt 0.884699 0.641913
vt 0.348495 0.682923
vt 0.640166 0.009318
vt 0.632288 0.902245
vt 0.288558 0.786640
vt 0.875522 0.939175
vt 0.336218 0.794157
vt 0.643124 0.670218
vt 0.325701 0.722652
vt 0.761617 0.832099
vt 0.826856 0.641913
vt 0.468311 0.797796
vt 0.485299 0.846010
vt 0.224713 0.803656
vt 0.154986 0.919389
vt 0.761617 0.855430
vt 0.491749 0.843375
vt 0.170945 0.825665
vt 0.683585 0.682244
vt 0.841037 0.958814
vt 0.635911 0.935227
vt 0.679009 0.320152
vt 0.880088 0.814335
s 0
usemtl Body
f 53/1/1 1/2/1 3/3/1
f 23/4/2 7/5/2 3/6/2
f 9/7/3 14/8/3 10/9/3
f 11/10/4 2/11/4 6/12/4
f 29/13/5 90/14/5 91/15/5
f 21/16/6 5/17/6 24/18/6
f 4/19/7 12/20/7 8/21/7
f 9/7/8 4/22/8 2/23/8
f 50/24/9 20/25/9 49/26/9
f 11/10/10 13/27/10 9/28/10
f 10/29/11 16/30/11 12/20/11
f 16/31/12 11/32/12 12/33/12
f 20/34/13 42/35/13 18/36/13
f 17/37/14 50/38/14 51/39/14
f 20/34/15 52/40/15 49/41/15
f 52/42/16 17/43/16 51/44/16
f 2/11/17 24/18/17 6/12/17
f 2/23/18 23/45/18 21/46/18
f 4/19/19 22/47/19 23/4/19
f 28/48/20 25/49/20 27/50/20
f 25/51/21 3/3/21 1/2/21
f 26/52/22 23/4/22 3/6/22
f 27/53/23 1/54/23 21/16/23
f 79/55/24 33/56/24 78/57/24
f 30/58/25 91/59/25 92/60/25
f 93/61/26 30/62/26 92/63/26
f 90/64/27 32/65/27 93/66/27
f 36/67/28 33/68/28 34/69/28
f 80/70/29 34/71/29 79/72/29
f 81/73/30 36/74/30 80/75/30
f 33/76/31 81/77/31 78/78/31
f 37/79/32 28/48/32 27/50/32
f 28/80/33 39/81/33 23/4/33
f 23/82/34 38/83/34 21/84/34
f 38/85/35 27/53/35 21/16/35
f 41/86/36 44/87/36 43/88/36
f 18/89/37 41/90/37 17/43/37
f 19/91/38 44/92/38 20/25/38
f 41/90/39 46/93/39 17/43/39
f 46/94/40 47/95/40 45/96/40
f 17/97/41 45/98/41 19/99/41
f 45/100/42 43/101/42 19/91/42
f 47/102/43 41/86/43 43/88/43
f 16/31/44 51/44/44 15/103/44
f 49/41/45 16/30/45 14/104/45
f 51/39/46 13/27/46 15/105/46
f 50/24/47 14/8/47 13/106/47
f 58/107/48 74/108/48 75/109/48
f 55/110/49 5/111/49 1/2/49
f 7/112/50 53/1/50 3/3/50
f 58/107/51 61/113/51 57/114/51
f 77/115/52 60/116/52 76/117/52
f 74/118/53 59/119/53 77/120/53
f 67/121/54 73/122/54 66/123/54
f 73/124/55 63/125/55 66/126/55
f 57/127/56 63/125/56 59/128/56
f 66/123/57 65/129/57 67/121/57
f 64/130/58 63/125/58 61/131/58
f 62/132/59 64/133/59 61/113/59
f 73/134/60 70/135/60 71/136/60
f 71/136/61 100/137/61 68/138/61
f 63/125/62 69/139/62 59/128/62
f 69/140/63 60/141/63 59/142/63
f 74/143/64 55/144/64 53/145/64
f 77/115/65 56/146/65 55/147/65
f 54/148/66 74/108/66 53/149/66
f 81/150/67 85/151/67 78/152/67
f 81/73/68 32/65/68 31/153/68
f 80/70/69 30/62/69 32/154/69
f 30/58/70 78/57/70 29/155/70
f 84/156/71 89/157/71 85/151/71
f 83/158/72 81/73/72 31/153/72
f 78/57/73 82/159/73 29/155/73
f 82/160/74 31/161/74 29/13/74
f 86/162/75 88/163/75 87/164/75
f 87/165/76 84/166/76 83/158/76
f 89/167/77 82/159/77 85/168/77
f 86/169/78 83/170/78 82/160/78
f 97/171/79 93/66/79 96/172/79
f 96/173/80 92/63/80 95/174/80
f 92/60/81 94/175/81 95/176/81
f 91/15/82 97/177/82 94/178/82
f 94/178/83 37/179/83 38/85/83
f 95/176/84 38/83/84 39/180/84
f 40/181/85 95/174/85 39/81/85
f 97/171/86 40/182/86 37/79/86
f 70/183/87 99/184/87 100/185/87
f 99/186/88 98/187/88 100/188/88
f 101/189/89 145/190/89 103/191/89
f 116/192/90 7/5/90 22/47/90
f 105/193/91 108/194/91 107/195/91
f 102/196/92 11/10/92 6/12/92
f 170/197/93 121/198/93 171/199/93
f 5/17/94 115/200/94 24/18/94
f 104/201/95 12/20/95 106/202/95
f 104/203/96 105/193/96 102/204/96
f 142/205/97 114/206/97 113/207/97
f 11/10/98 107/208/98 109/209/98
f 106/202/99 110/210/99 108/211/99
f 11/212/100 110/213/100 12/214/100
f 114/215/101 134/216/101 136/217/101
f 142/218/102 111/219/102 143/220/102
f 144/221/103 114/215/103 141/222/103
f 144/223/104 111/224/104 112/225/104
f 24/18/105 102/196/105 6/12/105
f 102/204/106 116/226/106 104/203/106
f 104/201/107 22/47/107 8/21/107
f 117/227/108 120/228/108 119/229/108
f 103/191/109 117/230/109 101/189/109
f 116/192/110 118/231/110 103/232/110
f 101/233/111 119/234/111 115/200/111
f 159/235/112 125/236/112 126/237/112
f 171/238/113 122/239/113 172/240/113
f 173/241/114 122/242/114 124/243/114
f 170/244/115 124/245/115 123/246/115
f 125/247/116 128/248/116 126/249/116
f 160/250/117 126/251/117 128/252/117
f 161/253/118 128/254/118 127/255/118
f 161/256/119 125/257/119 158/258/119
f 120/228/120 129/259/120 119/229/120
f 120/260/121 131/261/121 132/262/121
f 116/263/122 130/264/122 131/265/122
f 119/234/123 130/266/123 115/200/123
f 133/267/124 136/268/124 134/269/124
f 112/225/125 133/270/125 134/271/125
f 113/207/126 136/272/126 135/273/126
f 133/270/127 138/274/127 140/275/127
f 138/276/128 139/277/128 140/278/128
f 111/97/129 137/279/129 138/280/129
f 135/273/130 137/281/130 113/207/130
f 133/267/131 139/282/131 135/283/131
f 110/213/132 143/284/132 144/223/132
f 110/210/133 141/222/133 108/211/133
f 107/208/134 143/220/134 109/209/134
f 108/194/135 142/205/135 107/195/135
f 156/285/136 58/107/136 75/109/136
f 5/111/137 146/286/137 101/189/137
f 7/112/138 145/190/138 54/287/138
f 58/107/139 149/288/139 62/132/139
f 157/289/140 60/116/140 148/290/140
f 156/291/141 148/292/141 147/293/141
f 67/121/142 155/294/142 72/295/142
f 150/296/143 155/297/143 152/298/143
f 147/299/144 150/296/144 149/300/144
f 152/301/145 65/129/145 151/302/145
f 150/296/146 151/303/146 149/300/146
f 62/132/147 151/304/147 65/305/147
f 70/135/148 155/306/148 154/307/148
f 68/138/149 178/308/149 154/307/149
f 150/296/150 153/309/150 154/310/150
f 60/141/151 153/311/151 148/312/151
f 146/313/152 156/314/152 145/315/152
f 56/146/153 157/289/153 146/316/153
f 54/148/154 156/285/154 75/109/154
f 161/317/155 165/318/155 164/319/155
f 124/245/156 161/253/156 123/246/156
f 124/243/157 159/320/157 160/250/157
f 122/239/158 158/321/158 159/235/158
f 164/319/159 169/322/159 168/323/159
f 161/253/160 163/324/160 123/246/160
f 158/321/161 162/325/161 165/326/161
f 123/327/162 162/328/162 121/198/162
f 167/329/163 169/330/163 166/331/163
f 164/332/164 167/333/164 163/324/164
f 162/325/165 169/334/165 165/326/165
f 163/335/166 166/336/166 162/328/166
f 177/337/167 173/338/167 170/244/167
f 176/339/168 172/340/168 173/241/168
f 174/341/169 172/240/169 175/342/169
f 177/343/170 171/199/170 174/344/170
f 129/345/171 174/344/171 130/266/171
f 130/264/172 175/342/172 131/265/172
f 132/262/173 175/346/173 176/339/173
f 132/347/174 177/337/174 129/259/174
f 70/348/175 178/349/175 99/350/175
f 99/186/176 178/351/176 98/187/176
f 53/1/177 55/110/177 1/2/177
f 23/4/178 22/47/178 7/5/178
f 9/7/179 13/106/179 14/8/179
f 11/10/180 9/28/180 2/11/180
f 29/13/181 31/161/181 90/14/181
f 21/16/182 1/54/182 5/17/182
f 4/19/183 10/29/183 12/20/183
f 9/7/184 10/9/184 4/22/184
f 50/24/185 19/91/185 20/25/185
f 11/10/186 15/105/186 13/27/186
f 10/29/187 14/104/187 16/30/187
f 16/31/188 15/103/188 11/32/188
f 20/34/13 44/352/13 42/35/13
f 17/37/189 19/353/189 50/38/189
f 20/34/15 18/36/15 52/40/15
f 52/42/190 18/89/190 17/43/190
f 2/11/191 21/16/191 24/18/191
f 2/23/192 4/22/192 23/45/192
f 4/19/193 8/21/193 22/47/193
f 28/48/194 26/354/194 25/49/194
f 25/51/195 26/355/195 3/3/195
f 26/52/196 28/80/196 23/4/196
f 27/53/197 25/356/197 1/54/197
f 79/55/198 34/357/198 33/56/198
f 30/58/199 29/155/199 91/59/199
f 93/61/200 32/154/200 30/62/200
f 90/64/201 31/153/201 32/65/201
f 36/67/28 35/358/28 33/68/28
f 80/70/202 36/359/202 34/71/202
f 81/73/203 35/360/203 36/74/203
f 33/76/204 35/361/204 81/77/204
f 37/79/205 40/182/205 28/48/205
f 28/80/206 40/181/206 39/81/206
f 23/82/207 39/180/207 38/83/207
f 38/85/208 37/179/208 27/53/208
f 41/86/209 42/362/209 44/87/209
f 18/89/37 42/363/37 41/90/37
f 19/91/38 43/101/38 44/92/38
f 41/90/210 48/364/210 46/93/210
f 46/94/40 48/365/40 47/95/40
f 17/97/211 46/366/211 45/98/211
f 45/100/212 47/367/212 43/101/212
f 47/102/213 48/368/213 41/86/213
f 16/31/214 52/42/214 51/44/214
f 49/41/215 52/40/215 16/30/215
f 51/39/216 50/38/216 13/27/216
f 50/24/217 49/26/217 14/8/217
f 58/107/218 57/114/218 74/108/218
f 55/110/219 56/369/219 5/111/219
f 7/112/220 54/287/220 53/1/220
f 58/107/221 62/132/221 61/113/221
f 77/115/222 59/370/222 60/116/222
f 74/118/53 57/371/53 59/119/53
f 67/121/223 72/295/223 73/122/223
f 73/124/224 71/372/224 63/125/224
f 57/127/56 61/131/56 63/125/56
f 66/123/225 64/373/225 65/129/225
f 64/130/226 66/126/226 63/125/226
f 62/132/227 65/305/227 64/133/227
f 73/134/228 72/374/228 70/135/228
f 68/138/229 69/375/229 71/136/229
f 71/136/230 70/135/230 100/137/230
f 100/137/231 98/376/231 68/138/231
f 63/125/232 71/372/232 69/139/232
f 69/140/233 68/377/233 60/141/233
f 74/143/234 77/378/234 55/144/234
f 77/115/235 76/117/235 56/146/235
f 54/148/236 75/109/236 74/108/236
f 81/150/237 84/156/237 85/151/237
f 81/73/238 80/75/238 32/65/238
f 80/70/69 79/72/69 30/62/69
f 30/58/239 79/55/239 78/57/239
f 84/156/240 88/379/240 89/157/240
f 83/158/241 84/166/241 81/73/241
f 78/57/242 85/168/242 82/159/242
f 82/160/243 83/170/243 31/161/243
f 86/162/75 89/380/75 88/163/75
f 87/165/244 88/381/244 84/166/244
f 89/167/245 86/382/245 82/159/245
f 86/169/246 87/383/246 83/170/246
f 97/171/247 90/64/247 93/66/247
f 96/173/248 93/61/248 92/63/248
f 92/60/249 91/59/249 94/175/249
f 91/15/250 90/14/250 97/177/250
f 94/178/251 97/177/251 37/179/251
f 95/176/252 94/175/252 38/83/252
f 40/181/253 96/173/253 95/174/253
f 97/171/254 96/172/254 40/182/254
f 101/189/255 146/286/255 145/190/255
f 116/192/256 103/232/256 7/5/256
f 105/193/257 106/384/257 108/194/257
f 102/196/258 105/385/258 11/10/258
f 170/197/259 123/327/259 121/198/259
f 5/17/260 101/233/260 115/200/260
f 104/201/261 8/21/261 12/20/261
f 104/203/262 106/384/262 105/193/262
f 142/205/263 141/386/263 114/206/263
f 11/10/264 105/385/264 107/208/264
f 106/202/265 12/20/265 110/210/265
f 11/212/266 109/387/266 110/213/266
f 114/215/101 112/388/101 134/216/101
f 142/218/267 113/389/267 111/219/267
f 144/221/103 112/388/103 114/215/103
f 144/223/268 143/284/268 111/224/268
f 24/18/269 115/200/269 102/196/269
f 102/204/270 115/390/270 116/226/270
f 104/201/271 116/192/271 22/47/271
f 117/227/272 118/391/272 120/228/272
f 103/191/273 118/392/273 117/230/273
f 116/192/274 120/260/274 118/231/274
f 101/233/275 117/393/275 119/234/275
f 159/235/276 158/321/276 125/236/276
f 171/238/277 121/394/277 122/239/277
f 173/241/278 172/340/278 122/242/278
f 170/244/279 173/338/279 124/245/279
f 125/247/116 127/395/116 128/248/116
f 160/250/280 159/320/280 126/251/280
f 161/253/281 160/396/281 128/254/281
f 161/256/282 127/397/282 125/257/282
f 120/228/283 132/347/283 129/259/283
f 120/260/284 116/192/284 131/261/284
f 116/263/285 115/398/285 130/264/285
f 119/234/286 129/345/286 130/266/286
f 133/267/287 135/283/287 136/268/287
f 112/225/125 111/224/125 133/270/125
f 113/207/126 114/206/126 136/272/126
f 133/270/288 111/224/288 138/274/288
f 138/276/128 137/399/128 139/277/128
f 111/97/289 113/400/289 137/279/289
f 135/273/290 139/401/290 137/281/290
f 133/267/291 140/312/291 139/282/291
f 110/213/292 109/387/292 143/284/292
f 110/210/293 144/221/293 141/222/293
f 107/208/294 142/218/294 143/220/294
f 108/194/295 141/386/295 142/205/295
f 156/285/296 147/402/296 58/107/296
f 5/111/297 56/369/297 146/286/297
f 7/112/298 103/191/298 145/190/298
f 58/107/299 147/402/299 149/288/299
f 157/289/300 76/117/300 60/116/300
f 156/291/141 157/403/141 148/292/141
f 67/121/301 152/301/301 155/294/301
f 150/296/302 154/310/302 155/297/302
f 147/299/144 148/404/144 150/296/144
f 152/301/303 67/121/303 65/129/303
f 150/296/304 152/298/304 151/303/304
f 62/132/305 149/288/305 151/304/305
f 70/135/306 72/374/306 155/306/306
f 154/307/307 153/405/307 68/138/307
f 68/138/308 98/376/308 178/308/308
f 178/308/309 70/135/309 154/307/309
f 150/296/310 148/404/310 153/309/310
f 60/141/311 68/377/311 153/311/311
f 146/313/312 157/406/312 156/314/312
f 56/146/313 76/117/313 157/289/313
f 54/148/314 145/407/314 156/285/314
f 161/317/315 158/408/315 165/318/315
f 124/245/316 160/396/316 161/253/316
f 124/243/317 122/242/317 159/320/317
f 122/239/318 121/394/318 158/321/318
f 164/319/319 165/318/319 169/322/319
f 161/253/320 164/332/320 163/324/320
f 158/321/321 121/394/321 162/325/321
f 123/327/322 163/335/322 162/328/322
f 167/329/163 168/409/163 169/330/163
f 164/332/323 168/410/323 167/333/323
f 162/325/324 166/411/324 169/334/324
f 163/335/166 167/412/166 166/336/166
f 177/337/325 176/413/325 173/338/325
f 176/339/326 175/346/326 172/340/326
f 174/341/327 171/238/327 172/240/327
f 177/343/328 170/197/328 171/199/328
f 129/345/329 177/343/329 174/344/329
f 130/264/330 174/341/330 175/342/330
f 132/262/331 131/261/331 175/346/331
f 132/347/332 176/413/332 177/337/332
