# Blender 4.3.2
# www.blender.org
mtllib fiddle.mtl
o Cube
v 0.071526 0.555611 -0.038300
v 0.090969 0.021014 -0.038300
v 0.071526 0.555611 0.040586
v 0.090969 0.021014 0.040586
v 0.000000 0.570828 -0.038300
v 0.000000 0.002839 -0.038300
v 0.000000 0.570828 0.040586
v 0.000000 0.002839 0.040586
v 0.091814 0.538587 -0.038300
v 0.122224 0.486870 -0.038300
v 0.122248 0.442761 -0.038300
v 0.081670 0.294672 -0.038300
v 0.000000 0.294672 0.040586
v 0.000000 0.442761 0.040586
v 0.000000 0.486870 0.040586
v 0.000000 0.538587 0.040586
v 0.091814 0.538587 0.040586
v 0.122224 0.486870 0.040586
v 0.122248 0.442761 0.040586
v 0.081670 0.294672 0.040586
v 0.000000 0.538587 -0.038300
v 0.000000 0.486870 -0.038300
v 0.000000 0.442761 -0.038300
v 0.000000 0.294672 -0.038300
v 0.136782 0.214405 -0.038300
v 0.161888 0.141259 -0.038300
v 0.152167 0.075381 -0.038300
v 0.136782 0.214405 0.040586
v 0.161888 0.141259 0.040586
v 0.152167 0.075381 0.040586
v 0.000000 0.227992 -0.038300
v 0.000000 0.155034 -0.038300
v 0.000000 0.087148 -0.038300
v 0.000000 0.087148 0.040586
v 0.000000 0.155034 0.040586
v 0.000000 0.227992 0.040586
v 0.115348 0.403031 -0.038300
v 0.079267 0.341437 -0.038300
v 0.000000 0.341437 0.040586
v 0.000000 0.390800 0.040586
v 0.115348 0.403031 0.040586
v 0.079267 0.341437 0.040586
v 0.000000 0.390800 -0.038300
v 0.000000 0.341437 -0.038300
v 0.034814 0.341437 0.040586
v 0.034481 0.294672 0.040586
v 0.000000 0.294672 0.040586
v 0.000000 0.341437 0.040586
v 0.034481 0.294672 0.069429
v 0.000000 0.294672 0.069429
v 0.000000 0.341437 0.051593
v 0.034814 0.341437 0.040586
v 0.000000 0.341437 0.040586
v 0.000000 0.341437 0.051593
v 0.000000 0.866122 0.036264
v 0.018944 0.866122 0.040330
v 0.000000 0.866122 0.040330
v 0.034814 0.341437 0.012448
v 0.000000 0.341437 0.012448
v 0.018944 0.866122 0.025872
v 0.000000 0.866122 0.025872
v 0.000000 0.178033 0.040586
v 0.032565 0.152263 0.040586
v 0.018069 0.085750 0.040586
v 0.037914 0.176810 0.040586
v 0.000000 0.007242 0.046946
v 0.000000 0.178033 0.067493
v 0.037914 0.176810 0.067493
v 0.033260 0.889018 0.043931
v 0.000000 0.889018 0.043931
v 0.000000 0.889018 0.037646
v 0.033260 0.889018 0.021580
v 0.000000 0.889018 0.021580
v 0.016016 0.915528 0.043931
v 0.000000 0.915528 0.043931
v 0.000000 0.915528 0.037646
v 0.016016 0.915528 0.021580
v 0.000000 0.915528 0.021580
v 0.000000 0.242514 0.040586
v 0.121111 0.241670 -0.038300
v 0.121111 0.241670 0.040586
v 0.000000 0.242514 -0.038300
v 0.141949 0.245641 -0.039940
v 0.147335 0.242077 -0.035185
v 0.141949 0.245641 0.038946
v 0.147335 0.242077 0.043700
v 0.097308 0.372234 -0.038300
v 0.000000 0.366119 0.040586
v 0.097308 0.372234 0.040586
v 0.000000 0.366119 -0.038300
v 0.122522 0.381373 -0.038300
v 0.122522 0.381373 0.040586
v 0.117935 0.376260 -0.038300
v 0.117935 0.376260 0.040586
v 0.034638 0.236972 0.040586
v 0.033412 0.229971 0.040586
v 0.000000 0.230571 0.040586
v 0.000000 0.237900 0.040586
v 0.036463 0.237724 0.071160
v 0.035237 0.230722 0.071160
v 0.000000 0.231322 0.071160
v 0.000000 0.238651 0.071160
v 0.026712 0.580397 0.054879
v 0.022828 0.723260 0.047604
v 0.019433 0.802845 0.041245
v 0.019494 0.802662 0.025408
v 0.019323 0.817100 0.041039
v 0.019370 0.816957 0.025512
v 0.019199 0.833168 0.040806
v 0.019231 0.833072 0.025630
v 0.019100 0.845926 0.040622
v 0.019120 0.845868 0.025724
v 0.035539 0.817232 0.041079
v 0.035649 0.802978 0.041286
v 0.035585 0.817090 0.025553
v 0.035709 0.802795 0.025448
v 0.035316 0.846059 0.040662
v 0.035414 0.833301 0.040847
v 0.035335 0.846001 0.025764
v 0.035446 0.833205 0.025671
v 0.052896 0.821234 0.045265
v 0.053065 0.799349 0.045581
v 0.052968 0.821016 0.021427
v 0.053158 0.799068 0.021266
v 0.052675 0.850508 0.045688
v 0.052840 0.829189 0.045997
v 0.052708 0.850411 0.020795
v 0.052893 0.829029 0.020638
v 0.065555 0.817796 0.041495
v 0.065670 0.802914 0.041711
v 0.065604 0.817648 0.025284
v 0.065733 0.802722 0.025175
v 0.065328 0.847138 0.041700
v 0.065439 0.832725 0.041909
v 0.065350 0.847072 0.024871
v 0.065475 0.832617 0.024765
v 0.005905 0.232642 0.074903
v 0.009490 0.232642 0.074903
v 0.002610 0.868095 0.041788
v 0.006196 0.868095 0.041788
v 0.012804 0.232642 0.074903
v 0.016390 0.232642 0.074903
v 0.009621 0.867949 0.042104
v 0.013207 0.867949 0.042104
v 0.005905 0.176326 0.067260
v 0.009490 0.176326 0.067260
v 0.012804 0.176326 0.067260
v 0.016390 0.176326 0.067260
v -0.071526 0.555611 -0.038300
v -0.090969 0.021014 -0.038300
v -0.071526 0.555611 0.040586
v -0.090969 0.021014 0.040586
v -0.091814 0.538587 -0.038300
v -0.122224 0.486870 -0.038300
v -0.122248 0.442761 -0.038300
v -0.081670 0.294672 -0.038300
v -0.091814 0.538587 0.040586
v -0.122224 0.486870 0.040586
v -0.122248 0.442761 0.040586
v -0.081670 0.294672 0.040586
v -0.136782 0.214405 -0.038300
v -0.161888 0.141259 -0.038300
v -0.152167 0.075381 -0.038300
v -0.136782 0.214405 0.040586
v -0.161888 0.141259 0.040586
v -0.152167 0.075381 0.040586
v -0.115348 0.403031 -0.038300
v -0.079267 0.341437 -0.038300
v -0.115348 0.403031 0.040586
v -0.079267 0.341437 0.040586
v -0.034814 0.341437 0.040586
v -0.034481 0.294672 0.040586
v -0.034481 0.294672 0.069429
v -0.034814 0.341437 0.040586
v -0.018944 0.866122 0.040330
v -0.034814 0.341437 0.012448
v -0.018944 0.866122 0.025872
v -0.032565 0.152263 0.040586
v -0.018069 0.085750 0.040586
v -0.037914 0.176810 0.040586
v -0.037914 0.176810 0.067493
v -0.033260 0.889018 0.043931
v -0.033260 0.889018 0.021580
v -0.016016 0.915528 0.043931
v -0.016016 0.915528 0.021580
v -0.121111 0.241670 -0.038300
v -0.121111 0.241670 0.040586
v -0.141949 0.245641 -0.039940
v -0.147335 0.242077 -0.035185
v -0.141949 0.245641 0.038946
v -0.147335 0.242077 0.043700
v -0.097308 0.372234 -0.038300
v -0.097308 0.372234 0.040586
v -0.122522 0.381373 -0.038300
v -0.122522 0.381373 0.040586
v -0.117935 0.376260 -0.038300
v -0.117935 0.376260 0.040586
v -0.034638 0.236972 0.040586
v -0.033412 0.229971 0.040586
v -0.036463 0.237724 0.071160
v -0.035237 0.230722 0.071160
v -0.026712 0.580397 0.054879
v -0.022828 0.723260 0.047604
v -0.019433 0.802845 0.041245
v -0.019494 0.802662 0.025408
v -0.019323 0.817100 0.041039
v -0.019370 0.816957 0.025512
v -0.019199 0.833168 0.040806
v -0.019231 0.833072 0.025630
v -0.019100 0.845926 0.040622
v -0.019120 0.845868 0.025724
v -0.035539 0.817232 0.041079
v -0.035649 0.802978 0.041286
v -0.035585 0.817090 0.025553
v -0.035709 0.802795 0.025448
v -0.035316 0.846059 0.040662
v -0.035414 0.833301 0.040847
v -0.035335 0.846001 0.025764
v -0.035446 0.833205 0.025671
v -0.052896 0.821234 0.045265
v -0.053065 0.799349 0.045581
v -0.052968 0.821016 0.021427
v -0.053158 0.799068 0.021266
v -0.052675 0.850508 0.045688
v -0.052840 0.829189 0.045997
v -0.052708 0.850411 0.020795
v -0.052893 0.829029 0.020638
v -0.065555 0.817796 0.041495
v -0.065670 0.802914 0.041711
v -0.065604 0.817648 0.025284
v -0.065733 0.802722 0.025175
v -0.065328 0.847138 0.041700
v -0.065439 0.832725 0.041909
v -0.065350 0.847072 0.024871
v -0.065475 0.832617 0.024765
v -0.005905 0.232642 0.074903
v -0.009490 0.232642 0.074903
v -0.002610 0.868095 0.041788
v -0.006196 0.868095 0.041788
v -0.012804 0.232642 0.074903
v -0.016390 0.232642 0.074903
v -0.009621 0.867949 0.042104
v -0.013207 0.867949 0.042104
v -0.005905 0.176326 0.067260
v -0.009490 0.176326 0.067260
v -0.012804 0.176326 0.067260
v -0.016390 0.176326 0.067260
vn 0.2081 0.9781 -0.0000
vn -0.0000 -0.0000 1.0000
vn -1.0000 -0.0000 -0.0000
vn 0.1959 -0.9806 -0.0000
vn 0.6428 0.7660 -0.0000
vn -0.0000 -0.0000 -1.0000
vn 0.8023 0.5970 -0.0000
vn 0.9853 -0.1711 -0.0000
vn 1.0000 0.0005 -0.0000
vn 0.8620 0.5069 -0.0000
vn 0.6642 -0.7476 -0.0000
vn 0.9893 -0.1460 -0.0000
vn 0.9458 0.3246 -0.0000
vn -0.0000 1.0000 -0.0000
vn 0.9987 0.0513 -0.0000
vn -0.0000 -1.0000 -0.0000
vn 0.3777 0.0101 -0.9259
vn 0.9994 0.0333 -0.0000
vn 0.9666 -0.2107 0.1458
vn 0.0039 0.1194 -0.9928
vn 0.0322 0.9995 -0.0000
vn 0.8383 0.5452 -0.0000
vn -0.0000 -0.1843 -0.9829
vn -0.0000 -0.1554 0.9879
vn 0.8479 -0.5302 -0.0000
vn 0.6012 -0.1407 -0.7866
vn 0.5518 0.8340 -0.0000
vn 0.9344 -0.3563 -0.0000
vn 0.0707 0.0406 0.9967
vn -0.1872 0.9823 -0.0000
vn 0.8629 -0.5055 -0.0000
vn 0.7444 -0.6678 -0.0000
vn 0.1916 -0.9815 -0.0000
vn 0.9493 0.3144 -0.0000
vn 0.9836 -0.1722 -0.0545
vn 0.0254 0.9993 -0.0261
vn -0.0179 -0.9995 0.0246
vn -0.0082 1.0000 -0.0039
vn 1.0000 0.0077 0.0013
vn 1.0000 0.0078 0.0020
vn 0.0082 -0.9999 0.0116
vn -0.2312 -0.9729 0.0056
vn -0.2320 0.0051 -0.9727
vn -0.0026 0.0144 0.9999
vn 0.0024 0.0073 -1.0000
vn -0.0082 0.9999 -0.0092
vn 0.0082 -0.9999 0.0063
vn 0.3092 0.0096 -0.9510
vn 0.2564 0.9666 -0.0035
vn -0.2809 0.0117 0.9597
vn -0.2065 -0.9784 0.0105
vn -0.2371 0.0122 0.9714
vn -0.2471 0.9690 -0.0041
vn -0.2761 0.0046 -0.9611
vn -0.2224 0.9749 -0.0096
vn 1.0000 0.0078 0.0030
vn 0.2598 0.9656 -0.0081
vn 0.2943 0.0095 -0.9557
vn 0.2722 -0.9622 0.0066
vn 0.3045 0.0161 0.9524
vn 0.2756 -0.9612 0.0122
vn 0.2894 0.0161 0.9571
vn -0.0000 0.0520 0.9986
vn -0.0000 0.0516 0.9987
vn -0.0000 -0.1345 0.9909
vn -0.2081 0.9781 -0.0000
vn -0.1959 -0.9806 -0.0000
vn -0.6428 0.7660 -0.0000
vn -0.8023 0.5970 -0.0000
vn -0.9853 -0.1711 -0.0000
vn -1.0000 0.0005 -0.0000
vn -0.8620 0.5069 -0.0000
vn -0.6642 -0.7476 -0.0000
vn -0.9893 -0.1460 -0.0000
vn -0.9458 0.3246 -0.0000
vn -0.9987 0.0513 -0.0000
vn 1.0000 -0.0000 -0.0000
vn -0.3777 0.0101 -0.9259
vn -0.8246 -0.0059 0.5657
vn -0.9666 -0.2107 0.1458
vn -0.0039 0.1194 -0.9928
vn -0.0322 0.9995 -0.0000
vn -0.8383 0.5452 -0.0000
vn -0.8479 -0.5302 -0.0000
vn 0.0707 -0.0406 -0.9967
vn -0.5518 0.8340 -0.0000
vn -0.9344 -0.3563 -0.0000
vn -0.0707 0.0406 0.9967
vn 0.1872 0.9823 -0.0000
vn -0.8629 -0.5055 -0.0000
vn -0.7444 -0.6678 -0.0000
vn -0.1916 -0.9815 -0.0000
vn -0.9493 0.3144 -0.0000
vn -0.9836 -0.1722 -0.0545
vn -0.0268 0.9993 -0.0246
vn 0.0179 -0.9995 0.0246
vn 0.0082 1.0000 -0.0039
vn -1.0000 0.0077 0.0013
vn -1.0000 0.0086 0.0029
vn -0.0082 -0.9999 0.0116
vn 0.2312 -0.9729 0.0056
vn 0.2320 0.0051 -0.9727
vn 0.0026 0.0145 0.9999
vn -0.0024 0.0073 -1.0000
vn 0.0082 0.9999 -0.0092
vn -0.0082 -0.9999 0.0063
vn 0.0026 0.0144 0.9999
vn -0.3092 0.0096 -0.9510
vn -0.2564 0.9666 -0.0035
vn 0.2809 0.0117 0.9597
vn 0.2065 -0.9784 0.0105
vn 0.2371 0.0122 0.9714
vn 0.2471 0.9690 -0.0041
vn 0.2761 0.0046 -0.9611
vn 0.2224 0.9749 -0.0096
vn -1.0000 0.0086 0.0037
vn -1.0000 0.0086 0.0020
vn -0.2598 0.9656 -0.0081
vn -0.2943 0.0095 -0.9557
vn -0.2722 -0.9622 0.0066
vn -0.3045 0.0161 0.9524
vn -0.2756 -0.9612 0.0122
vn -0.2894 0.0161 0.9571
vn -0.0000 0.0509 0.9987
vn -0.8821 -0.0000 0.4710
vn -0.9999 0.0147 -0.0000
vn -0.0817 0.0583 0.9949
vn -1.0000 0.0062 -0.0000
vn 0.6655 0.0159 0.7463
vn -0.0000 0.0281 -0.9996
vn -0.0000 0.0256 -0.9997
vn 0.8321 -0.0000 -0.5547
vn 0.9994 0.0331 0.0034
vn 0.9996 0.0272 -0.0000
vn 0.9983 0.0296 -0.0496
vn 0.0353 -0.0003 0.9994
vn -0.0000 0.7071 0.7071
vn 0.9759 -0.2182 -0.0000
vn -0.0707 -0.0406 -0.9967
vn -0.6012 0.1407 0.7866
vn 0.0268 0.9993 -0.0246
vn -0.0170 -0.9995 0.0256
vn 1.0000 0.0087 -0.0000
vn 1.0000 0.0086 0.0029
vn -0.0026 0.0145 0.9999
vn 1.0000 0.0086 0.0037
vn 1.0000 0.0086 0.0020
vn 0.2886 0.0640 0.9553
vn -0.6655 0.0159 0.7463
vn 0.9999 0.0147 -0.0000
vn -0.0000 0.0145 0.9999
vn -0.0920 0.0506 0.9945
vn -0.8321 -0.0000 -0.5547
vn -0.9996 0.0272 -0.0000
vn -0.8821 -0.0000 -0.4710
vn -0.9994 0.0331 0.0034
vn -0.9994 0.0330 0.0049
vn -0.9994 0.0339 -0.0000
vn -0.9759 -0.2182 -0.0000
vn -0.6012 -0.1407 -0.7866
vn 0.6012 0.1407 0.7866
vn -0.0254 0.9993 -0.0261
vn 0.0170 -0.9995 0.0256
vn -1.0000 0.0087 -0.0000
vn -1.0000 0.0078 0.0020
vn -1.0000 0.0078 0.0030
vt 0.643164 0.745946
vt 0.725748 0.821288
vt 0.643073 0.821276
vt 0.224462 0.644840
vt 0.206620 0.719802
vt 0.206620 0.623577
vt 0.365327 0.373122
vt 0.448003 0.339333
vt 0.448003 0.373122
vt 0.323493 0.846211
vt 0.240957 0.750871
vt 0.323630 0.750871
vt 0.725647 0.842982
vt 0.642972 0.842971
vt 0.216039 0.033569
vt 0.292546 0.024391
vt 0.311637 0.044541
vt 0.180659 0.341842
vt 0.271928 0.297294
vt 0.306660 0.357193
vt 0.204588 0.133344
vt 0.319942 0.188495
vt 0.198379 0.187446
vt 0.337120 0.102023
vt 0.331874 0.147952
vt 0.209859 0.087417
vt 0.897724 0.914781
vt 0.980413 0.968150
vt 0.897738 0.968142
vt 0.725845 0.923977
vt 0.808514 0.965940
vt 0.725839 0.965932
vt 0.725848 0.877811
vt 0.808521 0.923985
vt 0.725838 0.825311
vt 0.808524 0.877819
vt 0.365327 0.683413
vt 0.448003 0.628750
vt 0.448003 0.683413
vt 0.365327 0.473549
vt 0.448003 0.528006
vt 0.365327 0.528006
vt 0.365327 0.427322
vt 0.448003 0.473549
vt 0.448003 0.427322
vt 0.337120 0.255260
vt 0.391783 0.169666
vt 0.392668 0.296596
vt 0.064552 0.598912
vt 0.106191 0.719802
vt 0.051734 0.719802
vt 0.152419 0.591706
vt 0.106191 0.591681
vt 0.152419 0.719802
vt 0.623924 0.265006
vt 0.556078 0.188604
vt 0.642972 0.169666
vt 0.566945 0.329144
vt 0.486370 0.203796
vt 0.421243 0.313020
vt 0.459362 0.169666
vt 0.460644 0.209402
vt 0.365327 0.846241
vt 0.448003 0.934599
vt 0.365327 0.934599
vt 0.448003 0.775094
vt 0.448003 0.846241
vt 0.365327 0.750990
vt 0.448003 0.698632
vt 0.323083 0.910349
vt 0.240820 0.846211
vt 0.811793 0.755320
vt 0.894466 0.824794
vt 0.811790 0.824794
vt 0.811780 0.680107
vt 0.894469 0.755320
vt 0.162094 0.503611
vt 0.248909 0.583340
vt 0.152019 0.591394
vt 0.337120 0.466614
vt 0.319125 0.534046
vt 0.170206 0.432927
vt 0.319720 0.387455
vt 0.331310 0.591941
vt 0.331309 0.591710
vt 0.032276 0.617819
vt 0.025867 0.719802
vt 0.365327 0.628750
vt 0.448003 0.579739
vt 0.448003 0.553872
vt 0.365327 0.553872
vt 0.897727 0.865962
vt 0.980399 0.914789
vt 0.036496 0.596201
vt 0.041854 0.591394
vt 0.186892 0.287535
vt 0.275014 0.248315
vt 0.297478 0.218405
vt 0.195430 0.213144
vt 0.535381 0.920901
vt 0.523845 0.871891
vt 0.535381 0.871891
vt 0.000000 0.895150
vt 0.049011 0.848211
vt 0.049011 0.897668
vt 0.505152 0.339333
vt 0.156458 0.920486
vt 0.126229 0.884348
vt 0.156458 0.884348
vt 0.573832 0.940994
vt 0.574101 0.391111
vt 0.578361 0.391111
vt 0.711798 0.051794
vt 0.711798 0.601638
vt 0.711798 0.650577
vt 0.589253 0.391111
vt 0.576913 0.367116
vt 0.593751 0.367116
vt 0.849514 0.601644
vt 0.869552 0.073019
vt 0.869815 0.103318
vt 0.603322 0.940994
vt 0.156458 0.884698
vt 0.185947 0.921185
vt 0.156458 0.921185
vt 0.534604 0.821446
vt 0.505152 0.819942
vt 0.559878 0.339991
vt 0.941504 0.681623
vt 0.975282 0.832761
vt 0.936223 0.657993
vt 0.358662 0.929984
vt 0.603322 0.435709
vt 0.603322 0.339335
vt 0.609987 0.518850
vt 0.995961 0.182044
vt 0.956904 0.007423
vt 0.995961 0.000000
vt 0.098030 0.887904
vt 0.126222 0.927663
vt 0.098023 0.927659
vt 0.918406 0.208867
vt 0.941830 0.182052
vt 0.941830 0.208875
vt 0.869369 0.051792
vt 0.849514 0.027784
vt 0.884372 0.027784
vt 0.691943 0.051794
vt 0.711798 0.027784
vt 0.922890 0.233600
vt 0.938042 0.233605
vt 0.000000 0.931229
vt 0.016838 0.914451
vt 0.023424 0.914452
vt 0.570326 0.367116
vt 0.576913 0.339332
vt 0.593751 0.339332
vt 0.866300 0.000000
vt 0.695012 0.000000
vt 0.711798 0.000000
vt 0.404929 0.204684
vt 0.365327 0.698632
vt 0.328833 0.355544
vt 0.334013 0.359912
vt 0.178924 0.356962
vt 0.630788 0.770174
vt 0.625053 0.692462
vt 0.630788 0.687500
vt 0.894455 0.680107
vt 0.815048 0.650577
vt 0.897724 0.650577
vt 0.388513 0.318436
vt 0.603322 0.773444
vt 0.625053 0.775136
vt 0.192480 0.238843
vt 0.897738 0.832761
vt 0.980402 0.865971
vt 0.365327 0.579739
vt 0.000000 0.636726
vt 0.000000 0.719802
vt 0.725841 0.988216
vt 0.808514 0.993821
vt 0.725838 0.993813
vt 0.319437 0.216678
vt 0.207565 0.930915
vt 0.185947 0.848211
vt 0.207565 0.848241
vt 0.331309 0.623447
vt 0.323630 0.591582
vt 0.331309 0.591394
vt 0.407003 0.169666
vt 0.404301 0.169666
vt 0.397592 0.205968
vt 0.631522 0.340617
vt 0.639832 0.377547
vt 0.632150 0.377547
vt 0.630809 0.631921
vt 0.638200 0.600069
vt 0.638200 0.632126
vt 0.603322 0.597968
vt 0.635375 0.561638
vt 0.635369 0.599865
vt 0.603322 0.777049
vt 0.635375 0.812066
vt 0.603327 0.812066
vt 0.880665 0.601644
vt 0.865074 0.618630
vt 0.865052 0.601644
vt 0.922728 0.254791
vt 0.938342 0.254735
vt 0.065285 0.914525
vt 0.049286 0.897668
vt 0.065192 0.897712
vt 0.539884 0.920350
vt 0.556462 0.903356
vt 0.556483 0.920350
vt 0.785967 0.633114
vt 0.807201 0.614840
vt 0.801872 0.633114
vt 0.886939 0.118161
vt 0.905027 0.099053
vt 0.905226 0.122055
vt 0.691546 0.103169
vt 0.674436 0.117968
vt 0.674552 0.103029
vt 0.869669 0.086429
vt 0.886547 0.072880
vt 0.886663 0.086290
vt 0.477353 0.873475
vt 0.493617 0.890461
vt 0.477344 0.890461
vt 0.869945 0.118300
vt 0.886809 0.103179
vt 0.801864 0.650108
vt 0.691779 0.072959
vt 0.674682 0.086190
vt 0.674785 0.072819
vt 0.904754 0.068244
vt 0.918135 0.086904
vt 0.904948 0.090652
vt 0.885959 0.636711
vt 0.864104 0.650049
vt 0.859869 0.636711
vt 0.656592 0.068136
vt 0.539862 0.903356
vt 0.560867 0.885086
vt 0.656360 0.098819
vt 0.880687 0.618630
vt 0.472987 0.908558
vt 0.080898 0.897668
vt 0.065285 0.914707
vt 0.065325 0.897717
vt 0.641868 0.866964
vt 0.626747 0.884728
vt 0.626788 0.867090
vt 0.493959 0.921897
vt 0.476968 0.921897
vt 0.918406 0.118236
vt 0.784947 0.601644
vt 0.802915 0.601644
vt 0.643214 0.086789
vt 0.643331 0.071685
vt 0.539455 0.871891
vt 0.556786 0.871891
vt 0.642972 0.118033
vt 0.643093 0.102437
vt 0.995680 0.847898
vt 0.992203 0.182062
vt 0.995961 0.182044
vt 0.987621 0.847745
vt 0.984135 0.182061
vt 0.987893 0.182044
vt 0.984135 0.906815
vt 0.983863 0.847762
vt 0.992203 0.906968
vt 0.991922 0.847916
vt 0.725748 0.671408
vt 0.643073 0.671397
vt 0.224462 0.794764
vt 0.206620 0.816028
vt 0.323493 0.655531
vt 0.725647 0.650589
vt 0.642972 0.650577
vt 0.143600 0.007297
vt 0.219892 0.000000
vt 0.101856 0.277775
vt 0.079739 0.160928
vt 0.082598 0.072812
vt 0.120441 0.022598
vt 0.642972 0.979979
vt 0.725654 0.924164
vt 0.725648 0.979976
vt 0.811784 0.967020
vt 0.894457 0.925425
vt 0.894460 0.967018
vt 0.811781 0.925428
vt 0.894455 0.879198
vt 0.811780 0.879201
vt 0.894460 0.824794
vt 0.337120 0.084072
vt 0.392668 0.042737
vt 0.064552 0.840692
vt 0.106191 0.847923
vt 0.152419 0.847898
vt 0.623924 0.074327
vt 0.556078 0.150729
vt 0.566945 0.010189
vt 0.486370 0.135537
vt 0.497902 0.000000
vt 0.460644 0.129930
vt 0.421243 0.026312
vt 0.240820 0.655531
vt 0.323083 0.591394
vt 0.729101 0.825311
vt 0.811775 0.756334
vt 0.811777 0.825311
vt 0.729099 0.756334
vt 0.811780 0.679508
vt 0.059473 0.561599
vt 0.000000 0.427924
vt 0.034881 0.354765
vt 0.331309 0.592172
vt 0.331310 0.592488
vt 0.032276 0.821785
vt 0.642979 0.924167
vt 0.725653 0.875137
vt 0.036496 0.843404
vt 0.109946 0.229370
vt 0.094843 0.195149
vt 0.098023 0.897668
vt 0.049011 0.850729
vt 0.098023 0.848211
vt 0.156458 0.848211
vt 0.829476 0.073019
vt 0.829660 0.051792
vt 0.156458 0.848211
vt 0.478193 0.871938
vt 0.448003 0.573588
vt 0.475701 0.822993
vt 0.365319 0.752526
vt 0.365320 0.778216
vt 0.918406 0.017347
vt 0.126222 0.848215
vt 0.098023 0.848211
vt 0.603322 0.848999
vt 0.626747 0.876896
vt 0.603322 0.876899
vt 0.849514 0.051792
vt 0.731652 0.051794
vt 0.622254 0.900795
vt 0.607102 0.900797
vt 0.000000 0.897668
vt 0.832728 0.000000
vt 0.814656 0.027784
vt 0.728584 0.000000
vt 0.746655 0.027784
vt 0.404929 0.134649
vt 0.033234 0.321619
vt 0.054457 0.328249
vt 0.603322 0.682539
vt 0.608874 0.604826
vt 0.608874 0.687500
vt 0.729104 0.679508
vt 0.808514 0.650577
vt 0.388513 0.020897
vt 0.630809 0.685802
vt 0.630809 0.603128
vt 0.642977 0.875140
vt 0.725648 0.842982
vt 0.000000 0.802878
vt 0.811784 0.995094
vt 0.894459 0.989764
vt 0.894460 0.995091
vt 0.073846 0.188492
vt 0.229184 0.848211
vt 0.207565 0.930915
vt 0.207565 0.848241
vt 0.397592 0.133364
vt 0.631522 0.414477
vt 0.638859 0.415762
vt 0.631522 0.415939
vt 0.638849 0.447815
vt 0.631522 0.447992
vt 0.603322 0.525386
vt 0.603328 0.561653
vt 0.603322 0.847084
vt 0.838985 0.633118
vt 0.854579 0.650111
vt 0.838965 0.650111
vt 0.622412 0.922024
vt 0.606799 0.921964
vt 0.023424 0.914555
vt 0.039419 0.897668
vt 0.039698 0.914555
vt 0.890364 0.633110
vt 0.906942 0.650104
vt 0.890342 0.650104
vt 0.807201 0.614840
vt 0.828435 0.633114
vt 0.812529 0.633114
vt 0.812089 0.118161
vt 0.794002 0.099053
vt 0.812219 0.103179
vt 0.732049 0.103169
vt 0.749159 0.117968
vt 0.732165 0.118107
vt 0.829360 0.086429
vt 0.812481 0.072880
vt 0.452364 0.921933
vt 0.468630 0.904940
vt 0.468637 0.921933
vt 0.829084 0.118300
vt 0.829214 0.103318
vt 0.812537 0.650108
vt 0.828443 0.650108
vt 0.731816 0.072959
vt 0.748913 0.086190
vt 0.731919 0.086329
vt 0.780894 0.086904
vt 0.794274 0.068244
vt 0.794080 0.090652
vt 0.838013 0.601644
vt 0.859869 0.614809
vt 0.833778 0.614809
vt 0.767004 0.068136
vt 0.748810 0.072819
vt 0.885959 0.614840
vt 0.906963 0.633110
vt 0.767235 0.098819
vt 0.749044 0.103029
vt 0.854599 0.633118
vt 0.812365 0.086290
vt 0.448003 0.886639
vt 0.452357 0.904940
vt 0.626747 0.884932
vt 0.642388 0.901967
vt 0.626747 0.902263
vt 0.626747 0.848997
vt 0.641895 0.866758
vt 0.626747 0.866964
vt 0.468977 0.873475
vt 0.472987 0.886639
vt 0.780623 0.118236
vt 0.793802 0.122055
vt 0.829454 0.601644
vt 0.833779 0.614840
vt 0.780381 0.086789
vt 0.767176 0.090478
vt 0.907370 0.601644
vt 0.911444 0.614840
vt 0.780623 0.118033
vt 0.767412 0.121753
vt 0.996242 0.665854
vt 0.999719 0.000018
vt 1.000000 0.665871
vt 0.988164 0.847745
vt 0.991650 0.182061
vt 0.991922 0.847762
vt 0.991650 0.906815
vt 0.999719 0.724924
vt 0.725838 0.745957
vt 0.240410 0.719802
vt 0.365327 0.339333
vt 0.808514 0.825319
vt 0.337120 0.169666
vt 0.497902 0.339333
vt 0.365327 0.775094
vt 0.240410 0.910349
vt 0.331309 0.591394
vt 0.505152 0.920901
vt 0.000000 0.848561
vt 0.126229 0.920486
vt 0.562296 0.940994
vt 0.675660 0.650577
vt 0.683802 0.351186
vt 0.687872 0.201490
vt 0.691431 0.118107
vt 0.691676 0.086329
vt 0.886001 0.601644
vt 0.185947 0.884698
vt 0.543291 0.339333
vt 0.562296 0.572857
vt 0.562296 0.871891
vt 0.532106 0.870348
vt 0.957022 0.751057
vt 0.936247 0.658099
vt 0.603322 0.523459
vt 0.603322 0.365314
vt 0.631522 0.339333
vt 0.126229 0.887908
vt 0.918406 0.182044
vt 0.676940 0.027784
vt 0.023424 0.931233
vt 0.000000 0.914448
vt 0.570326 0.339332
vt 0.849514 0.000000
vt 0.392229 0.324080
vt 0.603322 0.690770
vt 0.980413 0.832769
vt 0.808516 0.988224
vt 0.324824 0.211902
vt 0.185947 0.930884
vt 0.323630 0.623635
vt 0.396619 0.169666
vt 0.638859 0.339333
vt 0.630809 0.599865
vt 0.635370 0.775136
vt 0.049011 0.914525
vt 0.780623 0.614840
vt 0.493627 0.873475
vt 0.785959 0.650108
vt 0.918004 0.071755
vt 0.881742 0.650049
vt 0.656419 0.090478
vt 0.535381 0.885086
vt 0.656183 0.121753
vt 0.497971 0.908558
vt 0.080898 0.914999
vt 0.641868 0.884932
vt 0.918270 0.102593
vt 0.987893 0.906797
vt 0.995961 0.906950
vt 0.077303 0.118735
vt 0.811784 0.824797
vt 0.240410 0.591394
vt 0.002250 0.497679
vt 0.041854 0.848211
vt 0.049011 0.897318
vt 0.126229 0.848211
vt 0.739793 0.351186
vt 0.747935 0.650577
vt 0.735723 0.201490
vt 0.813027 0.601644
vt 0.448003 0.873475
vt 0.448003 0.423645
vt 0.450417 0.339984
vt 0.467004 0.339333
vt 0.505152 0.821493
vt 0.365323 0.847826
vt 0.337120 0.752526
vt 0.626747 0.848997
vt 0.023424 0.897671
vt 0.027199 0.324700
vt 0.603322 0.599865
vt 0.725838 0.650577
vt 0.392229 0.015252
vt 0.642972 0.842985
vt 0.811783 0.989766
vt 0.069681 0.182621
vt 0.229184 0.930884
vt 0.638849 0.415762
vt 0.635369 0.523459
vt 0.635370 0.848996
vt 0.023514 0.897713
vt 0.781025 0.071755
vt 0.855651 0.601644
vt 0.642346 0.884977
vt 0.641853 0.849120
vt 0.451987 0.873475
vt 0.780758 0.102593
vt 0.811486 0.601644
vt 0.780264 0.071685
vt 0.890039 0.601644
vt 0.780502 0.102437
vt 0.995961 0.000000
vt 0.987893 0.182044
vt 0.987893 0.906797
vt 0.995961 0.724906
s 0
usemtl fiddle
f 3/4/2 16/5/2 17/6/2
f 16/7/3 5/8/3 21/9/3
f 79/37/3 24/38/3 82/39/3
f 14/40/3 43/41/3 40/42/3
f 15/43/3 23/44/3 14/40/3
f 16/7/3 22/45/3 15/43/3
f 20/46/2 79/47/2 81/48/2
f 41/49/2 14/50/2 40/51/2
f 18/52/2 14/50/2 19/53/2
f 17/6/2 15/54/2 18/52/2
f 4/55/2 64/56/2 8/57/2
f 30/58/2 63/59/2 64/56/2
f 28/60/2 62/61/2 65/62/2
f 34/63/3 6/64/3 8/65/3
f 34/63/3 32/66/3 33/67/3
f 62/68/3 31/69/3 32/66/3
f 13/84/14 46/85/14 47/84/14
f 89/86/2 40/51/2 88/87/2
f 13/88/3 44/89/3 24/38/3
f 40/42/3 90/90/3 88/91/3
f 41/49/2 94/94/2 92/95/2
f 47/100/3 51/101/3 48/102/3
f 42/103/2 46/104/2 20/105/2
f 42/106/14 48/106/14 45/106/14
f 39/106/14 47/106/14 48/106/14
f 48/106/14 54/106/14 53/106/14
f 53/110/3 57/111/3 55/112/3
f 45/106/14 53/106/14 52/106/14
f 61/116/3 71/117/3 73/118/3
f 53/110/3 61/116/3 59/122/3
f 53/123/16 58/124/16 52/125/16
f 35/129/3 66/130/3 67/131/3
f 34/63/3 8/65/3 66/132/3
f 62/139/21 68/140/21 65/141/21
f 72/142/22 74/143/22 69/144/22
f 60/145/23 73/146/23 72/147/23
f 56/148/24 70/149/24 57/113/24
f 60/150/25 69/144/25 56/151/25
f 57/111/3 71/117/3 55/112/3
f 77/152/14 76/153/14 75/154/14
f 70/155/3 76/156/3 71/117/3
f 71/117/3 78/157/3 73/118/3
f 73/146/6 77/158/6 72/147/6
f 70/149/2 74/159/2 75/160/2
f 81/48/2 96/161/2 28/60/2
f 36/162/3 82/39/3 31/69/3
f 28/60/29 85/172/29 81/48/29
f 39/178/3 90/90/3 44/89/3
f 42/179/2 88/87/2 39/180/2
f 98/188/3 101/189/3 102/190/3
f 36/191/2 96/161/2 97/192/2
f 79/47/2 95/193/2 81/48/2
f 79/106/14 97/106/14 98/106/14
f 16/5/2 151/279/2 157/280/2
f 79/47/2 160/300/2 187/301/2
f 169/302/2 14/50/2 159/303/2
f 14/50/2 158/304/2 159/303/2
f 15/54/2 157/280/2 158/304/2
f 152/305/2 179/306/2 166/307/2
f 166/307/2 178/308/2 165/309/2
f 180/310/2 36/191/2 164/311/2
f 13/84/14 172/322/14 160/323/14
f 193/324/2 40/51/2 169/302/2
f 169/302/2 197/327/2 193/324/2
f 172/330/2 170/331/2 160/332/2
f 170/106/14 48/106/14 39/106/14
f 171/106/14 53/106/14 48/106/14
f 176/186/16 53/123/16 174/336/16
f 181/343/82 62/139/82 180/344/82
f 184/345/83 183/346/83 182/347/83
f 177/335/23 73/146/23 61/348/23
f 70/149/24 175/349/24 57/113/24
f 182/347/84 177/350/84 175/351/84
f 75/154/14 76/153/14 185/352/14
f 185/353/6 73/146/6 183/354/6
f 70/149/2 184/355/2 182/356/2
f 199/357/2 187/301/2 164/311/2
f 190/365/88 164/311/88 187/301/88
f 170/370/2 88/87/2 193/324/2
f 36/191/2 199/357/2 164/311/2
f 198/378/2 79/47/2 187/301/2
f 3/4/2 7/462/2 16/5/2
f 16/7/3 7/463/3 5/8/3
f 79/37/3 13/88/3 24/38/3
f 14/40/3 23/44/3 43/41/3
f 15/43/3 22/45/3 23/44/3
f 16/7/3 21/9/3 22/45/3
f 20/46/2 13/465/2 79/47/2
f 41/49/2 19/53/2 14/50/2
f 18/52/2 15/54/2 14/50/2
f 17/6/2 16/5/2 15/54/2
f 4/55/2 30/58/2 64/56/2
f 30/58/2 29/466/2 63/59/2
f 63/59/2 29/466/2 28/60/2
f 28/60/2 36/191/2 62/61/2
f 65/62/2 63/59/2 28/60/2
f 34/63/3 33/67/3 6/64/3
f 34/63/3 35/467/3 32/66/3
f 32/66/3 35/467/3 62/68/3
f 62/68/3 36/162/3 31/69/3
f 13/84/14 20/469/14 46/85/14
f 89/86/2 41/49/2 40/51/2
f 13/88/3 39/178/3 44/89/3
f 40/42/3 43/41/3 90/90/3
f 41/49/2 89/86/2 94/94/2
f 47/100/3 50/470/3 51/101/3
f 42/103/2 45/471/2 46/104/2
f 42/106/14 39/106/14 48/106/14
f 39/106/14 13/106/14 47/106/14
f 48/106/14 51/106/14 54/106/14
f 53/110/3 54/473/3 57/111/3
f 45/106/14 48/106/14 53/106/14
f 61/116/3 55/112/3 71/117/3
f 53/110/3 55/112/3 61/116/3
f 53/123/16 59/480/16 58/124/16
f 35/129/3 34/485/3 66/130/3
f 67/131/3 62/486/3 35/129/3
f 62/139/21 67/490/21 68/140/21
f 72/142/22 77/491/22 74/143/22
f 60/145/23 61/348/23 73/146/23
f 56/148/24 69/492/24 70/149/24
f 60/150/25 72/142/25 69/144/25
f 57/111/3 70/155/3 71/117/3
f 75/154/14 74/493/14 77/152/14
f 77/152/14 78/494/14 76/153/14
f 70/155/3 75/495/3 76/156/3
f 71/117/3 76/156/3 78/157/3
f 73/146/6 78/496/6 77/158/6
f 70/149/2 69/492/2 74/159/2
f 81/48/2 95/193/2 96/161/2
f 36/162/3 79/37/3 82/39/3
f 28/60/140 86/497/140 85/172/140
f 39/178/3 88/91/3 90/90/3
f 42/179/2 89/86/2 88/87/2
f 98/188/3 97/503/3 101/189/3
f 36/191/2 28/60/2 96/161/2
f 79/47/2 98/504/2 95/193/2
f 79/106/14 36/106/14 97/106/14
f 16/5/2 7/462/2 151/279/2
f 79/47/2 13/465/2 160/300/2
f 169/302/2 40/51/2 14/50/2
f 14/50/2 15/54/2 158/304/2
f 15/54/2 16/5/2 157/280/2
f 152/305/2 8/57/2 179/306/2
f 166/307/2 179/306/2 178/308/2
f 164/311/2 165/309/2 178/308/2
f 180/310/2 62/61/2 36/191/2
f 164/311/2 178/308/2 180/310/2
f 13/84/14 47/84/14 172/322/14
f 193/324/2 88/87/2 40/51/2
f 169/302/2 195/527/2 197/327/2
f 172/330/2 171/528/2 170/331/2
f 170/106/14 171/106/14 48/106/14
f 171/106/14 174/106/14 53/106/14
f 176/186/16 59/480/16 53/123/16
f 181/343/82 67/490/82 62/139/82
f 184/345/83 185/541/83 183/346/83
f 177/335/23 183/354/23 73/146/23
f 70/149/24 182/356/24 175/349/24
f 182/347/84 183/346/84 177/350/84
f 185/352/14 184/542/14 75/154/14
f 76/153/14 78/494/14 185/352/14
f 185/353/6 78/496/6 73/146/6
f 70/149/2 75/160/2 184/355/2
f 199/357/2 198/378/2 187/301/2
f 190/365/161 191/546/161 164/311/161
f 170/370/2 39/180/2 88/87/2
f 36/191/2 97/192/2 199/357/2
f 198/378/2 98/504/2 79/47/2
usemtl black
f 5/1/1 3/2/1 1/3/1
f 2/10/4 8/11/4 6/12/4
f 1/3/5 17/13/5 9/14/5
f 21/15/6 1/16/6 9/17/6
f 82/18/6 12/19/6 80/20/6
f 23/21/6 37/22/6 43/23/6
f 23/21/6 10/24/6 11/25/6
f 22/26/6 9/17/6 10/24/6
f 12/27/7 81/28/7 80/29/7
f 11/30/8 41/31/8 37/32/8
f 10/33/9 19/34/9 11/30/9
f 9/35/10 18/36/10 10/33/10
f 27/70/11 4/71/11 2/10/11
f 26/72/12 30/73/12 27/74/12
f 25/75/13 29/76/13 26/72/13
f 33/77/6 2/78/6 6/79/6
f 33/77/6 26/80/6 27/81/6
f 32/82/6 25/83/6 26/80/6
f 38/92/15 20/93/15 12/27/15
f 24/96/6 38/97/6 12/19/6
f 43/23/6 87/98/6 90/99/6
f 46/107/16 50/108/16 47/109/16
f 57/113/3 54/114/3 50/115/3
f 59/119/17 112/120/17 108/121/17
f 45/126/18 58/127/18 105/128/18
f 64/133/19 65/134/19 66/135/19
f 66/136/20 67/137/20 68/138/20
f 25/83/26 83/163/26 84/164/26
f 31/165/6 80/20/6 25/83/6
f 84/166/27 85/167/27 86/168/27
f 28/169/28 84/170/28 86/171/28
f 80/173/30 85/167/30 83/174/30
f 90/99/6 38/97/6 44/175/6
f 87/176/31 42/177/31 38/92/31
f 91/181/32 94/182/32 93/183/32
f 37/22/6 93/184/6 87/98/6
f 87/185/33 94/186/33 89/187/33
f 41/31/34 91/181/34 37/32/34
f 100/194/2 102/195/2 101/196/2
f 95/197/35 100/198/35 96/199/35
f 95/200/36 102/201/36 99/202/36
f 96/203/37 101/204/37 97/205/37
f 111/206/38 119/207/38 112/208/38
f 112/209/39 56/151/39 111/210/39
f 107/211/40 110/212/40 109/213/40
f 106/214/41 114/215/41 105/216/41
f 120/217/42 126/218/42 118/219/42
f 116/220/43 123/221/43 124/222/43
f 107/223/44 114/224/44 113/225/44
f 110/226/45 119/227/45 120/228/45
f 108/229/46 113/230/46 115/231/46
f 106/232/45 115/233/45 116/220/45
f 109/234/47 120/217/47 118/219/47
f 111/235/44 118/236/44 117/237/44
f 127/238/48 136/239/48 128/240/48
f 125/241/49 135/242/49 127/243/49
f 118/236/50 125/244/50 117/237/50
f 116/245/51 122/246/51 114/215/51
f 114/224/52 121/247/52 113/225/52
f 117/248/53 127/243/53 119/207/53
f 120/228/54 127/238/54 128/240/54
f 113/230/55 123/249/55 115/231/55
f 130/250/56 131/251/56 129/252/56
f 134/253/39 135/254/39 133/255/39
f 123/249/57 129/256/57 131/257/57
f 123/221/58 132/258/58 124/222/58
f 126/218/59 136/259/59 134/260/59
f 125/244/60 134/261/60 133/262/60
f 122/246/61 132/263/61 130/264/61
f 121/247/62 130/265/62 129/266/62
f 151/277/66 5/1/66 149/278/66
f 8/11/67 150/281/67 6/12/67
f 157/282/68 149/278/68 153/283/68
f 21/15/6 149/284/6 5/285/6
f 82/18/6 156/286/6 24/96/6
f 167/287/6 23/21/6 43/23/6
f 23/21/6 154/288/6 22/26/6
f 22/26/6 153/289/6 21/15/6
f 187/290/69 156/291/69 186/292/69
f 169/293/70 155/294/70 167/295/70
f 159/296/71 154/297/71 155/294/71
f 158/298/72 153/299/72 154/297/72
f 152/312/73 163/313/73 150/281/73
f 166/314/74 162/315/74 163/316/74
f 165/317/75 161/318/75 162/315/75
f 150/319/6 33/77/6 6/79/6
f 33/77/6 162/320/6 32/82/6
f 32/82/6 161/321/6 31/165/6
f 160/325/76 168/326/76 156/291/76
f 24/96/6 168/328/6 44/175/6
f 192/329/6 43/23/6 90/99/6
f 50/108/16 172/333/16 47/109/16
f 50/115/77 51/114/77 57/113/77
f 211/334/78 177/335/78 59/119/78
f 172/337/79 202/338/79 174/339/79
f 66/132/80 180/340/80 178/341/80
f 66/136/81 181/342/81 67/137/81
f 161/321/85 188/358/85 186/359/85
f 31/165/6 186/359/6 82/18/6
f 189/360/86 190/361/86 188/362/86
f 164/363/87 189/364/87 161/318/87
f 186/366/89 190/361/89 187/367/89
f 168/328/6 90/99/6 44/175/6
f 170/368/90 192/369/90 168/326/90
f 197/371/91 194/372/91 196/373/91
f 196/374/6 167/287/6 192/329/6
f 197/375/92 192/376/92 193/377/92
f 194/372/93 169/293/93 167/295/93
f 201/379/2 102/195/2 200/380/2
f 201/381/94 198/382/94 199/383/94
f 198/384/95 102/201/95 98/385/95
f 101/204/96 199/386/96 97/205/96
f 218/387/97 210/388/97 211/389/97
f 175/351/98 211/390/98 210/391/98
f 206/392/99 209/393/99 207/394/99
f 213/395/100 205/396/100 204/397/100
f 225/398/101 219/399/101 217/400/101
f 215/401/102 222/402/102 214/403/102
f 206/404/103 213/405/103 204/406/103
f 209/407/104 218/408/104 211/334/104
f 207/409/105 212/410/105 206/411/105
f 205/412/104 214/403/104 207/413/104
f 208/414/106 219/399/106 209/415/106
f 210/416/107 217/417/107 208/418/107
f 235/419/108 226/420/108 227/421/108
f 234/422/109 224/423/109 226/424/109
f 224/425/110 217/417/110 216/426/110
f 221/427/111 215/428/111 213/395/111
f 220/429/112 213/405/112 212/430/112
f 226/424/113 216/431/113 218/387/113
f 219/432/114 226/420/114 218/408/114
f 222/433/115 212/410/115 214/434/115
f 229/435/116 230/436/116 231/437/116
f 233/438/117 234/439/117 235/440/117
f 222/433/118 228/441/118 220/442/118
f 231/443/119 222/402/119 223/444/119
f 225/398/120 235/445/120 227/446/120
f 224/425/121 233/447/121 225/448/121
f 221/427/122 231/449/122 223/450/122
f 220/429/123 229/451/123 221/452/123
f 5/1/1 7/461/1 3/2/1
f 2/10/4 4/71/4 8/11/4
f 1/3/5 3/2/5 17/13/5
f 21/15/6 5/285/6 1/16/6
f 82/18/6 24/96/6 12/19/6
f 23/21/6 11/25/6 37/22/6
f 23/21/6 22/26/6 10/24/6
f 22/26/6 21/15/6 9/17/6
f 12/27/7 20/93/7 81/28/7
f 11/30/8 19/34/8 41/31/8
f 10/33/9 18/36/9 19/34/9
f 9/35/10 17/464/10 18/36/10
f 27/70/11 30/468/11 4/71/11
f 26/72/12 29/76/12 30/73/12
f 25/75/13 28/169/13 29/76/13
f 33/77/6 27/81/6 2/78/6
f 33/77/6 32/82/6 26/80/6
f 32/82/6 31/165/6 25/83/6
f 38/92/15 42/177/15 20/93/15
f 24/96/6 44/175/6 38/97/6
f 43/23/6 37/22/6 87/98/6
f 46/107/16 49/472/16 50/108/16
f 50/115/124 49/474/124 103/475/124
f 103/475/125 104/476/125 105/477/125
f 107/223/126 109/478/126 111/235/126
f 50/115/127 103/475/127 105/477/127
f 107/223/128 111/235/128 56/148/128
f 50/115/129 105/477/129 107/223/129
f 50/115/129 107/223/129 56/148/129
f 50/115/124 56/148/124 57/113/124
f 54/114/14 51/114/14 50/115/14
f 106/232/130 58/479/130 59/119/130
f 59/119/131 61/348/131 60/145/131
f 112/120/132 110/226/132 108/121/132
f 59/119/17 60/145/17 112/120/17
f 108/121/17 106/232/17 59/119/17
f 58/127/133 106/481/133 105/128/133
f 103/482/134 49/483/134 46/484/134
f 105/128/135 103/482/135 46/484/135
f 45/126/14 52/126/14 58/127/14
f 105/128/136 46/484/136 45/126/136
f 66/135/19 8/487/19 64/133/19
f 64/133/137 63/488/137 65/134/137
f 65/134/138 68/489/138 66/135/138
f 25/83/139 80/20/139 83/163/139
f 31/165/6 82/18/6 80/20/6
f 84/166/27 83/174/27 85/167/27
f 28/169/28 25/75/28 84/170/28
f 80/173/30 81/498/30 85/167/30
f 90/99/6 87/98/6 38/97/6
f 87/176/31 89/499/31 42/177/31
f 91/181/32 92/500/32 94/182/32
f 37/22/6 91/501/6 93/184/6
f 87/185/33 93/502/33 94/186/33
f 41/31/34 92/500/34 91/181/34
f 100/194/2 99/505/2 102/195/2
f 95/197/35 99/506/35 100/198/35
f 95/200/141 98/385/141 102/201/141
f 96/203/142 100/507/142 101/204/142
f 111/206/38 117/248/38 119/207/38
f 112/209/143 60/150/143 56/151/143
f 107/211/144 108/508/144 110/212/144
f 106/214/41 116/245/41 114/215/41
f 120/217/42 128/509/42 126/218/42
f 116/220/43 115/233/43 123/221/43
f 107/223/145 105/477/145 114/224/145
f 110/226/45 112/120/45 119/227/45
f 108/229/46 107/510/46 113/230/46
f 106/232/45 108/121/45 115/233/45
f 109/234/47 110/511/47 120/217/47
f 111/235/44 109/478/44 118/236/44
f 127/238/48 135/512/48 136/239/48
f 125/241/49 133/513/49 135/242/49
f 118/236/50 126/514/50 125/244/50
f 116/245/51 124/515/51 122/246/51
f 114/224/52 122/516/52 121/247/52
f 117/248/53 125/241/53 127/243/53
f 120/228/54 119/227/54 127/238/54
f 113/230/55 121/517/55 123/249/55
f 130/250/146 132/518/146 131/251/146
f 134/253/147 136/519/147 135/254/147
f 123/249/57 121/517/57 129/256/57
f 123/221/58 131/520/58 132/258/58
f 126/218/59 128/509/59 136/259/59
f 125/244/60 126/514/60 134/261/60
f 122/246/61 124/515/61 132/263/61
f 121/247/62 122/516/62 130/265/62
f 151/277/66 7/461/66 5/1/66
f 8/11/67 152/312/67 150/281/67
f 157/282/68 151/277/68 149/278/68
f 21/15/6 153/289/6 149/284/6
f 82/18/6 186/359/6 156/286/6
f 167/287/6 155/523/6 23/21/6
f 23/21/6 155/523/6 154/288/6
f 22/26/6 154/288/6 153/289/6
f 187/290/69 160/325/69 156/291/69
f 169/293/70 159/296/70 155/294/70
f 159/296/71 158/298/71 154/297/71
f 158/298/72 157/524/72 153/299/72
f 152/312/73 166/525/73 163/313/73
f 166/314/74 165/317/74 162/315/74
f 165/317/75 164/363/75 161/318/75
f 150/319/6 163/526/6 33/77/6
f 33/77/6 163/526/6 162/320/6
f 32/82/6 162/320/6 161/321/6
f 160/325/76 170/368/76 168/326/76
f 24/96/6 156/286/6 168/328/6
f 192/329/6 167/287/6 43/23/6
f 50/108/16 173/529/16 172/333/16
f 202/530/124 173/531/124 50/115/124
f 203/532/124 202/530/124 50/115/124
f 204/406/148 203/532/148 50/115/148
f 206/404/149 204/406/149 50/115/149
f 210/416/150 208/418/150 206/404/150
f 57/113/151 175/349/151 210/416/151
f 57/113/151 210/416/151 206/404/151
f 57/113/152 206/404/152 50/115/152
f 51/114/14 54/114/14 57/113/14
f 59/119/130 176/533/130 205/412/130
f 207/413/153 209/407/153 211/334/153
f 59/119/78 205/412/78 207/413/78
f 177/335/131 61/348/131 59/119/131
f 59/119/78 207/413/78 211/334/78
f 172/337/154 173/534/154 202/338/154
f 202/338/155 203/535/155 204/536/155
f 204/536/156 205/537/156 176/538/156
f 202/338/157 204/536/157 176/538/157
f 174/339/14 171/339/14 172/337/14
f 202/338/158 176/538/158 174/339/158
f 179/539/80 8/65/80 66/132/80
f 66/132/159 181/540/159 180/340/159
f 178/341/80 179/539/80 66/132/80
f 161/321/160 189/543/160 188/358/160
f 31/165/6 161/321/6 186/359/6
f 189/360/86 191/544/86 190/361/86
f 164/363/87 191/545/87 189/364/87
f 186/366/89 188/362/89 190/361/89
f 168/328/6 192/329/6 90/99/6
f 170/368/90 193/547/90 192/369/90
f 197/371/91 195/548/91 194/372/91
f 196/374/6 194/549/6 167/287/6
f 197/375/92 196/550/92 192/376/92
f 194/372/93 195/548/93 169/293/93
f 201/379/2 101/196/2 102/195/2
f 201/381/94 200/551/94 198/382/94
f 198/384/162 200/552/162 102/201/162
f 101/204/163 201/553/163 199/386/163
f 218/387/97 216/431/97 210/388/97
f 175/351/164 177/350/164 211/390/164
f 206/392/165 208/554/165 209/393/165
f 213/395/100 215/428/100 205/396/100
f 225/398/101 227/446/101 219/399/101
f 215/401/102 223/444/102 222/402/102
f 206/404/107 212/430/107 213/405/107
f 209/407/104 219/432/104 218/408/104
f 207/409/105 214/434/105 212/410/105
f 205/412/104 215/401/104 214/403/104
f 208/414/106 217/400/106 219/399/106
f 210/416/107 216/426/107 217/417/107
f 235/419/108 234/555/108 226/420/108
f 234/422/109 232/556/109 224/423/109
f 224/425/110 225/448/110 217/417/110
f 221/427/111 223/450/111 215/428/111
f 220/429/112 221/452/112 213/405/112
f 226/424/113 224/423/113 216/431/113
f 219/432/114 227/421/114 226/420/114
f 222/433/115 220/442/115 212/410/115
f 229/435/166 228/557/166 230/436/166
f 233/438/98 232/558/98 234/439/98
f 222/433/118 230/559/118 228/441/118
f 231/443/119 230/560/119 222/402/119
f 225/398/120 233/561/120 235/445/120
f 224/425/121 232/562/121 233/447/121
f 221/427/122 229/563/122 231/449/122
f 220/429/123 228/564/123 229/451/123
usemtl strings
f 137/267/63 140/268/63 139/269/63
f 141/270/64 144/271/64 143/272/64
f 141/270/65 148/273/65 142/274/65
f 137/267/65 146/275/65 138/276/65
f 236/453/63 239/454/63 237/455/63
f 240/456/64 243/457/64 241/458/64
f 247/459/65 240/456/65 241/458/65
f 245/460/65 236/453/65 237/455/65
f 137/267/63 138/276/63 140/268/63
f 141/270/64 142/274/64 144/271/64
f 141/270/65 147/521/65 148/273/65
f 137/267/65 145/522/65 146/275/65
f 236/453/63 238/565/63 239/454/63
f 240/456/64 242/566/64 243/457/64
f 247/459/65 246/567/65 240/456/65
f 245/460/65 244/568/65 236/453/65
