# Blender 4.2.3 LTS
# www.blender.org
mtllib mandolin.mtl
o Sphere
v 0.299111 -0.216743 -0.261106
v 0.281797 -0.273806 -0.259005
v 0.013996 1.021735 0.252789
v 0.009315 0.281789 0.217737
v -0.155251 0.974203 0.238954
v 0.286809 -0.035768 0.187491
v -0.047242 0.269653 0.212799
v -0.112752 0.131216 -0.238933
v -0.165500 0.097634 -0.244324
v -0.211589 0.058784 -0.248375
v 0.257678 0.033920 0.190556
v -0.249377 0.012712 -0.251499
v -0.277487 -0.039873 -0.253751
v -0.294839 -0.096949 -0.255045
v 0.218643 0.107155 0.194770
v 0.013996 1.021735 0.252789
v 0.253747 -0.326370 -0.255743
v 0.172071 0.176159 0.199858
v 0.120356 0.232970 0.205540
v 0.216041 -0.372415 -0.251447
v 0.065567 0.269433 0.211564
v -0.052304 -0.453511 0.214463
v -0.109157 -0.436112 0.209424
v -0.161532 -0.407913 0.204734
v 0.170126 -0.410172 -0.246281
v 0.117768 -0.438189 -0.240444
v -0.055760 0.154761 -0.232993
v -0.057205 -0.455185 -0.232866
v 0.061880 0.154557 -0.234281
v 0.003178 0.164090 -0.227281
v 0.001941 -0.461114 -0.227671
v 0.060979 -0.455390 -0.234161
v 0.006842 -0.459440 0.219658
v -0.207417 -0.369997 0.200574
v -0.245049 -0.323821 0.197103
v -0.272981 -0.271160 0.194454
v -0.290139 -0.214037 0.192731
v 0.009315 0.281789 0.217737
v 0.065881 -0.453716 0.213169
v 0.122670 -0.436515 0.206885
v 0.175028 -0.408497 0.201048
v 0.220942 -0.370741 0.195882
v 0.258649 -0.324696 0.191586
v 0.286699 -0.272132 0.188325
v 0.304013 -0.215069 0.186224
v 0.309928 -0.155700 0.185363
v -0.295864 -0.154648 0.191998
v -0.289937 -0.095274 0.192284
v -0.155251 0.974203 0.238954
v -0.339854 0.853271 0.224969
v -0.526462 0.726215 0.210703
v -0.693272 0.560046 0.197599
v -0.819533 0.401798 0.187256
v -0.911885 0.229038 0.179857
v -0.968892 0.041524 0.175605
v -0.988364 -0.153538 0.174665
v -0.969554 -0.348653 0.177072
v -0.913183 -0.536322 0.182735
v -0.821417 -0.709333 0.191436
v -0.697784 -0.861038 0.202839
v -0.547035 -0.985606 0.216508
v -0.374962 -1.078251 0.231916
v -0.188179 -1.135411 0.248471
v -0.149138 0.974040 0.206365
v -0.325389 0.860675 0.157312
v -0.506652 0.726457 0.107000
v -0.667633 0.560034 0.061788
v -0.789487 0.401144 0.027054
v -0.878500 0.228312 0.001849
v -0.933451 0.040753 -0.013366
v -0.952229 -0.154324 -0.018009
v -0.934113 -0.349424 -0.011899
v -0.879798 -0.537048 0.004728
v -0.791372 -0.709987 0.031234
v -0.672233 -0.861594 0.066599
v -0.526959 -0.986043 0.109464
v -0.361134 -1.078551 0.158183
v -0.181129 -1.135565 0.210883
v -0.136204 0.977002 0.175758
v -0.296455 0.877296 0.094714
v -0.464086 0.737607 0.010467
v -0.616009 0.559995 -0.066385
v -0.728765 0.400472 -0.124208
v -0.811029 0.227565 -0.166224
v -0.861824 0.039961 -0.191792
v -0.879199 -0.155132 -0.199930
v -0.862486 -0.350217 -0.190325
v -0.812327 -0.537795 -0.163345
v -0.730650 -0.710659 -0.120029
v -0.620593 -0.862165 -0.062039
v -0.486386 -0.986492 0.008394
v -0.333187 -1.078861 0.088565
v -0.166882 -1.135722 0.175392
v -0.117059 0.984141 0.148617
v -0.256390 0.893655 0.039402
v -0.403422 0.750809 -0.075041
v -0.539252 0.564641 -0.181198
v -0.639700 0.399808 -0.260717
v -0.712065 0.226827 -0.317905
v -0.756765 0.039177 -0.352816
v -0.772081 -0.155932 -0.364108
v -0.757426 -0.351001 -0.351348
v -0.713363 -0.538533 -0.315026
v -0.641584 -0.711323 -0.256538
v -0.544849 -0.862730 -0.178131
v -0.426874 -0.986936 -0.082819
v -0.292194 -1.079167 0.025736
v -0.145984 -1.135878 0.143362
v -0.093284 0.990708 0.125784
v -0.207036 0.901631 -0.006836
v -0.328028 0.763135 -0.146735
v -0.441398 0.571279 -0.278212
v -0.525714 0.399176 -0.377228
v -0.585411 0.226125 -0.447364
v -0.622309 0.038432 -0.490249
v -0.634991 -0.156691 -0.504234
v -0.622971 -0.351746 -0.488782
v -0.586709 -0.539235 -0.444485
v -0.527598 -0.711955 -0.373048
v -0.447912 -0.863267 -0.277215
v -0.350711 -0.987358 -0.160668
v -0.239732 -1.079457 -0.027888
v -0.119239 -1.136027 0.116025
v -0.065829 0.996262 0.107979
v -0.150423 0.907927 -0.042682
v -0.241059 0.773543 -0.202439
v -0.326918 0.577592 -0.354148
v -0.391188 0.398602 -0.469262
v -0.435933 0.225487 -0.549627
v -0.463625 0.037754 -0.598811
v -0.473198 -0.157382 -0.614922
v -0.464286 -0.352423 -0.597343
v -0.437231 -0.539873 -0.546748
v -0.393072 -0.712529 -0.465082
v -0.333507 -0.863756 -0.355484
v -0.260824 -0.987742 -0.222164
v -0.177817 -1.079722 -0.070246
v -0.087675 -1.136161 0.094431
v -0.035718 1.000335 0.095722
v -0.088649 0.912451 -0.067249
v -0.145817 0.779648 -0.240677
v -0.200355 0.582472 -0.406556
v -0.241291 0.398107 -0.533283
v -0.269377 0.224937 -0.620764
v -0.286810 0.037170 -0.674329
v -0.292919 -0.157977 -0.691920
v -0.287472 -0.353007 -0.672861
v -0.270675 -0.540423 -0.617885
v -0.243176 -0.713024 -0.529103
v -0.206031 -0.864177 -0.409929
v -0.160666 -0.988072 -0.264941
v -0.108827 -1.079949 -0.099712
v -0.052504 -1.136277 0.079409
v -0.004005 1.002497 0.089339
v -0.023791 0.914760 -0.080014
v -0.045595 0.781951 -0.260562
v -0.066420 0.585041 -0.433887
v -0.081785 0.397710 -0.566830
v -0.092143 0.224496 -0.658040
v -0.098659 0.036702 -0.713901
v -0.101083 -0.158455 -0.732267
v -0.099321 -0.353475 -0.712433
v -0.093441 -0.540864 -0.655161
v -0.083670 -0.713421 -0.562651
v -0.070382 -0.864514 -0.438459
v -0.054088 -0.988337 -0.287357
v -0.035414 -1.080132 -0.115152
v -0.015079 -1.136370 0.071538
v 0.028250 1.002447 0.088987
v 0.042128 0.914591 -0.080733
v 0.056368 0.781664 -0.261674
v 0.070139 0.584814 -0.435379
v 0.081201 0.397427 -0.568615
v 0.088957 0.224182 -0.660023
v 0.093596 0.036368 -0.716006
v 0.094939 -0.158795 -0.734414
v 0.092935 -0.353809 -0.714539
v 0.087659 -0.541179 -0.657144
v 0.079317 -0.713704 -0.564436
v 0.068227 -0.864755 -0.439977
v 0.054816 -0.988527 -0.288549
v 0.039600 -1.080262 -0.115974
v 0.023163 -1.136437 0.071119
v 0.059999 1.000181 0.094676
v 0.107110 0.911940 -0.069384
v 0.156870 0.778802 -0.243980
v 0.204569 0.581800 -0.410982
v 0.241404 0.397268 -0.538569
v 0.266966 0.224005 -0.626637
v 0.282569 0.036181 -0.680564
v 0.287614 -0.158986 -0.698277
v 0.281907 -0.353996 -0.679097
v 0.265668 -0.541355 -0.623759
v 0.239520 -0.713863 -0.534389
v 0.204469 -0.864890 -0.414425
v 0.161861 -0.988633 -0.268473
v 0.113334 -1.080335 -0.102145
v 0.060752 -1.136474 0.078169
v 0.090189 0.995991 0.106275
v 0.169137 0.907066 -0.046169
v 0.252679 0.772194 -0.207830
v 0.332118 0.576493 -0.361354
v 0.392668 0.397240 -0.477846
v 0.435041 0.223974 -0.559166
v 0.460996 0.036148 -0.608937
v 0.469537 -0.159020 -0.625247
v 0.460334 -0.354029 -0.607469
v 0.433742 -0.541386 -0.556287
v 0.390783 -0.713891 -0.473667
v 0.333108 -0.864914 -0.362784
v 0.262932 -0.988651 -0.227899
v 0.182952 -1.080348 -0.074197
v 0.096243 -1.136481 0.092416
v 0.006137 -1.154892 0.265538
v 0.117773 0.990310 0.123477
v 0.226147 0.900420 -0.011566
v 0.340507 0.761290 -0.154038
v 0.448065 0.569786 -0.287942
v 0.529178 0.397344 -0.388781
v 0.586723 0.224089 -0.460201
v 0.622021 0.036270 -0.503877
v 0.633716 -0.158895 -0.518128
v 0.621360 -0.353907 -0.502409
v 0.585425 -0.541271 -0.457323
v 0.527294 -0.713787 -0.384601
v 0.449200 -0.864826 -0.287040
v 0.354145 -0.988582 -0.168388
v 0.245781 -1.080301 -0.033205
v 0.128273 -1.136456 0.113314
v 0.141734 0.983608 0.145787
v 0.276051 0.892172 0.033584
v 0.417055 0.748527 -0.084010
v 0.547845 0.562803 -0.193095
v 0.645690 0.397575 -0.274795
v 0.716184 0.224346 -0.333547
v 0.759456 0.036543 -0.369421
v 0.773844 -0.158617 -0.381038
v 0.758795 -0.353634 -0.367953
v 0.714886 -0.541015 -0.330668
v 0.643806 -0.713556 -0.270615
v 0.548285 -0.864629 -0.190103
v 0.431996 -0.988428 -0.092225
v 0.299406 -1.080194 0.019257
v 0.155611 -1.136402 0.140059
v 0.161123 0.976337 0.172505
v 0.316819 0.875474 0.088007
v 0.479152 0.734972 0.000149
v 0.626983 0.557835 -0.079998
v 0.737726 0.397925 -0.140269
v 0.818448 0.224735 -0.184070
v 0.868020 0.036956 -0.210737
v 0.884534 -0.158196 -0.219245
v 0.867358 -0.353222 -0.209269
v 0.817150 -0.540626 -0.181191
v 0.735841 -0.713206 -0.136089
v 0.626555 -0.864332 -0.075698
v 0.493492 -0.988194 -0.002337
v 0.341765 -1.080033 0.081173
v 0.177205 -1.136320 0.171623
v 0.174566 0.973235 0.202819
v 0.346603 0.858557 0.149958
v 0.523487 0.723478 0.095718
v 0.681392 0.557690 0.047014
v 0.801748 0.398380 0.009627
v 0.889586 0.225241 -0.017514
v 0.943539 0.037493 -0.033923
v 0.961533 -0.157649 -0.038967
v 0.942877 -0.352685 -0.032455
v 0.888288 -0.540120 -0.014636
v 0.799863 -0.712751 0.013807
v 0.681002 -0.863945 0.051778
v 0.536270 -0.987890 0.097820
v 0.371231 -1.079824 0.150162
v 0.192227 -1.136213 0.206794
v 0.181391 0.973365 0.235268
v 0.362320 0.850875 0.217279
v 0.545530 0.723132 0.198963
v 0.709987 0.557608 0.182231
v 0.835297 0.398923 0.169133
v 0.926863 0.225844 0.159719
v 0.983112 0.038133 0.154227
v 1.001881 -0.156996 0.152868
v 0.982451 -0.352044 0.155695
v 0.925565 -0.539516 0.162598
v 0.833412 -0.712208 0.173312
v 0.709533 -0.863483 0.187426
v 0.558687 -0.987527 0.204398
v 0.386672 -1.079574 0.223575
v 0.200099 -1.136086 0.244219
v -0.272231 -0.034797 0.193614
v -0.300766 -0.156322 -0.255332
v -0.295041 -0.215711 -0.254599
v -0.242507 0.034789 0.196034
v -0.277883 -0.272834 -0.252875
v -0.249951 -0.325495 -0.250227
v -0.202662 0.107887 0.199384
v -0.212319 -0.371671 -0.246756
v -0.166434 -0.409587 -0.242595
v -0.155195 0.176728 0.203443
v -0.114059 -0.437786 -0.237905
v 0.118532 0.130814 -0.241466
v 0.170935 0.097050 -0.248009
v -0.102650 0.233357 0.207982
v 0.216771 0.058040 -0.253066
v 0.254321 0.011837 -0.257015
v -0.047242 0.269653 0.212799
v 0.282192 -0.040845 -0.259881
v 0.299313 -0.097981 -0.261552
v 0.305026 -0.157374 -0.261966
v 0.304215 -0.096306 0.185777
v 0.014589 1.018540 0.307454
v -0.154640 0.970890 0.295269
v 0.009986 0.278192 0.279556
v -0.046569 0.266039 0.274797
v 0.009986 0.278192 0.279556
v 0.066240 0.265819 0.273562
v 0.182002 0.970052 0.291582
v 0.014589 1.018540 0.307454
v 0.046746 2.602387 0.232693
v -0.043168 2.589070 0.217458
v 0.046746 2.602387 0.232693
v 0.136109 2.591579 0.215699
v 0.047345 2.599192 0.287359
v -0.042563 2.585830 0.272683
v 0.047345 2.599192 0.287359
v 0.136714 2.588340 0.270915
v 0.012679 1.019739 0.124456
v -0.156607 0.972232 0.106751
v 0.012679 1.019739 0.124456
v 0.180034 0.971395 0.103064
v 0.045429 2.600391 0.104361
v -0.044498 2.587084 0.087812
v 0.045429 2.600391 0.104361
v 0.134779 2.589593 0.086075
v 0.044957 2.737324 0.235596
v -0.044975 2.725354 0.220391
v 0.044957 2.737324 0.235596
v 0.134302 2.727840 0.218631
v 0.045556 2.734129 0.290262
v -0.044370 2.722115 0.275616
v 0.045556 2.734129 0.290262
v 0.134907 2.724602 0.273847
v 0.043640 2.735328 0.107264
v -0.046305 2.723368 0.090745
v 0.043640 2.735328 0.107264
v 0.132972 2.725854 0.089008
v 0.041759 3.005684 0.262543
v -0.109372 2.997950 0.237791
v 0.041759 3.005684 0.262543
v 0.191829 3.001965 0.234828
v 0.042749 3.000399 0.352977
v -0.108356 2.992457 0.330585
v 0.042749 3.000399 0.352977
v 0.192845 2.996475 0.327584
v 0.039580 3.002383 0.050241
v -0.111608 2.994765 0.019948
v 0.039580 3.002383 0.050241
v 0.189594 2.998777 0.017076
v 0.043968 3.670051 0.265724
v -0.103421 3.641101 0.240647
v 0.043968 3.670051 0.265724
v 0.190182 3.645307 0.237764
v 0.044959 3.664766 0.356158
v -0.102430 3.635816 0.331081
v 0.044959 3.664766 0.356158
v 0.191173 3.640022 0.328198
v 0.041789 3.666750 0.053422
v -0.105600 3.637800 0.028345
v 0.041789 3.666750 0.053422
v 0.188003 3.642006 0.025461
v 0.043556 3.546279 0.265131
v 0.043115 3.413405 0.264495
v 0.042673 3.280532 0.263859
v 0.042231 3.147658 0.263223
v 0.043221 3.142373 0.353657
v 0.043663 3.275246 0.354293
v 0.044105 3.408120 0.354929
v 0.044547 3.540994 0.355565
v 0.192258 3.147243 0.235522
v 0.192711 3.283458 0.236174
v 0.193164 3.419686 0.236826
v 0.192482 3.543301 0.237388
v 0.193491 3.537936 0.329435
v 0.194180 3.414195 0.329548
v 0.193727 3.277968 0.328896
v 0.193273 3.141754 0.328244
v 0.190024 3.144052 0.017848
v 0.190477 3.280265 0.018500
v 0.190930 3.416494 0.019153
v 0.190265 3.539961 0.021298
v 0.040052 3.144357 0.050920
v 0.040494 3.277230 0.051557
v 0.040936 3.410104 0.052193
v 0.041378 3.542977 0.052829
v 0.192374 3.151500 0.185967
v 0.192839 3.288536 0.185507
v 0.193305 3.425638 0.185047
v 0.192288 3.546511 0.184972
v 0.190676 3.144364 0.070537
v 0.191107 3.280504 0.070094
v 0.191538 3.416647 0.069651
v 0.191221 3.543209 0.069964
v -0.108919 3.134193 0.238444
v -0.108465 3.270451 0.239097
v -0.108012 3.406723 0.239750
v -0.106743 3.532712 0.240316
v -0.108966 3.529368 0.023696
v -0.110248 3.403538 0.021906
v -0.110701 3.267265 0.021254
v -0.111155 3.131008 0.020601
v 0.041347 3.533876 0.052785
v 0.040905 3.401003 0.052149
v 0.040463 3.268130 0.051513
v 0.040022 3.135256 0.050877
v 0.043191 3.133272 0.353613
v 0.043633 3.266146 0.354249
v 0.044075 3.399019 0.354885
v 0.044517 3.531893 0.355522
v -0.105732 3.527337 0.332589
v -0.106996 3.401228 0.332544
v -0.107449 3.264956 0.331891
v -0.107902 3.128699 0.331238
v 0.043526 3.537178 0.265088
v 0.043084 3.404305 0.264452
v 0.042642 3.271431 0.263815
v 0.042200 3.138558 0.263179
v -0.110155 3.138055 0.191837
v -0.109734 3.275061 0.191445
v -0.109313 3.412129 0.191053
v -0.107744 3.535461 0.190929
v -0.108664 3.532142 0.069600
v -0.109595 3.403386 0.069465
v -0.110041 3.267215 0.069844
v -0.110488 3.131049 0.070223
v 0.369830 3.246885 0.157005
v 0.370531 3.332644 0.156635
v 0.366737 3.507598 0.154803
v 0.360082 3.559819 0.156019
v 0.367731 3.239373 0.085106
v 0.368351 3.324467 0.084677
v 0.365859 3.504111 0.087411
v 0.359232 3.556577 0.090037
v -0.294287 3.232690 0.167286
v -0.294632 3.325348 0.166915
v -0.290024 3.499960 0.161986
v -0.282827 3.551641 0.163102
v -0.283050 3.548076 0.093918
v -0.290252 3.496203 0.091304
v -0.293776 3.317244 0.085637
v -0.293497 3.225220 0.086136
v 0.013582 0.847591 0.242615
v -0.119214 0.810305 0.231444
v 0.796104 -0.156610 0.162532
v -0.119214 0.810305 0.231444
v -0.259466 0.725697 0.220258
v 0.781218 -0.001847 0.163610
v -0.295916 -0.887288 0.225227
v 0.736605 0.147032 0.167965
v -0.432392 -0.813808 0.213006
v 0.663668 0.285631 0.175457
v -0.551956 -0.715009 0.202165
v 0.556212 0.452314 0.186460
v -0.650014 -0.594687 0.193121
v 0.423614 0.610026 0.199949
v -0.722796 -0.457467 0.186220
v 0.282658 0.724079 0.214321
v -0.767506 -0.308620 0.181729
v 0.160184 -0.933159 0.234985
v 0.145094 0.809706 0.228549
v -0.782425 -0.153868 0.179819
v 0.308162 -0.888337 0.218611
v -0.147772 -0.932624 0.238358
v 0.006347 -0.948074 0.251894
v -0.766981 0.000842 0.180565
v 0.444592 -0.815332 0.203402
v 0.013582 0.847591 0.242615
v -0.721766 0.149566 0.183937
v 0.564233 -0.716948 0.189941
v -0.648177 0.287910 0.189824
v 0.662486 -0.596967 0.178747
v -0.539015 0.454217 0.198455
v 0.735576 -0.460000 0.170249
v -0.403604 0.612406 0.209008
v 0.780693 -0.311310 0.164774
v 0.014175 0.844396 0.297281
v -0.118610 0.807034 0.287190
v 0.145699 0.806436 0.284295
v 0.014175 0.844396 0.297281
v 0.160738 -0.929858 0.285034
v 0.200653 -1.132785 0.294268
v -0.147218 -0.929323 0.288406
v -0.187625 -1.132110 0.298520
v 0.006691 -1.151590 0.315587
v 0.006901 -0.944773 0.301943
v 0.171019 1.340127 0.230824
v 0.171628 1.336831 0.286847
v 0.021312 1.374852 0.248299
v 0.021907 1.371657 0.302965
v 0.169679 1.338246 0.099296
v 0.019995 1.372856 0.119967
v 0.021242 1.371461 0.248342
v 0.021837 1.368266 0.303008
v -0.129960 1.336721 0.234119
v -0.129351 1.333426 0.290152
v 0.019925 1.369453 0.120008
v -0.131334 1.334795 0.102561
vn -0.7740 -0.6322 0.0370
vn -0.0576 0.0588 0.9966
vn 0.9597 -0.2808 -0.0081
vn -0.8835 -0.4682 0.0144
vn -0.7734 0.6339 0.0061
vn -0.2899 0.9570 -0.0004
vn 0.0523 -0.0220 0.9984
vn -0.4716 0.8818 0.0019
vn 0.6375 0.7704 -0.0099
vn -0.9578 -0.2873 0.0116
vn -0.1263 -0.9604 0.2485
vn 0.5241 -0.8271 0.2031
vn 0.4746 0.8801 -0.0085
vn -0.9953 -0.0958 0.0113
vn -0.0475 0.0520 0.9975
vn -0.3552 -0.9110 0.2096
vn 0.0796 0.0585 0.9951
vn -0.0968 0.9953 -0.0027
vn 0.7204 -0.6795 0.1390
vn 0.9950 -0.0993 -0.0105
vn -0.9950 0.0993 0.0105
vn 0.2932 0.9560 -0.0068
vn -0.6402 -0.7634 0.0864
vn -0.0808 0.0657 0.9946
vn 0.8183 -0.5690 0.0817
vn -0.0274 -0.0143 0.9995
vn 0.1823 -0.9512 0.2491
vn 0.0547 -0.0283 0.9981
vn 0.0695 0.0518 0.9962
vn 0.0017 1.0000 -0.0038
vn -0.0314 -0.0258 0.9992
vn -0.0388 0.0434 0.9983
vn 0.0608 0.0432 0.9972
vn 0.0590 -0.0337 0.9977
vn -0.0321 0.0332 0.9989
vn 0.0668 -0.0389 0.9970
vn -0.0274 0.0219 0.9994
vn -0.0335 -0.0299 0.9990
vn 0.1028 0.0654 0.9926
vn 0.0540 0.0331 0.9980
vn 0.0800 -0.0443 0.9958
vn -0.0378 -0.0343 0.9987
vn -0.0250 0.0099 0.9996
vn 0.0909 0.0631 0.9939
vn 0.2144 -0.9750 -0.0592
vn -0.6266 -0.7709 -0.1144
vn -0.8669 0.4705 -0.1645
vn -0.4666 -0.8805 -0.0839
vn -0.9404 0.2899 -0.1776
vn -0.2882 -0.9563 -0.0501
vn -0.9780 0.0985 -0.1838
vn -0.2658 0.9625 -0.0546
vn -0.0985 -0.9950 -0.0144
vn -0.9783 -0.0966 -0.1831
vn -0.5465 0.8371 -0.0252
vn -0.9414 -0.2881 -0.1754
vn -0.5543 0.8258 -0.1040
vn -0.8685 -0.4688 -0.1610
vn -0.6945 0.7075 -0.1312
vn -0.7623 -0.6318 -0.1404
vn -0.7685 0.6228 -0.1467
vn -0.5361 0.8438 -0.0238
vn -0.8889 -0.2888 -0.3556
vn -0.5603 0.8140 -0.1530
vn -0.8201 -0.4695 -0.3271
vn -0.6562 0.7067 -0.2645
vn -0.7198 -0.6324 -0.2862
vn -0.7262 0.6213 -0.2943
vn -0.5917 -0.7714 -0.2341
vn -0.8185 0.4698 -0.3307
vn -0.4406 -0.8809 -0.1730
vn -0.8879 0.2892 -0.3577
vn -0.2722 -0.9565 -0.1050
vn -0.9234 0.0977 -0.3711
vn -0.2745 0.9613 -0.0230
vn -0.0931 -0.9951 -0.0329
vn -0.9238 -0.0974 -0.3704
vn -0.7386 0.4691 -0.4842
vn -0.3978 -0.8813 -0.2552
vn -0.8013 0.2884 -0.5242
vn -0.2458 -0.9567 -0.1557
vn -0.8333 0.0969 -0.5442
vn -0.3026 0.9524 0.0370
vn -0.0842 -0.9952 -0.0501
vn -0.8337 -0.0982 -0.5435
vn -0.4894 0.8665 -0.0982
vn -0.8023 -0.2896 -0.5220
vn -0.5386 0.8020 -0.2582
vn -0.7402 -0.4702 -0.4807
vn -0.6139 0.6906 -0.3825
vn -0.6497 -0.6330 -0.4208
vn -0.6559 0.6198 -0.4309
vn -0.5341 -0.7719 -0.3447
vn -0.6848 -0.2904 -0.6684
vn -0.4824 0.7936 -0.3708
vn -0.6319 -0.4709 -0.6156
vn -0.5401 0.6782 -0.4983
vn -0.5547 -0.6337 -0.5392
vn -0.5640 0.6114 -0.5551
vn -0.4561 -0.7724 -0.4420
vn -0.6303 0.4684 -0.6192
vn -0.3397 -0.8816 -0.3276
vn -0.6838 0.2876 -0.6706
vn -0.2100 -0.9570 -0.2003
vn -0.7112 0.0961 -0.6963
vn -0.2714 0.9624 -0.0058
vn -0.0721 -0.9953 -0.0651
vn -0.7116 -0.0990 -0.6956
vn -0.3802 0.8899 -0.2523
vn -0.2687 -0.8820 -0.3872
vn -0.5401 0.2869 -0.7912
vn -0.1663 -0.9572 -0.2370
vn -0.5618 0.0954 -0.8218
vn -0.2267 0.9729 -0.0462
vn -0.0573 -0.9953 -0.0775
vn -0.5621 -0.0997 -0.8210
vn -0.3097 0.8907 -0.3327
vn -0.5410 -0.2911 -0.7890
vn -0.3883 0.8005 -0.4566
vn -0.4993 -0.4715 -0.7269
vn -0.4358 0.6696 -0.6014
vn -0.4384 -0.6342 -0.6368
vn -0.4497 0.6006 -0.6611
vn -0.3605 -0.7729 -0.5222
vn -0.4977 0.4677 -0.7304
vn -0.3476 -0.4721 -0.8101
vn -0.3080 0.6631 -0.6822
vn -0.3053 -0.6347 -0.7099
vn -0.3152 0.5908 -0.7427
vn -0.2512 -0.7733 -0.5822
vn -0.3460 0.4672 -0.8137
vn -0.1873 -0.8823 -0.4318
vn -0.3755 0.2863 -0.8815
vn -0.1161 -0.9574 -0.2645
vn -0.3907 0.0948 -0.9156
vn -0.1661 0.9828 -0.0813
vn -0.0404 -0.9954 -0.0868
vn -0.3911 -0.1003 -0.9149
vn -0.2230 0.8904 -0.3968
vn -0.3765 -0.2917 -0.8793
vn -0.2640 0.8067 -0.5288
vn -0.0616 -0.9575 -0.2817
vn -0.2047 0.0942 -0.9743
vn -0.0890 0.9903 -0.1068
vn -0.0220 -0.9955 -0.0926
vn -0.2050 -0.1009 -0.9735
vn -0.1185 0.8895 -0.4412
vn -0.1975 -0.2922 -0.9357
vn -0.1326 0.8076 -0.5747
vn -0.1825 -0.4726 -0.8622
vn -0.1622 0.6611 -0.7325
vn -0.1605 -0.6351 -0.7555
vn -0.1658 0.5834 -0.7951
vn -0.1323 -0.7736 -0.6197
vn -0.1809 0.4667 -0.8657
vn -0.0989 -0.8825 -0.4597
vn -0.1966 0.2858 -0.9379
vn -0.0071 0.6611 -0.7502
vn -0.0096 -0.6355 -0.7721
vn -0.0079 0.5792 -0.8152
vn -0.0083 -0.7739 -0.6333
vn -0.0089 0.4663 -0.8846
vn -0.0067 -0.8827 -0.4698
vn -0.0100 0.2854 -0.9584
vn -0.0048 -0.9576 -0.2880
vn -0.0107 0.0938 -0.9955
vn 0.0003 0.9931 -0.1169
vn -0.0028 -0.9955 -0.0947
vn -0.0111 -0.1013 -0.9948
vn -0.0027 0.8880 -0.4597
vn -0.0110 -0.2926 -0.9562
vn -0.0042 0.8058 -0.5922
vn -0.0105 -0.4729 -0.8810
vn 0.1836 0.0936 -0.9785
vn 0.0901 0.9900 -0.1087
vn 0.0165 -0.9955 -0.0931
vn 0.1833 -0.1015 -0.9778
vn 0.1140 0.8882 -0.4450
vn 0.1760 -0.2928 -0.9398
vn 0.1249 0.8058 -0.5789
vn 0.1619 -0.4732 -0.8660
vn 0.1484 0.6601 -0.7363
vn 0.1417 -0.6357 -0.7589
vn 0.1504 0.5824 -0.7989
vn 0.1160 -0.7741 -0.6224
vn 0.1635 0.4661 -0.8695
vn 0.0857 -0.8829 -0.4617
vn 0.1770 0.2852 -0.9420
vn 0.0521 -0.9577 -0.2830
vn 0.2875 -0.6357 -0.7164
vn 0.3011 0.5891 -0.7499
vn 0.2357 -0.7741 -0.5875
vn 0.3297 0.4660 -0.8211
vn 0.1748 -0.8829 -0.4358
vn 0.3571 0.2851 -0.8895
vn 0.1070 -0.9577 -0.2670
vn 0.3709 0.0934 -0.9239
vn 0.1688 0.9820 -0.0847
vn 0.0350 -0.9955 -0.0877
vn 0.3706 -0.1017 -0.9232
vn 0.2208 0.8879 -0.4036
vn 0.3561 -0.2929 -0.8873
vn 0.2580 0.8033 -0.5368
vn 0.3281 -0.4733 -0.8175
vn 0.2958 0.6610 -0.6896
vn 0.2315 0.9715 -0.0503
vn 0.0521 -0.9955 -0.0787
vn 0.5437 -0.1016 -0.8331
vn 0.3106 0.8872 -0.3413
vn 0.5226 -0.2929 -0.8007
vn 0.3852 0.7955 -0.4677
vn 0.4816 -0.4732 -0.7376
vn 0.4258 0.6668 -0.6116
vn 0.4221 -0.6357 -0.6463
vn 0.4375 0.5983 -0.6713
vn 0.3463 -0.7741 -0.5299
vn 0.4832 0.4660 -0.7412
vn 0.2571 -0.8829 -0.3930
vn 0.5236 0.2851 -0.8028
vn 0.1577 -0.9577 -0.2406
vn 0.5440 0.0935 -0.8339
vn 0.5541 0.6088 -0.5677
vn 0.4436 -0.7740 -0.4519
vn 0.6182 0.4662 -0.6328
vn 0.3294 -0.8828 -0.3349
vn 0.6700 0.2853 -0.6854
vn 0.2023 -0.9577 -0.2048
vn 0.6961 0.0937 -0.7118
vn 0.2781 0.9605 -0.0102
vn 0.0672 -0.9955 -0.0667
vn 0.6958 -0.1014 -0.7110
vn 0.3837 0.8854 -0.2623
vn 0.6690 -0.2927 -0.6832
vn 0.4823 0.7875 -0.3837
vn 0.6166 -0.4730 -0.6293
vn 0.5326 0.6750 -0.5106
vn 0.5406 -0.6356 -0.5512
vn 0.8212 -0.1011 -0.5616
vn 0.4981 0.8602 -0.1091
vn 0.7896 -0.2924 -0.5395
vn 0.5416 0.7956 -0.2715
vn 0.7279 -0.4727 -0.4967
vn 0.6089 0.6873 -0.3959
vn 0.6382 -0.6353 -0.4349
vn 0.6487 0.6171 -0.4454
vn 0.5238 -0.7737 -0.3563
vn 0.7295 0.4665 -0.5003
vn 0.3890 -0.8826 -0.2639
vn 0.7906 0.2856 -0.5416
vn 0.2390 -0.9576 -0.1610
vn 0.8216 0.0940 -0.5623
vn 0.3110 0.9498 0.0328
vn 0.0796 -0.9955 -0.0519
vn 0.5838 -0.7734 -0.2470
vn 0.8127 0.4669 -0.3485
vn 0.4336 -0.8824 -0.1825
vn 0.8809 0.2861 -0.3771
vn 0.2665 -0.9574 -0.1109
vn 0.9154 0.0945 -0.3913
vn 0.2814 0.9592 -0.0266
vn 0.0889 -0.9954 -0.0349
vn 0.9151 -0.1006 -0.3905
vn 0.5470 0.8364 -0.0345
vn 0.8799 -0.2919 -0.3749
vn 0.5660 0.8076 -0.1655
vn 0.8111 -0.4723 -0.3450
vn 0.6531 0.7040 -0.2790
vn 0.7112 -0.6349 -0.3018
vn 0.7221 0.6183 -0.3103
vn 0.9363 -0.2913 -0.1959
vn 0.5601 0.8201 -0.1168
vn 0.8632 -0.4718 -0.1799
vn 0.6943 0.7046 -0.1464
vn 0.7569 -0.6344 -0.1570
vn 0.7676 0.6197 -0.1636
vn 0.6213 -0.7730 -0.1280
vn 0.8648 0.4675 -0.1835
vn 0.4615 -0.8821 -0.0941
vn 0.9373 0.2867 -0.1981
vn 0.2837 -0.9573 -0.0564
vn 0.9741 0.0951 -0.2052
vn 0.2712 0.9606 -0.0609
vn 0.0947 -0.9954 -0.0165
vn 0.9738 -0.1000 -0.2045
vn 0.5578 0.8292 -0.0356
vn 0.0493 0.0218 0.9985
vn -0.0467 -0.0397 0.9981
vn 0.9953 0.0958 -0.0113
vn 0.8768 -0.4796 0.0351
vn 0.0469 0.0098 0.9989
vn 0.1002 0.9950 -0.0048
vn 0.0911 0.0155 0.9957
vn 0.0469 -0.0024 0.9989
vn -0.0544 -0.0417 0.9976
vn -0.9999 0.0070 0.0113
vn -0.5223 -0.8396 0.1496
vn -0.0250 -0.0023 0.9997
vn 0.9578 0.2873 -0.0116
vn 0.9195 -0.3930 0.0053
vn -0.8820 0.4712 0.0079
vn 0.8836 0.4681 -0.0114
vn -0.9568 0.2907 0.0094
vn -0.6349 0.7726 0.0041
vn -0.0689 0.0634 0.9956
vn 0.7755 0.6312 -0.0109
vn 0.0492 -0.0141 0.9987
vn 0.0984 -0.0342 0.9946
vn -0.0671 -0.0307 0.9973
vn 0.9996 0.0278 -0.0092
vn 0.9997 -0.0209 -0.0121
vn 0.9762 -0.2156 -0.0232
vn -0.9912 -0.1321 0.0030
vn -0.2200 -0.9740 -0.0543
vn 0.9999 -0.0017 -0.0110
vn 0.9999 0.0135 -0.0105
vn 0.1787 -0.0188 0.9837
vn 0.2694 -0.9629 0.0122
vn -0.9975 0.0693 0.0150
vn -0.0893 0.0201 0.9958
vn -0.9997 0.0209 0.0122
vn 0.1820 0.0087 0.9833
vn 0.1833 -0.0163 -0.9829
vn -0.1400 -0.0144 -0.9900
vn -0.2755 -0.9612 0.0171
vn -0.9976 0.0693 0.0094
vn -0.9999 -0.0135 0.0102
vn 0.9995 0.0281 -0.0106
vn 0.9997 -0.0208 -0.0099
vn -0.9997 0.0208 0.0099
vn 0.9787 -0.2050 -0.0069
vn 0.9787 -0.2041 -0.0228
vn 0.2028 -0.2015 -0.9583
vn -0.9730 -0.2306 0.0134
vn 0.9999 0.0135 -0.0102
vn -0.9999 -0.0135 0.0105
vn 0.1776 0.0235 -0.9838
vn -0.1577 -0.0233 0.9872
vn -0.1983 0.0185 -0.9800
vn 0.9997 0.0226 -0.0096
vn 0.1669 0.0042 -0.9860
vn -0.9995 0.0306 0.0098
vn -0.9999 0.0033 0.0111
vn -0.1270 -0.2264 0.9657
vn -0.2159 -0.2067 -0.9543
vn -0.9732 -0.2297 -0.0028
vn -0.9999 -0.0130 0.0105
vn 0.1568 -0.2249 0.9617
vn 0.9999 0.0130 -0.0105
vn 0.9999 0.0129 -0.0102
vn -0.9999 -0.0129 0.0102
vn 0.1769 0.9827 0.0555
vn -0.2021 0.9776 0.0593
vn -0.1905 0.9816 -0.0133
vn 0.1637 0.9864 -0.0170
vn 0.9997 0.0226 -0.0106
vn -0.1514 0.0183 0.9883
vn -0.2064 0.0353 -0.9778
vn -0.9995 0.0306 0.0127
vn -0.9999 0.0033 0.0102
vn 0.1870 -0.0053 0.9824
vn 0.9999 -0.0033 -0.0102
vn 0.9999 -0.0033 -0.0111
vn 0.1670 -0.0053 0.9859
vn -0.2157 0.0058 -0.9764
vn -0.2153 0.0054 -0.9765
vn -0.2068 0.0159 -0.9782
vn 0.9999 -0.0029 -0.0102
vn 0.9999 -0.0033 -0.0124
vn -0.9837 0.1799 0.0073
vn 0.9999 -0.0029 -0.0111
vn 0.9999 0.0056 -0.0106
vn 0.1597 0.0030 0.9872
vn 0.0839 -0.0035 -0.9965
vn 0.9990 -0.0429 -0.0120
vn 1.0000 0.0084 -0.0032
vn 1.0000 -0.0034 0.0022
vn 0.9956 -0.0931 -0.0080
vn 0.9934 -0.1146 -0.0075
vn 0.9999 0.0056 -0.0121
vn -0.9999 0.0100 0.0115
vn -0.1464 -0.0043 0.9892
vn -0.1463 0.0011 0.9892
vn 0.9886 0.1501 -0.0131
vn 0.9890 0.1477 -0.0121
vn 0.1963 0.0040 -0.9805
vn 0.1899 0.0041 -0.9818
vn -0.1317 0.0681 -0.9889
vn -0.4533 -0.8898 0.0525
vn 0.9826 0.1854 -0.0133
vn -0.9999 0.0033 0.0136
vn -1.0000 0.0072 0.0061
vn -0.9996 0.0099 0.0278
vn -0.9996 0.0032 0.0268
vn 0.9884 0.1511 -0.0116
vn 0.9995 -0.0083 -0.0293
vn 0.9917 0.1268 -0.0190
vn -0.0735 0.9961 -0.0480
vn -0.2353 0.9698 -0.0640
vn 0.1000 0.0027 -0.9950
vn 0.1701 -0.0013 0.9854
vn 0.4327 -0.9006 0.0410
vn 0.4818 -0.8729 0.0771
vn -1.0000 -0.0031 -0.0095
vn -0.9905 0.1377 -0.0041
vn -0.1305 0.0032 0.9914
vn 0.0964 0.9950 -0.0279
vn 0.2727 0.9576 -0.0926
vn -0.0872 -0.0057 -0.9962
vn -0.1574 0.0030 0.9875
vn -0.4498 -0.8908 0.0651
vn 0.9999 -0.0070 -0.0113
vn -0.9767 -0.2147 -0.0020
vn 0.9892 -0.1450 -0.0192
vn -0.0554 -0.0581 0.9968
vn 0.0803 -0.0621 0.9948
vn 0.0493 -0.0145 0.9987
vn -0.9999 0.0017 0.0110
vn -0.0399 -0.0545 0.9977
vn -0.0327 -0.0575 0.9978
vn -0.0267 -0.0437 0.9987
vn 0.0637 -0.0632 0.9960
vn 0.1053 0.9922 -0.0666
vn -0.0283 -0.0332 0.9990
vn 0.0603 -0.0564 0.9966
vn 0.0574 -0.0438 0.9974
vn -0.0320 -0.0257 0.9992
vn 0.0599 -0.0350 0.9976
vn 0.9811 0.1919 -0.0235
vn 0.0539 -0.0256 0.9982
vn -0.9807 0.1953 -0.0020
vn -0.1033 0.9926 -0.0643
vn -0.1053 -0.9922 0.0666
vn 0.1033 -0.9926 0.0643
vn 0.9996 0.0278 -0.0107
vn -0.1307 -0.0139 -0.9913
vn 0.1094 0.0104 0.9939
vn -0.9997 0.0209 0.0121
vn 0.9996 0.0282 -0.0092
vn 0.8666 0.4988 -0.0160
vn -0.0294 -0.0111 -0.9995
vn 0.1102 0.0156 0.9938
vn -0.9975 0.0696 0.0092
vn 0.1180 -0.0151 -0.9929
vn -0.0773 0.0195 0.9968
vn -0.9975 0.0698 0.0149
vn -0.0882 0.0194 0.9959
vn -0.8511 0.5251 0.0012
vn 0.0078 -0.0121 -0.9999
vn -0.8798 -0.4721 0.0555
vn 0.9568 -0.2907 -0.0094
vn -0.9219 -0.3865 0.0260
vn 0.0532 -0.0260 0.9982
vn -0.9609 -0.2766 0.0131
vn -0.1809 -0.9502 0.2538
vn 0.3561 -0.9127 0.2005
vn -0.5243 -0.8236 0.2165
vn 0.5220 -0.8419 0.1367
vn -0.8211 -0.5617 0.1013
vn 0.6392 -0.7657 0.0712
vn -0.0274 -0.0140 0.9995
vn 0.1283 -0.9609 0.2452
vn 0.0554 -0.0302 0.9980
vn -0.0304 -0.0218 0.9993
vn 0.0599 -0.0349 0.9976
vn 0.0688 -0.0406 0.9968
vn -0.0327 -0.0279 0.9991
vn 0.0765 -0.0426 0.9962
vn -0.0371 -0.0333 0.9988
vn 0.2145 -0.9749 -0.0591
vn -0.5181 0.8493 -0.1014
vn -0.5880 0.8080 -0.0373
vn -0.6945 0.7074 -0.1310
vn -0.7695 0.6219 -0.1453
vn -0.4805 0.8689 -0.1190
vn -0.6154 0.7845 -0.0762
vn -0.6902 0.6877 -0.2249
vn -0.7274 0.6204 -0.2932
vn -0.4797 0.8706 -0.1094
vn -0.5967 0.7765 -0.2026
vn -0.6472 0.6746 -0.3550
vn -0.6690 0.6115 -0.4225
vn -0.4782 0.7949 -0.3733
vn -0.5680 0.6665 -0.4828
vn -0.5832 0.6005 -0.5471
vn -0.4410 0.8730 -0.2081
vn -0.3742 0.8762 -0.3037
vn -0.3802 0.8027 -0.4595
vn -0.4593 0.6608 -0.5936
vn -0.4684 0.5907 -0.6570
vn -0.3158 0.6604 -0.6812
vn -0.3298 0.5834 -0.7422
vn -0.2760 0.8806 -0.3852
vn -0.2690 0.8054 -0.5281
vn -0.1491 0.8850 -0.4411
vn -0.1419 0.8055 -0.5754
vn -0.1605 0.6617 -0.7324
vn -0.1736 0.5794 -0.7963
vn -0.0063 0.6614 -0.7500
vn -0.0079 0.5791 -0.8152
vn -0.0037 0.8879 -0.4599
vn -0.0044 0.8057 -0.5923
vn 0.1429 0.8837 -0.4457
vn 0.1341 0.8036 -0.5798
vn 0.1582 0.5784 -0.8003
vn 0.3159 0.5814 -0.7497
vn 0.3706 -0.1016 -0.9232
vn 0.2731 0.8777 -0.3937
vn 0.2637 0.8018 -0.5363
vn 0.3052 0.6577 -0.6887
vn 0.3755 0.8719 -0.3142
vn 0.3782 0.7976 -0.4699
vn 0.4514 0.6570 -0.6039
vn 0.4567 0.5881 -0.6675
vn 0.5741 0.5974 -0.5599
vn 0.4466 0.8675 -0.2190
vn 0.4791 0.7886 -0.3855
vn 0.5630 0.6621 -0.4947
vn 0.4886 0.8643 -0.1194
vn 0.6027 0.7682 -0.2158
vn 0.6448 0.6701 -0.3678
vn 0.6626 0.6084 -0.4369
vn 0.4891 0.8627 -0.1286
vn 0.6242 0.7763 -0.0881
vn 0.6901 0.6835 -0.2379
vn 0.7233 0.6174 -0.3091
vn 0.5969 0.8009 -0.0480
vn 0.6946 0.7044 -0.1459
vn 0.7687 0.6188 -0.1622
vn 0.5265 0.8425 -0.1141
vn -0.0449 -0.0384 0.9983
vn 0.7724 -0.6348 0.0195
vn -0.1074 0.0090 0.9942
vn -0.0991 0.0138 0.9950
vn -0.0871 0.0039 0.9962
vn 0.0090 0.7080 0.7061
vn 0.1089 0.0036 0.9940
vn 0.1210 0.0135 0.9926
vn 0.1294 0.0087 0.9916
vn 0.0081 -0.5589 0.8292
vn -0.1210 0.0357 0.9920
vn 0.0111 0.2339 0.9722
vn 0.1125 0.0050 0.9936
vn 0.0103 -0.2136 0.9769
vn -0.0998 0.0065 0.9950
vn -0.0284 0.0430 0.9987
vn 0.0582 -0.0310 0.9978
vn -0.0672 -0.0148 0.9976
vn -0.0583 -0.0434 0.9974
vn -0.7225 -0.6734 0.1568
vn 0.8820 -0.4713 -0.0050
vn 0.0492 -0.0145 0.9987
vn 0.0891 -0.0318 0.9955
vn -0.0767 -0.0330 0.9965
vn 0.9996 0.0278 -0.0093
vn 0.9997 -0.0209 -0.0122
vn 0.9762 -0.2156 -0.0233
vn -0.9912 -0.1321 0.0031
vn -0.2199 -0.9740 -0.0544
vn 0.2691 -0.9631 0.0116
vn -0.9975 0.0693 0.0149
vn -0.1634 0.0159 0.9864
vn 0.1106 0.0157 0.9937
vn 0.1191 -0.0199 -0.9927
vn -0.2014 -0.0083 -0.9795
vn -0.2758 -0.9610 0.0178
vn -0.9976 0.0693 0.0092
vn 0.9995 0.0281 -0.0107
vn 0.9788 -0.2049 -0.0070
vn 0.9787 -0.2040 -0.0227
vn 0.2022 -0.2014 -0.9584
vn -0.9729 -0.2307 0.0135
vn 0.1888 0.0362 -0.9813
vn -0.1309 -0.2286 0.9647
vn -0.2169 -0.2070 -0.9540
vn -0.9732 -0.2298 -0.0029
vn 0.1531 -0.2229 0.9627
vn -0.1669 -0.0042 0.9860
vn -0.1870 0.0053 -0.9824
vn 0.1731 0.0159 0.9848
vn 0.1667 -0.0050 0.9860
vn 0.1728 0.0019 0.9849
vn 0.9999 -0.0032 -0.0122
vn -0.9980 0.0620 0.0075
vn 0.1596 0.0028 0.9872
vn 0.0834 -0.0056 -0.9965
vn -0.9938 0.1107 0.0086
vn 1.0000 0.0055 0.0034
vn 1.0000 -0.0033 0.0021
vn -0.9883 -0.1518 0.0126
vn -0.9718 -0.2356 0.0135
vn 0.9998 0.0026 -0.0198
vn -0.1464 -0.0042 0.9892
vn -0.1508 -0.0042 0.9886
vn -0.9915 -0.1298 0.0121
vn -0.9782 -0.2072 0.0132
vn 0.1964 0.0119 -0.9805
vn -0.1190 0.0019 -0.9929
vn -0.4638 -0.8826 0.0767
vn -0.9863 -0.1646 0.0125
vn -0.9999 0.0033 0.0134
vn -0.9999 0.0100 0.0138
vn -0.9997 0.0127 0.0210
vn -0.9996 0.0032 0.0269
vn 0.9966 0.0817 -0.0115
vn 0.9996 -0.0074 -0.0284
vn 0.9918 0.1263 -0.0195
vn -0.0838 0.9961 -0.0278
vn -0.2552 0.9615 -0.1015
vn 0.1134 0.0640 -0.9915
vn 0.1709 0.0021 0.9853
vn 0.4424 -0.8946 0.0629
vn 0.4692 -0.8818 0.0476
vn -0.9999 -0.0038 -0.0102
vn -0.9904 0.1380 -0.0039
vn -0.1306 0.0035 0.9914
vn 0.0837 0.9952 -0.0516
vn 0.2572 0.9643 -0.0629
vn -0.0879 -0.0025 -0.9961
vn -0.1569 0.0005 0.9876
vn -0.4430 -0.8952 0.0490
vn -0.0583 -0.0619 0.9964
vn 0.0775 -0.0583 0.9953
vn -0.0415 -0.0630 0.9971
vn -0.0381 -0.0560 0.9977
vn -0.0353 -0.0433 0.9984
vn 0.0621 -0.0547 0.9966
vn -0.0381 -0.0349 0.9987
vn 0.0549 -0.0578 0.9968
vn 0.0490 -0.0441 0.9978
vn -0.0321 -0.0254 0.9992
vn 0.0503 -0.0334 0.9982
vn 0.0538 -0.0258 0.9982
vn 0.9996 0.0278 -0.0106
vn -0.1390 -0.0097 -0.9902
vn 0.0989 0.0156 0.9950
vn 0.8373 0.5174 -0.1770
vn 0.1091 0.0151 0.9939
vn -0.9975 0.0697 0.0094
vn 0.1093 -0.0191 -0.9938
vn -0.0880 0.0145 0.9960
vn -0.0899 0.0202 0.9958
vn -0.8256 0.5422 -0.1564
vt 0.498323 0.568642
vt 0.578551 0.563766
vt 0.579510 0.572353
vt 0.315006 0.287176
vt 0.227526 0.265036
vt 0.232330 0.255376
vt 0.577347 0.691168
vt 0.496657 0.680816
vt 0.577800 0.680199
vt 0.499082 0.581444
vt 0.580218 0.582063
vt 0.498299 0.633712
vt 0.578442 0.641861
vt 0.497317 0.641861
vt 0.726606 0.258310
vt 0.716030 0.338246
vt 0.716030 0.257530
vt 0.041009 0.267205
vt 0.123889 0.233792
vt 0.126864 0.247177
vt 0.736574 0.258789
vt 0.726606 0.339026
vt 0.668179 0.258102
vt 0.675784 0.338840
vt 0.668179 0.338818
vt 0.499522 0.592523
vt 0.580647 0.592522
vt 0.709503 0.417765
vt 0.698841 0.341390
vt 0.709497 0.340484
vt 0.678937 0.417700
vt 0.688143 0.340484
vt 0.689027 0.417765
vt 0.675784 0.258124
vt 0.684734 0.338568
vt 0.499657 0.603329
vt 0.580782 0.603329
vt 0.322367 0.260021
vt 0.235155 0.244955
vt 0.719416 0.417700
vt 0.719765 0.339895
vt 0.185143 0.379254
vt 0.193198 0.289376
vt 0.213037 0.375771
vt 0.705251 0.337194
vt 0.705251 0.256478
vt 0.669342 0.418200
vt 0.677782 0.339895
vt 0.577197 0.701942
vt 0.496216 0.691168
vt 0.580617 0.614069
vt 0.499492 0.614069
vt 0.684734 0.257852
vt 0.694683 0.338012
vt 0.497295 0.555143
vt 0.577345 0.556440
vt 0.285296 0.334566
vt 0.212789 0.280630
vt 0.220928 0.273563
vt 0.579611 0.654333
vt 0.499533 0.655911
vt 0.580849 0.641861
vt 0.279238 0.131402
vt 0.209647 0.188482
vt 0.256964 0.114085
vt 0.699297 0.418458
vt 0.037318 0.239010
vt 0.122013 0.218841
vt 0.157082 0.377214
vt 0.182492 0.290713
vt 0.359618 0.416729
vt 0.197956 0.181275
vt 0.231575 0.101274
vt 0.324287 0.231925
vt 0.235892 0.234173
vt 0.129933 0.369730
vt 0.171723 0.289930
vt 0.035808 0.203032
vt 0.121698 0.203728
vt 0.320695 0.203968
vt 0.234513 0.223444
vt 0.038969 0.165748
vt 0.123423 0.189883
vt 0.311727 0.177225
vt 0.231072 0.213180
vt 0.184399 0.174607
vt 0.197989 0.088040
vt 0.239694 0.366899
vt 0.264088 0.352980
vt 0.104740 0.357088
vt 0.161305 0.287058
vt 0.047943 0.134061
vt 0.127736 0.178732
vt 0.170159 0.169367
vt 0.161365 0.078756
vt 0.297729 0.152722
vt 0.225700 0.203777
vt 0.203428 0.285972
vt 0.745912 0.476240
vt 0.735642 0.486777
vt 0.735642 0.475540
vt 0.596172 0.568380
vt 0.624361 0.543460
vt 0.615631 0.570491
vt 0.231539 0.444737
vt 0.264945 0.475727
vt 0.232454 0.475566
vt 0.606944 0.601290
vt 0.593540 0.599836
vt 0.233016 0.509270
vt 0.267509 0.509441
vt 0.598633 0.634673
vt 0.591800 0.633931
vt 0.233206 0.544552
vt 0.268374 0.544726
vt 0.668902 0.128278
vt 0.668179 0.096707
vt 0.674863 0.127627
vt 0.591018 0.669357
vt 0.267507 0.580227
vt 0.233014 0.580057
vt 0.683047 0.162224
vt 0.670790 0.164046
vt 0.264942 0.614581
vt 0.232450 0.614420
vt 0.691770 0.198146
vt 0.672812 0.200298
vt 0.231534 0.646321
vt 0.260776 0.646466
vt 0.700499 0.230978
vt 0.675670 0.233734
vt 0.255170 0.674657
vt 0.230302 0.674534
vt 0.230302 0.416729
vt 0.260781 0.444882
vt 0.694448 0.157549
vt 0.295833 0.614941
vt 0.709591 0.191589
vt 0.288577 0.646790
vt 0.724363 0.223441
vt 0.278813 0.674933
vt 0.735988 0.247633
vt 0.707817 0.256478
vt 0.634310 0.576397
vt 0.295836 0.476088
vt 0.619810 0.605358
vt 0.300303 0.509823
vt 0.605192 0.636747
vt 0.301811 0.545116
vt 0.680515 0.125660
vt 0.300301 0.580610
vt 0.288582 0.445206
vt 0.323940 0.476634
vt 0.631646 0.611883
vt 0.330138 0.510403
vt 0.611226 0.640073
vt 0.332230 0.545708
vt 0.685563 0.122447
vt 0.330136 0.581190
vt 0.704718 0.150777
vt 0.323937 0.615488
vt 0.725675 0.181585
vt 0.313870 0.647282
vt 0.746131 0.211109
vt 0.300323 0.675352
vt 0.761951 0.233485
vt 0.670005 0.563033
vt 0.651493 0.585870
vt 0.348174 0.616199
vt 0.739522 0.168758
vt 0.335683 0.647922
vt 0.764992 0.194698
vt 0.686470 0.544251
vt 0.689128 0.579166
vt 0.784708 0.214580
vt 0.666518 0.598545
vt 0.313875 0.445698
vt 0.348177 0.477346
vt 0.641995 0.620614
vt 0.355868 0.511159
vt 0.616502 0.644524
vt 0.358464 0.546478
vt 0.689920 0.118353
vt 0.355866 0.581945
vt 0.713659 0.142373
vt 0.650461 0.631216
vt 0.002215 0.551485
vt 0.036093 0.517382
vt 0.031215 0.551386
vt 0.620818 0.649929
vt 0.000000 0.586882
vt 0.029568 0.586781
vt 0.693449 0.113548
vt 0.031214 0.622208
vt 0.002215 0.622307
vt 0.720877 0.132553
vt 0.036092 0.656305
vt 0.008775 0.656398
vt 0.750711 0.153667
vt 0.019428 0.687845
vt 0.044013 0.687761
vt 0.780328 0.175013
vt 0.708956 0.563221
vt 0.704770 0.598756
vt 0.803384 0.191642
vt 0.678808 0.613937
vt 0.019429 0.486161
vt 0.008776 0.517475
vt 0.066452 0.656240
vt 0.071336 0.687703
vt 0.791649 0.152860
vt 0.727350 0.586257
vt 0.716331 0.621050
vt 0.055413 0.453755
vt 0.071337 0.486019
vt 0.044014 0.486077
vt 0.687891 0.631453
vt 0.066453 0.517318
vt 0.656717 0.643281
vt 0.063445 0.551317
vt 0.624007 0.656080
vt 0.062429 0.586712
vt 0.696050 0.108218
vt 0.063445 0.622140
vt 0.726180 0.121685
vt 0.758969 0.136933
vt 0.625948 0.662740
vt 0.097667 0.551283
vt 0.097322 0.586676
vt 0.697655 0.102557
vt 0.097667 0.622105
vt 0.729451 0.110143
vt 0.098689 0.656208
vt 0.764076 0.119126
vt 0.100348 0.687674
vt 0.798620 0.129082
vt 0.102582 0.715294
vt 0.077909 0.715319
vt 0.078479 0.452747
vt 0.100349 0.485989
vt 0.723365 0.645191
vt 0.693418 0.650421
vt 0.098689 0.517285
vt 0.660524 0.656346
vt 0.106240 0.416729
vt 0.127626 0.452195
vt 0.102838 0.452197
vt 0.127743 0.715294
vt 0.129935 0.485989
vt 0.725603 0.670251
vt 0.695176 0.670110
vt 0.131564 0.517285
vt 0.661735 0.669909
vt 0.132566 0.551283
vt 0.626565 0.669654
vt 0.132905 0.586676
vt 0.698226 0.096758
vt 0.132566 0.622105
vt 0.730619 0.098295
vt 0.131563 0.656208
vt 0.765882 0.100798
vt 0.129934 0.687674
vt 0.166801 0.551317
vt 0.167810 0.586712
vt 0.697744 0.091012
vt 0.625836 0.676557
vt 0.166801 0.622140
vt 0.729648 0.086498
vt 0.163812 0.656240
vt 0.764331 0.082528
vt 0.158957 0.687703
vt 0.142960 0.417267
vt 0.151983 0.452741
vt 0.152425 0.715319
vt 0.158958 0.486019
vt 0.722959 0.695268
vt 0.693099 0.689766
vt 0.163812 0.517318
vt 0.660304 0.683448
vt 0.748737 0.699743
vt 0.715534 0.719280
vt 0.175045 0.453747
vt 0.186303 0.486077
vt 0.687265 0.708632
vt 0.194196 0.517382
vt 0.656286 0.696443
vt 0.199056 0.551386
vt 0.623787 0.683181
vt 0.200697 0.586781
vt 0.696210 0.085502
vt 0.199056 0.622208
vt 0.726538 0.075114
vt 0.194195 0.656305
vt 0.759458 0.064922
vt 0.186302 0.687761
vt 0.798816 0.080070
vt 0.791993 0.056543
vt 0.693656 0.080414
vt 0.620498 0.689274
vt 0.228092 0.622307
vt 0.721334 0.064512
vt 0.221546 0.656398
vt 0.751367 0.048595
vt 0.210917 0.687845
vt 0.780736 0.034806
vt 0.740006 0.727977
vt 0.703613 0.741364
vt 0.195958 0.455048
vt 0.210918 0.486161
vt 0.677899 0.725983
vt 0.221547 0.517475
vt 0.649834 0.708395
vt 0.228092 0.551485
vt 0.230302 0.586882
vt 0.803384 0.024951
vt 0.765375 0.015690
vt 0.784708 0.002422
vt 0.687655 0.760671
vt 0.665361 0.741153
vt 0.379474 0.594144
vt 0.392712 0.625040
vt 0.368541 0.626153
vt 0.641198 0.718844
vt 0.362540 0.660572
vt 0.388200 0.659390
vt 0.616096 0.694601
vt 0.361701 0.696078
vt 0.387864 0.694873
vt 0.690146 0.075928
vt 0.391718 0.730125
vt 0.366058 0.731307
vt 0.714152 0.055076
vt 0.399614 0.763792
vt 0.375442 0.764905
vt 0.740214 0.034112
vt 0.389494 0.795581
vt 0.411248 0.794579
vt 0.725989 0.753945
vt 0.421488 0.728718
vt 0.685781 0.072216
vt 0.705318 0.047321
vt 0.427656 0.762466
vt 0.726307 0.022051
vt 0.436485 0.793386
vt 0.746369 -0.000000
vt 0.707224 0.776648
vt 0.668273 0.776460
vt 0.401228 0.593143
vt 0.434982 0.562456
vt 0.426465 0.591949
vt 0.650132 0.753558
vt 0.420754 0.623714
vt 0.630708 0.727389
vt 0.417969 0.657982
vt 0.610748 0.698957
vt 0.418217 0.693438
vt 0.646211 0.788124
vt 0.632798 0.762722
vt 0.451590 0.622226
vt 0.618769 0.733701
vt 0.450704 0.656402
vt 0.604661 0.702176
vt 0.451593 0.691827
vt 0.680598 0.069443
vt 0.454222 0.727138
vt 0.694961 0.041444
vt 0.458491 0.760978
vt 0.710030 0.012991
vt 0.464236 0.792046
vt 0.464423 0.530958
vt 0.458502 0.561418
vt 0.471235 0.819150
vt 0.447635 0.820289
vt 0.454216 0.590610
vt 0.490935 0.759384
vt 0.683244 0.037846
vt 0.691814 0.007619
vt 0.493434 0.790612
vt 0.483331 0.530157
vt 0.483260 0.560300
vt 0.496066 0.817931
vt 0.483415 0.589176
vt 0.622319 0.795214
vt 0.614026 0.768293
vt 0.484033 0.620632
vt 0.605838 0.737538
vt 0.485145 0.654711
vt 0.598069 0.704132
vt 0.486709 0.690102
vt 0.674867 0.067768
vt 0.488664 0.725446
vt 0.082471 0.339776
vt 0.151636 0.282207
vt 0.156446 0.166469
vt 0.128150 0.077041
vt 0.496213 0.712725
vt 0.496066 0.701942
vt 0.578571 0.667582
vt 0.498331 0.662940
vt 0.063981 0.318458
vt 0.143090 0.275563
vt 0.694683 0.257296
vt 0.311331 0.779000
vt 0.236686 0.756358
vt 0.257415 0.679965
vt 0.130621 0.257977
vt 0.135994 0.267381
vt 0.144438 0.166884
vt 0.098515 0.079171
vt 0.936657 0.614565
vt 0.922733 0.512466
vt 0.932650 0.511920
vt 0.728747 0.418200
vt 0.729249 0.339665
vt 0.218603 0.195595
vt 0.577344 0.712725
vt 0.496650 0.723102
vt 0.497371 0.671285
vt 0.499034 0.624327
vt 0.579424 0.633712
vt 0.577781 0.723102
vt 0.497360 0.732674
vt 0.580159 0.624327
vt 0.745550 0.258949
vt 0.736574 0.339505
vt 0.302489 0.312347
vt 0.578491 0.732674
vt 0.498318 0.741074
vt 0.049981 0.293954
vt 0.975934 0.518717
vt 1.000000 0.614743
vt 0.989765 0.616930
vt 0.796352 0.775610
vt 0.771458 0.871215
vt 0.772383 0.768441
vt 0.480359 0.418037
vt 0.476863 0.191376
vt 0.490536 0.418166
vt 0.896921 0.417228
vt 0.903139 0.194354
vt 0.906838 0.417758
vt 0.484129 0.514234
vt 0.494556 0.484631
vt 0.494256 0.514361
vt 0.822798 0.612005
vt 0.809340 0.514063
vt 0.819452 0.513504
vt 0.709511 0.429003
vt 0.699304 0.429662
vt 0.897972 0.480701
vt 0.906198 0.512849
vt 0.896281 0.512319
vt 0.893221 0.193824
vt 0.870337 0.169808
vt 0.893609 0.169328
vt 0.995680 0.193416
vt 0.979893 0.170562
vt 0.996153 0.168925
vt 0.117137 0.746111
vt 0.094147 0.716546
vt 0.117137 0.715319
vt 0.466832 0.191251
vt 0.442741 0.167963
vt 0.466208 0.166519
vt 0.819351 0.417936
vt 0.813930 0.191772
vt 0.823948 0.191218
vt 0.772531 0.673341
vt 0.787706 0.452555
vt 0.799841 0.680106
vt 0.932112 0.416299
vt 0.926218 0.194288
vt 0.936134 0.193741
vt 0.999035 0.416252
vt 0.979416 0.195293
vt 0.574772 0.413725
vt 0.533028 0.196330
vt 0.548841 0.191738
vt 0.590770 0.413287
vt 0.636697 0.196208
vt 0.617086 0.422597
vt 0.163729 0.716568
vt 0.140738 0.745757
vt 0.140042 0.715319
vt 0.847458 0.191657
vt 0.843208 0.418366
vt 0.813503 0.167034
vt 0.823521 0.166480
vt 0.484326 0.484501
vt 0.456546 0.419478
vt 0.873649 0.417710
vt 0.959407 0.194182
vt 0.955384 0.416740
vt 0.467402 0.116676
vt 0.476239 0.166645
vt 0.484253 0.116896
vt 0.529317 0.171876
vt 0.537901 0.119504
vt 0.545167 0.167525
vt 0.847031 0.166920
vt 0.820217 0.116654
vt 0.859722 0.117366
vt 0.903526 0.169858
vt 0.958984 0.169689
vt 0.925795 0.169795
vt 0.935712 0.169248
vt 0.771458 0.449867
vt 0.788437 0.427825
vt 0.620772 0.192437
vt 0.639184 0.171603
vt 0.463350 0.018499
vt 0.478973 0.000202
vt 0.480072 0.018702
vt 0.525028 0.023901
vt 0.496066 0.008814
vt 0.521809 0.000000
vt 0.820229 0.019647
vt 0.858780 0.000729
vt 0.859511 0.020386
vt 0.931032 0.022454
vt 0.914627 0.000904
vt 0.931032 0.000000
vt 0.772181 0.425382
vt 0.800946 0.378944
vt 0.628139 0.119752
vt 0.655181 0.123461
vt 0.931032 0.120525
vt 0.969532 0.121254
vt 0.969770 0.121148
vt 0.997067 0.120592
vt 0.898221 0.120592
vt 0.914627 0.121469
vt 0.729324 0.355868
vt 0.755267 0.345247
vt 0.755343 0.361451
vt 0.735642 0.445865
vt 0.708473 0.434740
vt 0.735567 0.429662
vt 0.708548 0.450943
vt 0.735567 0.484224
vt 0.708473 0.489302
vt 0.729248 0.394227
vt 0.424110 0.002374
vt 0.462544 0.000000
vt 0.774825 0.280594
vt 0.801747 0.262163
vt 0.802033 0.281861
vt 0.639637 0.022310
vt 0.668179 0.007449
vt 0.666485 0.025891
vt 0.803876 0.000904
vt 0.820280 0.000000
vt 0.969532 0.000729
vt 0.969532 0.023183
vt 0.997316 0.022466
vt 0.970753 0.004339
vt 0.997373 -0.000000
vt 0.898221 0.024118
vt 0.859722 0.000794
vt 0.898221 -0.000000
vt 0.914627 0.000877
vt 0.914627 0.024995
vt 0.969847 0.094778
vt 0.997133 0.094822
vt 0.997194 0.070703
vt 0.969910 0.070053
vt 0.997255 0.046585
vt 0.969972 0.045326
vt 0.969532 0.095498
vt 0.931032 0.094769
vt 0.969532 0.071393
vt 0.931032 0.070664
vt 0.969532 0.047288
vt 0.931032 0.046559
vt 0.658261 0.097274
vt 0.633985 0.070211
vt 0.661158 0.072721
vt 0.636811 0.046260
vt 0.664056 0.048166
vt 0.426910 0.092727
vt 0.466318 0.090328
vt 0.425895 0.068023
vt 0.436454 0.092230
vt 0.465303 0.065624
vt 0.424879 0.043317
vt 0.464288 0.040918
vt 0.358890 0.416729
vt 0.359341 0.447092
vt 0.358890 0.455923
vt 0.914627 0.095673
vt 0.914627 0.071568
vt 0.914627 0.047463
vt 0.914627 0.023358
vt 0.483163 0.090548
vt 0.482148 0.065844
vt 0.481132 0.041138
vt 0.692303 0.533430
vt 0.677224 0.504012
vt 0.692303 0.500144
vt 0.023874 0.748433
vt 0.038841 0.719139
vt 0.047843 0.754445
vt 0.360744 0.456210
vt 0.361701 0.425905
vt 0.360620 0.446854
vt 0.454864 0.040271
vt 0.453831 0.018355
vt 0.457311 0.089971
vt 0.456088 0.065127
vt 0.434027 0.042867
vt 0.424230 0.020912
vt 0.914627 0.097350
vt 0.898221 0.096474
vt 0.914627 0.073232
vt 0.898221 0.072355
vt 0.914627 0.049114
vt 0.898221 0.048237
vt 0.859722 0.097267
vt 0.859722 0.073149
vt 0.859722 0.049030
vt 0.859722 0.024912
vt 0.803384 0.092878
vt 0.820217 0.091938
vt 0.803384 0.068160
vt 0.820217 0.067219
vt 0.803384 0.043438
vt 0.820217 0.042498
vt 0.803490 0.020566
vt 0.773592 0.377061
vt 0.801262 0.354216
vt 0.773900 0.352944
vt 0.801579 0.329485
vt 0.774208 0.328828
vt 0.801895 0.304752
vt 0.774517 0.304711
vt 0.859722 0.092650
vt 0.859722 0.043209
vt 0.829049 0.041543
vt 0.851098 0.043209
vt 0.859722 0.067931
vt 0.360620 0.416729
vt 0.360620 0.447429
vt 0.359618 0.425361
vt 0.507654 0.100060
vt 0.534683 0.095603
vt 0.504354 0.075550
vt 0.531464 0.071702
vt 0.528246 0.047802
vt 0.498159 0.028385
vt 0.071133 0.747596
vt 0.061644 0.715319
vt 0.071133 0.715772
vt 0.361689 0.675352
vt 0.340379 0.708486
vt 0.340000 0.675352
vt 0.828668 0.091262
vt 0.850723 0.092613
vt 0.850910 0.067911
vt 0.851188 0.019854
vt 0.359528 0.455923
vt 0.359153 0.486883
vt 0.358890 0.464875
vt 0.745546 0.536153
vt 0.732488 0.522011
vt 0.745558 0.520587
vt 0.753469 0.400432
vt 0.744006 0.411792
vt 0.744006 0.399809
vt 0.766360 0.318786
vt 0.750470 0.288178
vt 0.762437 0.288245
vt 0.207708 0.748302
vt 0.224813 0.715574
vt 0.228689 0.748302
vt 0.117137 0.746330
vt 0.126721 0.715319
vt 0.140042 0.748070
vt 0.207708 0.746386
vt 0.198163 0.715319
vt 0.207708 0.715779
vt 0.766073 0.288178
vt 0.747082 0.256478
vt 0.759112 0.256508
vt 0.756218 0.462071
vt 0.736398 0.429855
vt 0.749140 0.429662
vt 0.729273 0.416622
vt 0.744006 0.401191
vt 0.744006 0.417889
vt 0.735663 0.462701
vt 0.744980 0.474636
vt 0.735642 0.475540
vt 0.708473 0.524033
vt 0.724684 0.493781
vt 0.732488 0.530492
vt 0.754439 0.489302
vt 0.737149 0.520587
vt 0.732488 0.489302
vt 0.163729 0.715319
vt 0.181880 0.747640
vt 0.167054 0.747781
vt 0.023874 0.749904
vt 0.007767 0.719742
vt 0.023874 0.715319
vt 0.071133 0.747612
vt 0.080595 0.715319
vt 0.093451 0.749390
vt 0.361641 0.708667
vt 0.341491 0.741378
vt 0.340000 0.708667
vt 0.892240 0.615040
vt 0.903455 0.615636
vt 0.807802 0.484130
vt 0.818017 0.483563
vt 0.484804 0.612343
vt 0.496066 0.612480
vt 0.803384 0.745976
vt 0.772836 0.736834
vt 0.969532 0.488980
vt 0.999871 0.511964
vt 0.015849 0.309181
vt 0.334217 0.332371
vt 0.328215 0.131113
vt 0.304901 0.104233
vt 0.930954 0.480320
vt 0.921038 0.480867
vt 0.126713 0.049703
vt 0.086704 0.051090
vt 0.033501 0.340077
vt 0.056813 0.366955
vt 0.084891 0.388782
vt 0.221435 0.412338
vt 0.255044 0.401153
vt 0.167661 0.049015
vt 0.022859 0.123602
vt 0.059391 0.106943
vt 0.116655 0.404721
vt 0.757832 0.568888
vt 0.751170 0.596442
vt 0.748737 0.568931
vt 0.209772 0.056197
vt 0.345865 0.162006
vt 0.009049 0.161748
vt 0.357172 0.195725
vt 0.001978 0.203531
vt 0.150884 0.414157
vt 0.361701 0.230974
vt 0.276819 0.082398
vt 0.245047 0.066448
vt 0.186264 0.416729
vt 0.000000 0.240195
vt 0.692303 0.500238
vt 0.701399 0.537051
vt 0.692303 0.537144
vt 0.359279 0.266398
vt 0.004538 0.275455
vt 0.349999 0.300635
vt 0.705000 0.500144
vt 0.670934 0.464903
vt 0.708473 0.464903
vt 0.705000 0.429662
vt 0.668179 0.436952
vt 0.757832 0.596514
vt 0.748737 0.633071
vt 0.748737 0.596442
vt 0.751170 0.540816
vt 0.760264 0.540772
vt 0.582921 0.634740
vt 0.589190 0.704940
vt 0.582139 0.670165
vt 0.954227 0.480761
vt 0.443366 0.192695
vt 0.582139 0.476818
vt 0.611360 0.488969
vt 1.000000 0.480354
vt 0.971792 0.422417
vt 0.922195 0.416845
vt 0.668179 0.540773
vt -0.000000 0.031019
vt 0.869949 0.194304
vt 0.841991 0.484002
vt 0.582139 0.476793
vt 0.548463 0.423675
vt 0.809187 0.418499
vt 0.907890 0.481231
vt 0.044980 0.000000
vt 0.839680 0.526650
vt 0.552908 0.489499
vt 0.496066 0.542370
vt 0.668179 0.339665
vt 0.496066 0.542370
vt 0.745912 0.487444
vt 0.599595 0.540772
vt 0.255092 0.416755
vt 0.648136 0.550977
vt 0.335688 0.446338
vt 0.740943 0.612471
vt 0.124749 0.416749
vt 0.684433 0.795214
vt 0.413704 0.562506
vt 0.446598 0.529676
vt 0.268112 0.676710
vt 0.279371 0.675352
vt 0.290305 0.675497
vt 0.300909 0.677611
vt 0.310906 0.681752
vt 0.319913 0.687760
vt 0.327584 0.695406
vt 0.333624 0.704395
vt 0.337801 0.714382
vt 0.339954 0.724983
vt 0.340000 0.735790
vt 0.337939 0.746389
vt 0.333848 0.756372
vt 0.327885 0.765355
vt 0.320280 0.772993
vt 0.301374 0.783137
vt 0.290794 0.785246
vt 0.279997 0.785246
vt 0.269397 0.783137
vt 0.259403 0.778999
vt 0.250397 0.772993
vt 0.242727 0.765348
vt 0.232508 0.746369
vt 0.230352 0.735765
vt 0.230302 0.724953
vt 0.232244 0.714194
vt 0.235714 0.703413
vt 0.240936 0.693547
vt 0.248081 0.685438
vt 0.925443 0.615180
vt 0.745550 0.339665
vt 0.579449 0.741074
vt 0.781677 0.873586
vt 0.811552 0.612622
vt 0.093451 0.747374
vt 0.163729 0.746969
vt 0.460392 0.485964
vt 0.874700 0.481180
vt 0.427979 0.119075
vt 0.510954 0.124567
vt 0.623235 0.168071
vt 0.803384 0.117594
vt 0.859722 0.121386
vt 0.914627 0.121428
vt 0.729248 0.339665
vt 0.755268 0.399809
vt 0.775133 0.256478
vt 0.642270 0.000000
vt 0.970227 0.022867
vt 0.631158 0.094161
vt 0.435241 0.067548
vt 0.359618 0.426228
vt 0.668179 0.539494
vt 0.023874 0.715319
vt 0.360620 0.416729
vt 0.433024 0.019916
vt 0.360442 0.456241
vt 0.501053 0.051038
vt 0.047843 0.749526
vt 0.354780 0.708667
vt 0.829185 0.019175
vt 0.828858 0.066408
vt 0.359528 0.495214
vt 0.732488 0.537457
vt 0.753501 0.412673
vt 0.745549 0.318786
vt 0.211664 0.715319
vt 0.117137 0.715778
vt 0.185822 0.747932
vt 0.745550 0.288178
vt 0.735642 0.462071
vt 0.729248 0.399809
vt 0.744980 0.462071
vt 0.708473 0.489302
vt 0.749700 0.520562
vt 0.185822 0.715319
vt -0.000000 0.756299
vt 0.071133 0.715754
vt 0.354104 0.741368
vt 0.312540 0.360386
vt 0.036880 0.086473
vt 0.760264 0.596399
vt 0.701399 0.500144
vt 0.668179 0.492854
vt 0.757832 0.633143
vt 0.820750 0.526515
s 0
usemtl Red
f 459/4/2 23/5/2 24/6/2
f 458/18/7 11/19/7 6/20/7
f 461/38/15 24/6/15 34/39/15
f 475/42/17 40/43/17 471/44/17
f 472/57/24 33/58/24 22/59/24
f 474/63/26 290/64/26 477/65/26
f 460/67/28 15/68/28 11/19/28
f 478/69/29 41/70/29 475/42/29
f 477/65/31 293/72/31 479/73/31
f 463/74/32 34/39/32 35/75/32
f 480/76/33 42/77/33 478/69/33
f 462/78/34 18/79/34 15/68/34
f 465/80/35 35/75/35 36/81/35
f 464/82/36 19/83/36 18/79/36
f 467/84/37 36/81/37 37/85/37
f 479/73/38 296/86/38 481/87/38
f 468/88/39 33/58/39 473/89/39
f 482/90/40 43/91/40 480/76/40
f 466/92/41 21/93/41 19/83/41
f 481/87/42 299/94/42 483/95/42
f 470/96/43 37/85/43 47/97/43
f 471/44/44 39/98/44 468/88/44
f 49/116/52 16/117/52 64/118/52
f 49/116/55 65/122/55 50/123/55
f 50/123/57 66/126/57 51/127/57
f 64/118/75 16/117/75 79/150/75
f 79/150/83 16/117/83 94/158/83
f 94/158/106 16/117/106 109/183/106
f 199/290/206 16/117/206 215/298/206
f 215/298/229 16/117/229 230/329/229
f 230/329/252 16/117/252 245/340/252
f 245/340/260 16/117/260 260/364/260
f 246/341/263 260/364/263 261/366/263
f 262/368/271 276/376/271 277/377/271
f 260/364/282 16/117/282 275/390/282
f 261/366/285 275/390/285 276/376/285
f 484/392/286 44/393/286 482/90/286
f 483/95/287 303/394/287 455/395/287
f 453/400/290 45/401/290 484/392/290
f 453/400/293 310/406/293 46/407/293
f 16/71/30 5/71/30 3/71/30
f 455/395/294 306/408/294 454/409/294
f 454/71/30 7/71/30 452/71/30
f 306/71/30 4/71/30 7/71/30
f 38/410/295 488/411/295 476/412/295
f 470/96/297 48/415/297 474/63/297
f 457/426/304 22/59/304 23/5/304
f 456/429/306 6/20/306 310/406/306
f 319/453/315 343/454/315 335/455/315
f 5/459/317 327/460/317 3/461/317
f 275/482/324 329/483/324 330/484/324
f 275/489/327 499/490/327 495/436/327
f 3/450/328 505/491/328 501/439/328
f 497/471/329 333/492/329 500/493/329
f 321/473/335 345/504/335 333/492/335
f 371/520/342 365/521/342 361/522/342
f 345/504/346 349/527/346 357/528/346
f 343/454/348 347/531/348 335/455/348
f 339/503/349 347/531/349 351/532/349
f 341/505/350 349/527/350 337/506/350
f 371/520/359 369/553/359 394/554/359
f 423/558/361 367/559/361 359/560/361
f 423/558/362 363/561/362 418/562/362
f 349/527/359 391/569/359 357/528/359
f 374/570/359 392/571/359 391/569/359
f 373/572/359 393/573/359 392/571/359
f 372/574/359 394/554/359 393/573/359
f 382/587/369 402/588/369 390/589/369
f 349/527/342 375/590/342 374/570/342
f 374/570/342 376/591/342 373/572/342
f 373/572/342 377/592/342 372/574/342
f 372/574/342 378/593/342 371/520/342
f 388/603/374 396/604/374 400/605/374
f 379/581/378 399/583/378 395/608/378
f 347/531/362 415/612/362 351/532/362
f 426/613/362 416/614/362 415/612/362
f 425/615/362 417/616/362 416/614/362
f 424/617/362 418/562/362 417/616/362
f 347/531/361 414/618/361 426/613/361
f 426/613/361 413/619/361 425/615/361
f 425/615/361 412/620/361 424/617/361
f 424/617/361 411/621/361 423/558/361
f 404/641/384 433/642/384 428/643/384
f 410/636/389 427/656/389 434/657/389
f 406/660/394 431/661/394 430/662/394
f 4/711/411 485/451/411 313/712/411
f 281/721/416 458/18/416 456/429/416
f 62/722/304 472/57/304 457/426/304
f 56/723/297 474/63/297 55/724/297
f 49/71/30 452/71/30 5/71/30
f 50/727/418 454/409/418 49/728/418
f 282/729/293 456/429/293 453/400/293
f 282/729/290 484/392/290 283/730/290
f 50/727/419 483/95/419 455/395/419
f 283/730/286 482/90/286 284/731/286
f 288/732/44 468/88/44 289/733/44
f 56/723/43 467/84/43 470/96/43
f 51/734/420 481/87/420 483/95/420
f 276/735/421 469/736/421 466/92/421
f 284/731/40 480/76/40 285/737/40
f 52/741/423 479/73/423 481/87/423
f 57/742/37 465/80/37 467/84/37
f 276/735/424 464/82/424 277/743/424
f 58/744/35 463/74/35 465/80/35
f 277/743/425 462/78/425 278/745/425
f 285/737/33 478/69/33 286/746/33
f 59/747/32 461/38/32 463/74/32
f 54/748/426 479/73/426 53/749/426
f 38/71/30 451/71/30 4/71/30
f 286/746/29 475/42/29 287/750/29
f 278/745/427 460/67/427 279/751/427
f 55/724/26 477/65/26 54/748/26
f 287/750/17 471/44/17 288/732/17
f 60/755/15 459/4/15 461/38/15
f 280/756/429 460/67/429 458/18/429
f 61/757/2 457/426/2 459/4/2
f 16/725/329 500/493/329 329/771/329
f 495/779/441 276/735/441 277/743/441
f 501/439/328 331/780/328 319/453/328
f 5/714/442 506/486/442 328/781/442
f 503/786/446 50/727/446 49/728/446
f 459/4/2 457/426/2 23/5/2
f 458/18/452 460/67/452 11/19/452
f 461/38/15 459/4/15 24/6/15
f 475/42/17 41/70/17 40/43/17
f 472/57/24 473/89/24 33/58/24
f 474/63/460 48/415/460 290/64/460
f 460/67/462 462/78/462 15/68/462
f 478/69/29 42/77/29 41/70/29
f 477/65/463 290/64/463 293/72/463
f 463/74/32 461/38/32 34/39/32
f 480/76/33 43/91/33 42/77/33
f 462/78/464 464/82/464 18/79/464
f 465/80/35 463/74/35 35/75/35
f 464/82/465 466/92/465 19/83/465
f 467/84/37 465/80/37 36/81/37
f 479/73/466 293/72/466 296/86/466
f 468/88/39 39/98/39 33/58/39
f 482/90/40 44/393/40 43/91/40
f 466/92/467 469/736/467 21/93/467
f 481/87/468 296/86/468 299/94/468
f 470/96/43 467/84/43 37/85/43
f 471/44/44 40/43/44 39/98/44
f 49/116/470 64/118/470 65/122/470
f 50/123/471 65/122/471 66/126/471
f 246/341/522 245/340/522 260/364/522
f 262/368/526 261/366/526 276/376/526
f 261/366/529 260/364/529 275/390/529
f 484/392/286 45/401/286 44/393/286
f 483/95/530 299/94/530 303/394/530
f 453/400/290 46/407/290 45/401/290
f 453/400/293 456/429/293 310/406/293
f 16/71/30 49/71/30 5/71/30
f 455/395/548 303/394/548 306/408/548
f 454/71/30 306/71/30 7/71/30
f 306/71/30 38/71/30 4/71/30
f 38/410/295 315/831/295 488/411/295
f 470/96/297 47/97/297 48/415/297
f 457/426/304 472/57/304 22/59/304
f 456/429/551 458/18/551 6/20/551
f 319/453/315 331/780/315 343/454/315
f 5/459/559 328/836/559 327/460/559
f 275/482/565 16/837/565 329/483/565
f 275/489/567 330/838/567 499/490/567
f 3/450/328 327/839/328 505/491/328
f 497/471/329 321/473/329 333/492/329
f 321/473/335 337/506/335 345/504/335
f 371/520/342 378/593/342 365/521/342
f 345/504/346 337/506/346 349/527/346
f 343/454/348 355/844/348 347/531/348
f 339/503/349 335/455/349 347/531/349
f 341/505/350 353/845/350 349/527/350
f 371/520/359 361/522/359 369/553/359
f 423/558/361 411/621/361 367/559/361
f 423/558/362 359/560/362 363/561/362
f 349/527/359 374/570/359 391/569/359
f 374/570/359 373/572/359 392/571/359
f 373/572/359 372/574/359 393/573/359
f 372/574/359 371/520/359 394/554/359
f 382/587/583 398/853/583 402/588/583
f 349/527/342 353/845/342 375/590/342
f 374/570/342 375/590/342 376/591/342
f 373/572/342 376/591/342 377/592/342
f 372/574/342 377/592/342 378/593/342
f 388/603/586 380/856/586 396/604/586
f 379/581/590 387/580/590 399/583/590
f 347/531/362 426/613/362 415/612/362
f 426/613/362 425/615/362 416/614/362
f 425/615/362 424/617/362 417/616/362
f 424/617/362 423/558/362 418/562/362
f 347/531/361 355/844/361 414/618/361
f 426/613/361 414/618/361 413/619/361
f 425/615/361 413/619/361 412/620/361
f 424/617/361 412/620/361 411/621/361
f 404/641/595 409/858/595 433/642/595
f 410/636/599 403/623/599 427/656/599
f 406/660/604 407/864/604 431/661/604
f 4/711/411 451/452/411 485/451/411
f 281/721/416 280/756/416 458/18/416
f 62/722/304 63/881/304 472/57/304
f 56/723/297 470/96/297 474/63/297
f 49/71/30 454/71/30 452/71/30
f 50/727/623 455/395/623 454/409/623
f 282/729/293 281/721/293 456/429/293
f 282/729/290 453/400/290 484/392/290
f 50/727/624 51/734/624 483/95/624
f 283/730/286 484/392/286 482/90/286
f 288/732/44 471/44/44 468/88/44
f 56/723/43 57/742/43 467/84/43
f 51/734/625 52/741/625 481/87/625
f 276/735/626 275/882/626 469/736/626
f 284/731/40 482/90/40 480/76/40
f 52/741/627 53/749/627 479/73/627
f 57/742/37 58/744/37 465/80/37
f 276/735/628 466/92/628 464/82/628
f 58/744/35 59/747/35 463/74/35
f 277/743/629 464/82/629 462/78/629
f 285/737/33 480/76/33 478/69/33
f 59/747/32 60/755/32 461/38/32
f 54/748/630 477/65/630 479/73/630
f 38/71/30 476/71/30 451/71/30
f 286/746/29 478/69/29 475/42/29
f 278/745/631 462/78/631 460/67/631
f 55/724/26 474/63/26 477/65/26
f 287/750/17 475/42/17 471/44/17
f 60/755/15 61/757/15 459/4/15
f 280/756/632 279/751/632 460/67/632
f 61/757/2 62/722/2 457/426/2
f 16/725/329 497/471/329 500/493/329
f 495/779/637 275/882/637 276/735/637
f 501/439/328 505/491/328 331/780/328
f 5/714/638 503/465/638 506/486/638
f 503/786/641 51/734/641 50/727/641
usemtl Black
f 11/1/1 304/2/1 305/3/1
f 48/7/3 13/8/3 290/9/3
f 6/10/4 305/3/4 307/11/4
f 43/12/5 20/13/5 42/14/5
f 40/15/6 32/16/6 39/17/6
f 41/21/8 26/22/8 40/15/8
f 34/23/9 298/24/9 297/25/9
f 310/26/10 307/11/10 308/27/10
f 21/28/11 30/29/11 29/30/11
f 303/31/12 27/32/12 306/33/12
f 24/34/13 300/35/13 298/24/13
f 46/36/14 308/27/14 309/37/14
f 19/40/16 29/30/16 301/41/16
f 39/17/18 31/45/18 33/46/18
f 299/47/19 8/48/19 303/31/19
f 47/49/20 14/50/20 48/7/20
f 46/36/21 1/51/21 45/52/21
f 23/53/22 28/54/22 300/35/22
f 15/55/23 302/56/23 304/2/23
f 296/60/25 9/61/25 299/62/25
f 306/33/27 30/29/27 38/66/27
f 476/71/30 3/71/30 451/71/30
f 4/99/45 314/100/45 7/101/45
f 47/49/288 292/396/288 291/397/288
f 293/398/289 10/399/289 296/60/289
f 22/402/291 31/45/291 28/54/291
f 32/403/292 308/404/292 27/405/292
f 18/413/296 301/41/296 302/414/296
f 37/416/298 294/417/298 292/396/298
f 290/9/299 12/418/299 293/398/299
f 44/419/300 17/420/300 43/12/300
f 36/421/301 295/422/301 294/417/301
f 45/52/302 2/423/302 44/419/302
f 42/424/303 25/425/303 41/21/303
f 35/427/305 297/428/305 295/422/305
f 487/430/307 315/431/307 316/432/307
f 486/433/308 313/434/308 485/435/308
f 495/436/309 326/437/309 496/438/309
f 501/439/310 323/440/310 502/441/310
f 469/442/311 317/443/311 487/444/311
f 7/445/312 486/446/312 452/447/312
f 38/66/313 316/448/313 315/449/313
f 3/450/314 485/451/314 451/452/314
f 325/456/316 342/457/316 341/458/316
f 503/465/318 324/466/318 320/467/318
f 502/468/319 324/469/319 504/470/319
f 497/471/320 325/472/320 321/473/320
f 498/474/321 326/475/321 325/456/321
f 320/467/326 340/487/326 336/488/326
f 342/495/331 350/494/331 354/496/331
f 319/453/334 339/503/334 323/440/334
f 321/473/326 341/505/326 337/506/326
f 322/462/334 342/495/334 326/437/334
f 323/507/337 340/508/337 324/469/337
f 382/511/339 366/512/339 383/513/339
f 339/523/343 352/524/343 340/508/343
f 340/487/345 348/501/345 336/488/345
f 341/458/347 354/529/347 353/530/347
f 361/533/351 366/534/351 362/535/351
f 359/536/352 364/537/352 363/538/352
f 418/545/356 364/546/356 419/547/356
f 406/517/358 364/551/358 360/552/358
f 378/555/360 366/556/360 365/557/360
f 353/530/363 386/563/363 375/564/363
f 386/563/363 376/565/363 375/564/363
f 385/566/363 377/567/363 376/565/363
f 384/568/363 378/555/363 377/567/363
f 350/494/370 386/594/370 354/496/370
f 379/581/362 385/595/362 386/594/362
f 380/584/362 384/596/362 385/595/362
f 381/586/371 383/513/371 384/596/371
f 396/597/372 435/598/372 436/599/372
f 400/600/373 439/601/373 399/602/373
f 381/586/377 401/610/377 397/606/377
f 348/501/342 422/622/342 403/623/342
f 403/623/342 421/624/342 404/625/342
f 404/625/342 420/626/342 405/627/342
f 405/627/380 419/628/380 406/517/380
f 351/629/381 422/630/381 352/524/381
f 415/631/381 421/632/381 422/630/381
f 416/633/381 420/634/381 421/632/381
f 417/635/382 419/547/382 420/634/382
f 408/637/383 429/638/383 432/639/383
f 431/650/387 448/651/387 447/652/387
f 427/653/388 450/654/388 434/655/388
f 435/663/395 440/664/395 436/665/395
f 437/666/396 442/667/396 438/668/396
f 402/669/397 438/670/397 442/671/397
f 396/672/398 440/673/398 400/674/398
f 402/675/399 441/676/399 401/677/399
f 398/678/400 437/679/400 438/680/400
f 397/681/401 441/682/401 437/683/401
f 395/684/402 439/685/402 435/686/402
f 443/687/403 449/688/403 450/689/403
f 445/690/404 447/691/404 448/692/404
f 428/693/405 443/694/405 427/695/405
f 431/696/406 446/697/406 430/698/406
f 428/699/407 449/700/407 444/701/407
f 433/702/408 450/703/408 449/704/408
f 430/705/409 445/706/409 429/707/409
f 429/708/410 448/709/410 432/710/410
f 452/447/412 312/713/412 5/714/412
f 21/715/413 487/444/413 316/716/413
f 312/717/414 485/435/414 311/718/414
f 317/719/415 488/720/415 487/430/415
f 16/725/417 488/411/417 318/726/417
f 473/738/422 491/739/422 494/740/422
f 468/752/428 490/753/428 289/754/428
f 490/758/39 494/759/39 493/760/39
f 492/761/24 494/759/24 491/762/24
f 472/763/430 492/764/430 491/765/430
f 473/738/431 489/766/431 468/767/431
f 214/119/432 492/768/432 63/113/432
f 214/119/433 490/769/433 493/770/433
f 318/775/436 496/776/436 498/474/436
f 16/725/437 498/777/437 497/471/437
f 275/489/438 496/438/438 317/443/438
f 311/718/444 504/470/444 312/717/444
f 5/714/445 504/784/445 503/465/445
f 3/450/310 502/441/310 311/785/310
f 11/1/449 15/55/449 304/2/449
f 48/7/450 14/50/450 13/8/450
f 6/10/451 11/1/451 305/3/451
f 43/12/5 17/420/5 20/13/5
f 40/15/6 26/22/6 32/16/6
f 41/21/8 25/425/8 26/22/8
f 34/23/9 24/34/9 298/24/9
f 310/26/453 6/10/453 307/11/453
f 21/28/454 38/66/454 30/29/454
f 303/31/455 8/48/455 27/32/455
f 24/34/13 23/53/13 300/35/13
f 46/36/14 310/26/14 308/27/14
f 19/40/456 21/28/456 29/30/456
f 39/17/18 32/16/18 31/45/18
f 299/47/457 9/790/457 8/48/457
f 47/49/20 291/397/20 14/50/20
f 46/36/21 309/37/21 1/51/21
f 23/53/22 22/402/22 28/54/22
f 15/55/458 18/791/458 302/56/458
f 296/60/459 10/399/459 9/61/459
f 306/33/461 27/32/461 30/29/461
f 476/71/30 16/71/30 3/71/30
f 4/99/469 313/792/469 314/100/469
f 47/49/288 37/416/288 292/396/288
f 293/398/531 12/418/531 10/399/531
f 22/402/291 33/46/291 31/45/291
f 27/405/532 8/802/532 9/803/532
f 9/803/533 10/804/533 12/805/533
f 12/805/534 13/806/534 14/807/534
f 14/807/534 291/808/534 292/809/534
f 292/809/534 294/810/534 295/811/534
f 295/811/534 297/812/534 298/813/534
f 298/813/534 300/814/534 28/815/534
f 28/815/535 31/816/535 32/403/535
f 32/403/536 26/817/536 25/818/536
f 25/818/536 20/819/536 17/820/536
f 17/820/536 2/821/536 1/822/536
f 1/822/536 309/823/536 308/404/536
f 308/404/536 307/824/536 305/825/536
f 305/825/537 304/826/537 302/827/537
f 302/827/538 301/828/538 29/829/538
f 29/829/539 30/830/539 27/405/539
f 27/405/540 9/803/540 12/805/540
f 12/805/534 14/807/534 292/809/534
f 292/809/534 295/811/534 298/813/534
f 298/813/541 28/815/541 32/403/541
f 32/403/536 25/818/536 17/820/536
f 17/820/536 1/822/536 308/404/536
f 308/404/542 305/825/542 302/827/542
f 302/827/543 29/829/543 27/405/543
f 27/405/544 12/805/544 292/809/544
f 292/809/545 298/813/545 32/403/545
f 32/403/536 17/820/536 308/404/536
f 308/404/546 302/827/546 27/405/546
f 27/405/547 292/809/547 32/403/547
f 18/413/549 19/40/549 301/41/549
f 37/416/298 36/421/298 294/417/298
f 290/9/550 13/8/550 12/418/550
f 44/419/300 2/423/300 17/420/300
f 36/421/301 35/427/301 295/422/301
f 45/52/302 1/51/302 2/423/302
f 42/424/303 20/832/303 25/425/303
f 35/427/305 34/833/305 297/428/305
f 487/430/552 488/720/552 315/431/552
f 486/433/553 314/834/553 313/434/553
f 495/436/554 322/462/554 326/437/554
f 501/439/555 319/453/555 323/440/555
f 469/442/556 275/489/556 317/443/556
f 7/445/557 314/835/557 486/446/557
f 38/66/558 21/28/558 316/448/558
f 3/450/314 311/785/314 485/451/314
f 325/456/316 326/475/316 342/457/316
f 503/465/560 504/784/560 324/466/560
f 502/468/561 323/507/561 324/469/561
f 497/471/437 498/777/437 325/472/437
f 498/474/562 496/776/562 326/475/562
f 320/467/326 324/466/326 340/487/326
f 342/495/569 338/464/569 350/494/569
f 319/453/334 335/455/334 339/503/334
f 321/473/326 325/472/326 341/505/326
f 322/462/334 338/464/334 342/495/334
f 323/507/337 339/523/337 340/508/337
f 382/511/339 362/544/339 366/512/339
f 339/523/573 351/629/573 352/524/573
f 340/487/575 352/843/575 348/501/575
f 341/458/576 342/457/576 354/529/576
f 361/533/351 365/846/351 366/534/351
f 359/536/352 360/539/352 364/537/352
f 418/545/577 363/848/577 364/546/577
f 406/517/358 419/628/358 364/551/358
f 378/555/579 383/850/579 366/556/579
f 353/530/580 354/529/580 386/563/580
f 386/563/363 385/566/363 376/565/363
f 385/566/363 384/568/363 377/567/363
f 384/568/581 383/850/581 378/555/581
f 350/494/370 379/581/370 386/594/370
f 379/581/362 380/584/362 385/595/362
f 380/584/362 381/586/362 384/596/362
f 381/586/371 382/511/371 383/513/371
f 396/597/584 395/854/584 435/598/584
f 400/600/585 440/855/585 439/601/585
f 381/586/589 389/585/589 401/610/589
f 348/501/342 352/843/342 422/622/342
f 403/623/342 422/622/342 421/624/342
f 404/625/342 421/624/342 420/626/342
f 405/627/380 420/626/380 419/628/380
f 351/629/592 415/631/592 422/630/592
f 415/631/592 416/633/592 421/632/592
f 416/633/592 417/635/592 420/634/592
f 417/635/593 418/545/593 419/547/593
f 408/637/594 405/627/594 429/638/594
f 431/650/597 432/860/597 448/651/597
f 427/653/598 443/861/598 450/654/598
f 435/663/605 439/865/605 440/664/605
f 437/666/606 441/866/606 442/667/606
f 402/669/607 398/867/607 438/670/607
f 396/672/608 436/868/608 440/673/608
f 402/675/609 442/869/609 441/676/609
f 398/678/610 397/870/610 437/679/610
f 397/681/611 401/871/611 441/682/611
f 395/684/612 399/872/612 439/685/612
f 443/687/613 444/873/613 449/688/613
f 445/690/614 446/874/614 447/691/614
f 428/693/615 444/875/615 443/694/615
f 431/696/616 447/876/616 446/697/616
f 428/699/617 433/877/617 449/700/617
f 433/702/618 434/878/618 450/703/618
f 430/705/619 446/879/619 445/706/619
f 429/708/620 445/880/620 448/709/620
f 452/447/412 486/446/412 312/713/412
f 21/715/413 469/442/413 487/444/413
f 312/717/621 486/433/621 485/435/621
f 317/719/622 318/775/622 488/720/622
f 16/725/417 476/412/417 488/411/417
f 473/738/422 472/883/422 491/739/422
f 468/752/428 489/884/428 490/753/428
f 490/758/39 489/885/39 494/759/39
f 492/761/24 493/760/24 494/759/24
f 472/763/430 63/886/430 492/764/430
f 473/738/431 494/740/431 489/766/431
f 214/119/432 493/770/432 492/768/432
f 214/119/433 289/388/433 490/769/433
f 318/775/635 317/719/635 496/776/635
f 16/725/437 318/726/437 498/777/437
f 275/489/438 495/436/438 496/438/438
f 311/718/640 502/468/640 504/470/640
f 5/714/445 312/713/445 504/784/445
f 3/450/310 501/439/310 502/441/310
usemtl Brown
f 61/102/46 75/103/46 76/104/46
f 53/105/47 69/106/47 54/107/47
f 61/102/48 77/108/48 62/109/48
f 55/110/49 69/106/49 70/111/49
f 62/109/50 78/112/50 63/113/50
f 56/114/51 70/111/51 71/115/51
f 214/119/53 63/113/53 78/112/53
f 56/114/54 72/120/54 57/121/54
f 57/121/56 73/124/56 58/125/56
f 59/128/58 73/124/58 74/129/58
f 51/127/59 67/130/59 52/131/59
f 59/128/60 75/132/60 60/133/60
f 52/134/61 68/135/61 53/105/61
f 64/118/62 80/136/62 65/122/62
f 72/120/63 88/137/63 73/124/63
f 65/122/64 81/138/64 66/126/64
f 74/129/65 88/137/65 89/139/65
f 66/126/66 82/140/66 67/130/66
f 74/129/67 90/141/67 75/132/67
f 67/130/68 83/142/68 68/143/68
f 75/103/69 91/144/69 76/104/69
f 68/135/70 84/145/70 69/106/70
f 77/108/71 91/144/71 92/146/71
f 70/111/72 84/145/72 85/147/72
f 78/112/73 92/146/73 93/148/73
f 71/115/74 85/147/74 86/149/74
f 214/119/76 78/112/76 93/148/76
f 71/115/77 87/151/77 72/120/77
f 83/152/78 99/153/78 84/145/78
f 91/144/79 107/154/79 92/146/79
f 85/147/80 99/153/80 100/155/80
f 92/146/81 108/156/81 93/148/81
f 86/149/82 100/155/82 101/157/82
f 214/119/84 93/148/84 108/156/84
f 86/149/85 102/159/85 87/151/85
f 79/150/86 95/160/86 80/136/86
f 87/151/87 103/161/87 88/137/87
f 80/136/88 96/162/88 81/138/88
f 89/139/89 103/161/89 104/163/89
f 81/138/90 97/164/90 82/140/90
f 89/139/91 105/165/91 90/141/91
f 82/140/92 98/166/92 83/142/92
f 91/144/93 105/167/93 106/168/93
f 102/159/94 118/169/94 103/161/94
f 95/160/95 111/170/95 96/162/95
f 104/163/96 118/169/96 119/171/96
f 96/162/97 112/172/97 97/164/97
f 104/173/98 120/174/98 105/167/98
f 97/164/99 113/175/99 98/166/99
f 106/168/100 120/174/100 121/176/100
f 98/177/101 114/178/101 99/153/101
f 106/168/102 122/179/102 107/154/102
f 100/155/103 114/178/103 115/180/103
f 107/154/104 123/181/104 108/156/104
f 101/157/105 115/180/105 116/182/105
f 214/119/107 108/156/107 123/181/107
f 101/157/108 117/184/108 102/159/108
f 94/158/109 110/185/109 95/160/109
f 121/176/110 137/186/110 122/179/110
f 115/187/111 129/188/111 130/189/111
f 122/179/112 138/190/112 123/181/112
f 116/191/113 130/189/113 131/192/113
f 109/183/114 16/117/114 124/193/114
f 214/119/115 123/181/115 138/190/115
f 116/191/116 132/194/116 117/195/116
f 109/183/117 125/196/117 110/185/117
f 117/195/118 133/197/118 118/198/118
f 110/185/119 126/199/119 111/170/119
f 119/200/120 133/197/120 134/201/120
f 111/170/121 127/202/121 112/172/121
f 119/203/122 135/204/122 120/174/122
f 112/172/123 128/205/123 113/175/123
f 121/176/124 135/204/124 136/206/124
f 113/207/125 129/188/125 114/208/125
f 134/201/126 148/209/126 149/210/126
f 126/199/127 142/211/127 127/202/127
f 134/212/128 150/213/128 135/204/128
f 127/214/129 143/215/129 128/216/129
f 136/206/130 150/213/130 151/217/130
f 128/216/131 144/218/131 129/188/131
f 136/206/132 152/219/132 137/186/132
f 130/189/133 144/218/133 145/220/133
f 138/190/134 152/219/134 153/221/134
f 131/192/135 145/220/135 146/222/135
f 124/193/136 16/117/136 139/223/136
f 214/119/137 138/190/137 153/221/137
f 131/192/138 147/224/138 132/194/138
f 124/193/139 140/225/139 125/196/139
f 132/194/140 148/209/140 133/197/140
f 125/196/141 141/226/141 126/199/141
f 152/219/142 168/227/142 153/221/142
f 146/222/143 160/228/143 161/229/143
f 139/223/144 16/117/144 154/230/144
f 214/119/145 153/221/145 168/227/145
f 146/222/146 162/231/146 147/224/146
f 139/223/147 155/232/147 140/225/147
f 147/224/148 163/233/148 148/209/148
f 140/225/149 156/234/149 141/226/149
f 149/210/150 163/233/150 164/235/150
f 141/226/151 157/236/151 142/211/151
f 149/210/152 165/237/152 150/238/152
f 142/239/153 158/240/153 143/215/153
f 151/217/154 165/241/154 166/242/154
f 143/215/155 159/243/155 144/218/155
f 151/217/156 167/244/156 152/219/156
f 145/220/157 159/243/157 160/228/157
f 156/245/158 172/246/158 157/247/158
f 164/235/159 180/248/159 165/237/159
f 157/247/160 173/249/160 158/240/160
f 166/242/161 180/250/161 181/251/161
f 158/240/162 174/252/162 159/243/162
f 166/242/163 182/253/163 167/244/163
f 160/228/164 174/252/164 175/254/164
f 167/244/165 183/255/165 168/227/165
f 161/229/166 175/254/166 176/256/166
f 154/230/167 16/117/167 169/257/167
f 214/119/168 168/227/168 183/255/168
f 161/229/169 177/258/169 162/231/169
f 154/230/170 170/259/170 155/232/170
f 162/231/171 178/260/171 163/233/171
f 155/232/172 171/261/172 156/234/172
f 164/235/173 178/260/173 179/262/173
f 176/256/174 190/263/174 191/264/174
f 169/257/175 16/117/175 184/265/175
f 214/119/176 183/255/176 198/266/176
f 176/256/177 192/267/177 177/258/177
f 170/259/178 184/265/178 185/268/178
f 177/258/179 193/269/179 178/260/179
f 171/261/180 185/268/180 186/270/180
f 179/262/181 193/269/181 194/271/181
f 172/246/182 186/272/182 187/273/182
f 179/262/183 195/274/183 180/248/183
f 173/249/184 187/273/184 188/275/184
f 181/251/185 195/276/185 196/277/185
f 173/249/186 189/278/186 174/252/186
f 181/251/187 197/279/187 182/253/187
f 175/254/188 189/278/188 190/263/188
f 183/255/189 197/279/189 198/266/189
f 194/280/190 210/281/190 195/276/190
f 188/275/191 202/282/191 203/283/191
f 196/277/192 210/281/192 211/284/192
f 188/275/193 204/285/193 189/278/193
f 196/277/194 212/286/194 197/279/194
f 190/263/195 204/285/195 205/287/195
f 198/266/196 212/286/196 213/288/196
f 191/264/197 205/287/197 206/289/197
f 184/265/198 16/117/198 199/290/198
f 214/119/199 198/266/199 213/288/199
f 191/264/200 207/291/200 192/267/200
f 185/268/201 199/290/201 200/292/201
f 192/267/202 208/293/202 193/269/202
f 186/270/203 200/292/203 201/294/203
f 194/271/204 208/293/204 209/295/204
f 187/296/205 201/294/205 202/297/205
f 214/119/207 213/288/207 229/299/207
f 206/289/208 223/300/208 207/291/208
f 200/292/209 215/298/209 216/301/209
f 207/291/210 224/302/210 208/293/210
f 201/294/211 216/301/211 217/303/211
f 209/295/212 224/302/212 225/304/212
f 202/297/213 217/303/213 218/305/213
f 209/306/214 226/307/214 210/281/214
f 203/283/215 218/308/215 219/309/215
f 211/284/216 226/307/216 227/310/216
f 203/283/217 220/311/217 204/285/217
f 211/284/218 228/312/218 212/286/218
f 205/287/219 220/311/219 221/313/219
f 212/286/220 229/299/220 213/288/220
f 206/289/221 221/313/221 222/314/221
f 219/315/222 233/316/222 234/317/222
f 227/310/223 241/318/223 242/319/223
f 219/320/224 235/321/224 220/322/224
f 227/310/225 243/323/225 228/312/225
f 221/324/226 235/321/226 236/325/226
f 228/312/227 244/326/227 229/299/227
f 222/327/228 236/325/228 237/328/228
f 214/119/230 229/299/230 244/326/230
f 222/327/231 238/330/231 223/331/231
f 216/301/232 230/329/232 231/332/232
f 223/331/233 239/333/233 224/334/233
f 217/303/234 231/332/234 232/335/234
f 225/336/235 239/333/235 240/337/235
f 218/305/236 232/335/236 233/316/236
f 225/338/237 241/318/237 226/307/237
f 237/328/238 253/339/238 238/330/238
f 231/332/239 245/340/239 246/341/239
f 238/330/240 254/342/240 239/333/240
f 232/335/241 246/341/241 247/343/241
f 240/337/242 254/342/242 255/344/242
f 233/316/243 247/343/243 248/345/243
f 240/346/244 256/347/244 241/318/244
f 234/348/245 248/349/245 249/350/245
f 242/319/246 256/347/246 257/351/246
f 234/348/247 250/352/247 235/321/247
f 242/319/248 258/353/248 243/323/248
f 236/325/249 250/352/249 251/354/249
f 243/323/250 259/355/250 244/326/250
f 237/328/251 251/354/251 252/356/251
f 214/119/253 244/326/253 259/355/253
f 257/351/254 271/357/254 272/358/254
f 249/350/255 265/359/255 250/352/255
f 257/351/256 273/360/256 258/353/256
f 251/354/257 265/359/257 266/361/257
f 258/353/258 274/362/258 259/355/258
f 252/356/259 266/361/259 267/363/259
f 214/119/261 259/355/261 274/362/261
f 252/356/262 268/365/262 253/339/262
f 253/339/264 269/367/264 254/342/264
f 247/343/265 261/366/265 262/368/265
f 255/344/266 269/367/266 270/369/266
f 248/349/267 262/370/267 263/371/267
f 255/344/268 271/372/268 256/373/268
f 249/350/269 263/371/269 264/374/269
f 268/365/270 284/375/270 269/367/270
f 270/369/272 284/375/272 285/378/272
f 263/371/273 277/379/273 278/380/273
f 270/369/274 286/381/274 271/372/274
f 264/374/275 278/380/275 279/382/275
f 272/358/276 286/383/276 287/384/276
f 264/374/277 280/385/277 265/359/277
f 272/358/278 288/386/278 273/360/278
f 266/361/279 280/385/279 281/387/279
f 273/360/280 289/388/280 274/362/280
f 267/363/281 281/387/281 282/389/281
f 214/119/283 274/362/283 289/388/283
f 267/363/284 283/391/284 268/365/284
f 322/462/315 346/463/315 338/464/315
f 505/476/322 332/477/322 331/478/322
f 500/479/323 334/480/323 499/481/323
f 503/465/325 332/485/325 506/486/325
f 346/463/330 350/494/330 338/464/330
f 344/497/332 355/498/332 343/499/332
f 344/500/333 348/501/333 356/502/333
f 331/478/336 344/497/336 343/499/336
f 320/467/335 344/500/335 332/485/335
f 333/509/338 346/510/338 334/480/338
f 411/514/340 368/515/340 367/516/340
f 406/517/341 368/518/341 407/519/341
f 346/510/344 357/525/344 358/526/344
f 360/539/353 367/540/353 368/541/353
f 362/535/354 369/542/354 361/533/354
f 382/511/355 370/543/355 362/544/355
f 394/548/357 370/549/357 390/550/357
f 357/525/364 387/575/364 358/526/364
f 387/575/365 392/576/365 388/577/365
f 388/577/365 393/578/365 389/579/365
f 389/579/366 394/548/366 390/550/366
f 350/494/367 387/580/367 379/581/367
f 388/582/368 399/583/368 387/580/368
f 380/584/361 389/585/361 381/586/361
f 382/511/375 397/606/375 398/607/375
f 380/584/376 395/608/376 396/609/376
f 390/611/379 401/610/379 389/585/379
f 348/501/359 410/636/359 356/502/359
f 404/625/359 408/637/359 409/640/359
f 355/498/385 410/644/385 414/645/385
f 414/645/385 409/646/385 413/647/385
f 409/646/385 412/648/385 413/647/385
f 412/648/386 407/649/386 411/514/386
f 409/640/390 434/657/390 433/658/390
f 407/519/391 432/639/391 431/659/391
f 406/517/392 429/638/392 405/627/392
f 404/625/393 427/656/393 403/623/393
f 495/436/434 334/772/434 322/462/434
f 329/773/435 499/481/435 330/774/435
f 495/436/439 262/370/439 499/490/439
f 330/774/440 499/481/440 262/778/440
f 327/782/443 506/783/443 505/476/443
f 66/787/447 503/465/447 506/486/447
f 506/783/448 328/788/448 66/789/448
f 61/102/46 60/793/46 75/103/46
f 53/105/47 68/135/47 69/106/47
f 61/102/48 76/104/48 77/108/48
f 55/110/49 54/107/49 69/106/49
f 62/109/50 77/108/50 78/112/50
f 56/114/51 55/110/51 70/111/51
f 56/114/54 71/115/54 72/120/54
f 57/121/56 72/120/56 73/124/56
f 59/128/58 58/125/58 73/124/58
f 51/127/472 66/126/472 67/130/472
f 59/128/60 74/129/60 75/132/60
f 52/134/473 67/794/473 68/135/473
f 64/118/474 79/150/474 80/136/474
f 72/120/63 87/151/63 88/137/63
f 65/122/475 80/136/475 81/138/475
f 74/129/65 73/124/65 88/137/65
f 66/126/476 81/138/476 82/140/476
f 74/129/67 89/139/67 90/141/67
f 67/130/477 82/140/477 83/142/477
f 75/103/69 90/795/69 91/144/69
f 68/135/70 83/152/70 84/145/70
f 77/108/71 76/104/71 91/144/71
f 70/111/72 69/106/72 84/145/72
f 78/112/73 77/108/73 92/146/73
f 71/115/74 70/111/74 85/147/74
f 71/115/77 86/149/77 87/151/77
f 83/152/78 98/177/78 99/153/78
f 91/144/79 106/168/79 107/154/79
f 85/147/80 84/145/80 99/153/80
f 92/146/81 107/154/81 108/156/81
f 86/149/82 85/147/82 100/155/82
f 86/149/85 101/157/85 102/159/85
f 79/150/478 94/158/478 95/160/478
f 87/151/87 102/159/87 103/161/87
f 80/136/479 95/160/479 96/162/479
f 89/139/89 88/137/89 103/161/89
f 81/138/480 96/162/480 97/164/480
f 89/139/91 104/163/91 105/165/91
f 82/140/481 97/164/481 98/166/481
f 91/144/93 90/795/93 105/167/93
f 102/159/94 117/184/94 118/169/94
f 95/160/482 110/185/482 111/170/482
f 104/163/96 103/161/96 118/169/96
f 96/162/483 111/170/483 112/172/483
f 104/173/98 119/203/98 120/174/98
f 97/164/484 112/172/484 113/175/484
f 106/168/100 105/167/100 120/174/100
f 98/177/101 113/796/101 114/178/101
f 106/168/102 121/176/102 122/179/102
f 100/155/103 99/153/103 114/178/103
f 107/154/104 122/179/104 123/181/104
f 101/157/105 100/155/105 115/180/105
f 101/157/108 116/182/108 117/184/108
f 94/158/485 109/183/485 110/185/485
f 121/176/110 136/206/110 137/186/110
f 115/187/111 114/208/111 129/188/111
f 122/179/112 137/186/112 138/190/112
f 116/191/113 115/187/113 130/189/113
f 116/191/116 131/192/116 132/194/116
f 109/183/486 124/193/486 125/196/486
f 117/195/118 132/194/118 133/197/118
f 110/185/487 125/196/487 126/199/487
f 119/200/120 118/198/120 133/197/120
f 111/170/488 126/199/488 127/202/488
f 119/203/122 134/212/122 135/204/122
f 112/172/489 127/202/489 128/205/489
f 121/176/124 120/174/124 135/204/124
f 113/207/125 128/216/125 129/188/125
f 134/201/126 133/197/126 148/209/126
f 126/199/490 141/226/490 142/211/490
f 134/212/128 149/797/128 150/213/128
f 127/214/491 142/239/491 143/215/491
f 136/206/130 135/204/130 150/213/130
f 128/216/131 143/215/131 144/218/131
f 136/206/132 151/217/132 152/219/132
f 130/189/133 129/188/133 144/218/133
f 138/190/134 137/186/134 152/219/134
f 131/192/135 130/189/135 145/220/135
f 131/192/138 146/222/138 147/224/138
f 124/193/492 139/223/492 140/225/492
f 132/194/140 147/224/140 148/209/140
f 125/196/493 140/225/493 141/226/493
f 152/219/142 167/244/142 168/227/142
f 146/222/143 145/220/143 160/228/143
f 146/222/146 161/229/146 162/231/146
f 139/223/494 154/230/494 155/232/494
f 147/224/148 162/231/148 163/233/148
f 140/225/495 155/232/495 156/234/495
f 149/210/150 148/209/150 163/233/150
f 141/226/496 156/234/496 157/236/496
f 149/210/152 164/235/152 165/237/152
f 142/239/497 157/247/497 158/240/497
f 151/217/154 150/213/154 165/241/154
f 143/215/155 158/240/155 159/243/155
f 151/217/156 166/242/156 167/244/156
f 145/220/157 144/218/157 159/243/157
f 156/245/498 171/798/498 172/246/498
f 164/235/159 179/262/159 180/248/159
f 157/247/499 172/246/499 173/249/499
f 166/242/161 165/241/161 180/250/161
f 158/240/162 173/249/162 174/252/162
f 166/242/163 181/251/163 182/253/163
f 160/228/164 159/243/164 174/252/164
f 167/244/165 182/253/165 183/255/165
f 161/229/166 160/228/166 175/254/166
f 161/229/169 176/256/169 177/258/169
f 154/230/500 169/257/500 170/259/500
f 162/231/171 177/258/171 178/260/171
f 155/232/501 170/259/501 171/261/501
f 164/235/173 163/233/173 178/260/173
f 176/256/174 175/254/174 190/263/174
f 176/256/177 191/264/177 192/267/177
f 170/259/502 169/257/502 184/265/502
f 177/258/179 192/267/179 193/269/179
f 171/261/503 170/259/503 185/268/503
f 179/262/181 178/260/181 193/269/181
f 172/246/182 171/798/182 186/272/182
f 179/262/183 194/271/183 195/274/183
f 173/249/504 172/246/504 187/273/504
f 181/251/185 180/250/185 195/276/185
f 173/249/186 188/275/186 189/278/186
f 181/251/187 196/277/187 197/279/187
f 175/254/188 174/252/188 189/278/188
f 183/255/189 182/253/189 197/279/189
f 194/280/190 209/306/190 210/281/190
f 188/275/505 187/273/505 202/282/505
f 196/277/192 195/276/192 210/281/192
f 188/275/193 203/283/193 204/285/193
f 196/277/194 211/284/194 212/286/194
f 190/263/195 189/278/195 204/285/195
f 198/266/196 197/279/196 212/286/196
f 191/264/197 190/263/197 205/287/197
f 191/264/506 206/289/506 207/291/506
f 185/268/507 184/265/507 199/290/507
f 192/267/202 207/291/202 208/293/202
f 186/270/508 185/268/508 200/292/508
f 194/271/204 193/269/204 208/293/204
f 187/296/509 186/270/509 201/294/509
f 206/289/208 222/314/208 223/300/208
f 200/292/510 199/290/510 215/298/510
f 207/291/210 223/300/210 224/302/210
f 201/294/511 200/292/511 216/301/511
f 209/295/212 208/293/212 224/302/212
f 202/297/512 201/294/512 217/303/512
f 209/306/214 225/338/214 226/307/214
f 203/283/513 202/282/513 218/308/513
f 211/284/216 210/281/216 226/307/216
f 203/283/217 219/309/217 220/311/217
f 211/284/218 227/310/218 228/312/218
f 205/287/219 204/285/219 220/311/219
f 212/286/220 228/312/220 229/299/220
f 206/289/221 205/287/221 221/313/221
f 219/315/514 218/305/514 233/316/514
f 227/310/223 226/307/223 241/318/223
f 219/320/224 234/348/224 235/321/224
f 227/310/225 242/319/225 243/323/225
f 221/324/226 220/322/226 235/321/226
f 228/312/227 243/323/227 244/326/227
f 222/327/228 221/324/228 236/325/228
f 222/327/231 237/328/231 238/330/231
f 216/301/515 215/298/515 230/329/515
f 223/331/233 238/330/233 239/333/233
f 217/303/516 216/301/516 231/332/516
f 225/336/235 224/334/235 239/333/235
f 218/305/517 217/303/517 232/335/517
f 225/338/237 240/346/237 241/318/237
f 237/328/238 252/356/238 253/339/238
f 231/332/518 230/329/518 245/340/518
f 238/330/240 253/339/240 254/342/240
f 232/335/519 231/332/519 246/341/519
f 240/337/242 239/333/242 254/342/242
f 233/316/520 232/335/520 247/343/520
f 240/346/244 255/799/244 256/347/244
f 234/348/521 233/800/521 248/349/521
f 242/319/246 241/318/246 256/347/246
f 234/348/247 249/350/247 250/352/247
f 242/319/248 257/351/248 258/353/248
f 236/325/249 235/321/249 250/352/249
f 243/323/250 258/353/250 259/355/250
f 237/328/251 236/325/251 251/354/251
f 257/351/254 256/347/254 271/357/254
f 249/350/255 264/374/255 265/359/255
f 257/351/256 272/358/256 273/360/256
f 251/354/257 250/352/257 265/359/257
f 258/353/258 273/360/258 274/362/258
f 252/356/259 251/354/259 266/361/259
f 252/356/262 267/363/262 268/365/262
f 253/339/264 268/365/264 269/367/264
f 247/343/523 246/341/523 261/366/523
f 255/344/266 254/342/266 269/367/266
f 248/349/524 247/801/524 262/370/524
f 255/344/268 270/369/268 271/372/268
f 249/350/525 248/349/525 263/371/525
f 268/365/270 283/391/270 284/375/270
f 270/369/272 269/367/272 284/375/272
f 263/371/527 262/370/527 277/379/527
f 270/369/274 285/378/274 286/381/274
f 264/374/528 263/371/528 278/380/528
f 272/358/276 271/357/276 286/383/276
f 264/374/277 279/382/277 280/385/277
f 272/358/278 287/384/278 288/386/278
f 266/361/279 265/359/279 280/385/279
f 273/360/280 288/386/280 289/388/280
f 267/363/281 266/361/281 281/387/281
f 267/363/284 282/389/284 283/391/284
f 322/462/315 334/772/315 346/463/315
f 505/476/563 506/783/563 332/477/563
f 500/479/564 333/509/564 334/480/564
f 503/465/566 320/467/566 332/485/566
f 346/463/568 358/840/568 350/494/568
f 344/497/570 356/841/570 355/498/570
f 344/500/571 336/488/571 348/501/571
f 331/478/336 332/477/336 344/497/336
f 320/467/335 336/488/335 344/500/335
f 333/509/338 345/842/338 346/510/338
f 411/514/572 407/649/572 368/515/572
f 406/517/341 360/552/341 368/518/341
f 346/510/574 345/842/574 357/525/574
f 360/539/353 359/536/353 367/540/353
f 362/535/354 370/847/354 369/542/354
f 382/511/355 390/611/355 370/543/355
f 394/548/578 369/849/578 370/549/578
f 357/525/365 391/851/365 387/575/365
f 387/575/365 391/851/365 392/576/365
f 388/577/365 392/576/365 393/578/365
f 389/579/365 393/578/365 394/548/365
f 350/494/367 358/840/367 387/580/367
f 388/582/582 400/852/582 399/583/582
f 380/584/361 388/582/361 389/585/361
f 382/511/587 381/586/587 397/606/587
f 380/584/588 379/581/588 395/608/588
f 390/611/591 402/857/591 401/610/591
f 348/501/359 403/623/359 410/636/359
f 404/625/359 405/627/359 408/637/359
f 355/498/385 356/841/385 410/644/385
f 414/645/385 410/644/385 409/646/385
f 409/646/385 408/859/385 412/648/385
f 412/648/596 408/859/596 407/649/596
f 409/640/600 410/636/600 434/657/600
f 407/519/601 408/637/601 432/639/601
f 406/517/602 430/862/602 429/638/602
f 404/625/603 428/863/603 427/656/603
f 495/436/633 499/490/633 334/772/633
f 329/773/634 500/479/634 499/481/634
f 495/436/636 277/379/636 262/370/636
f 327/782/639 328/788/639 506/783/639
f 66/787/642 51/887/642 503/465/642
