# Blender 4.3.2
# www.blender.org
mtllib shelf.mtl
o shelf
v 1.992521 0.990203 -0.580243
v 1.992521 0.004186 -0.580243
v 1.992521 0.990203 0.000712
v 1.992521 0.004186 0.000712
v -2.011044 0.990203 -0.580243
v -2.011044 0.004186 -0.580243
v -2.011044 0.990203 0.000712
v -2.011044 0.004186 0.000712
v 1.798384 0.004186 -0.580243
v -1.803290 0.004186 -0.580243
v 1.798384 0.990203 0.000712
v -1.803290 0.990203 0.000712
v -1.803290 0.004186 0.000712
v 1.798384 0.004186 0.000712
v -1.803290 0.990203 -0.580243
v 1.798384 0.990203 -0.580243
v -1.803290 1.494099 0.000712
v -2.011044 1.494099 0.000712
v 1.992521 1.494099 -0.580243
v 1.992521 1.494099 0.000712
v -2.011044 1.494099 -0.580243
v 1.798384 1.494099 -0.580243
v 1.798384 1.494099 0.000712
v -1.803290 1.494099 -0.580243
v -1.803290 1.597739 0.000712
v -2.011044 1.597739 0.000712
v 1.992521 1.597739 -0.580243
v 1.992521 1.597739 0.000712
v -2.011044 1.597739 -0.580243
v 1.798384 1.597739 -0.580243
v 1.798384 1.597739 0.000712
v -1.803290 1.597739 -0.580243
v -1.803290 2.001933 0.000712
v -2.011044 2.001933 0.000712
v 1.992521 2.001933 -0.580243
v 1.992521 2.001933 0.000712
v -2.011044 2.001933 -0.580243
v 1.798384 2.001933 -0.580243
v 1.798384 2.001933 0.000712
v -1.803290 2.001933 -0.580243
v -1.803290 2.100390 0.000712
v -2.011044 2.100390 0.000712
v 1.992521 2.100390 -0.580243
v 1.992521 2.100390 0.000712
v -2.011044 2.100390 -0.580243
v 1.798384 2.100390 -0.580243
v 1.798384 2.100390 0.000712
v -1.803290 2.100390 -0.580243
v -1.803290 2.489038 0.000712
v -2.011044 2.489038 0.000712
v 1.992521 2.489038 -0.580243
v 1.992521 2.489038 0.000712
v -2.011044 2.489038 -0.580243
v 1.798384 2.489038 -0.580243
v 1.798384 2.489038 0.000712
v -1.803290 2.489038 -0.580243
v -1.803290 2.582313 0.000712
v -2.011044 2.582313 0.000712
v 1.992521 2.582313 -0.580243
v 1.992521 2.582313 0.000712
v -2.011044 2.582313 -0.580243
v 1.798384 2.582313 -0.580243
v 1.798384 2.582313 0.000712
v -1.803290 2.582313 -0.580243
v -1.803290 2.991689 0.000712
v -2.011044 2.991689 0.000712
v 1.992521 2.991689 -0.580243
v 1.992521 2.991689 0.000712
v -2.011044 2.991689 -0.580243
v 1.798384 2.991689 -0.580243
v 1.798384 2.991689 0.000712
v -1.803290 2.991689 -0.580243
v -1.803290 3.102382 0.000712
v -2.011044 3.102382 0.000712
v 1.992521 3.102382 -0.580243
v 1.992521 3.102382 0.000712
v -2.011044 3.102382 -0.580243
v 1.798384 3.102382 -0.580243
v 1.798384 3.102382 0.000712
v -1.803290 3.102382 -0.580243
vn -0.0000 -0.0000 -1.0000
vn -0.0000 -0.0000 1.0000
vn -1.0000 -0.0000 -0.0000
vn -0.0000 -1.0000 -0.0000
vn 1.0000 -0.0000 -0.0000
vn -0.0000 1.0000 -0.0000
vt 0.670776 0.024993
vt 0.605905 0.000000
vt 0.670776 0.000000
vt 0.271919 0.026746
vt 0.398857 0.000000
vt 0.398857 0.026746
vt 0.663202 0.787332
vt 0.737994 0.914270
vt 0.663202 0.914270
vt 0.872506 0.515413
vt 0.797715 0.490420
vt 0.872506 0.490420
vt 0.737994 0.787332
vt 0.812785 0.914270
vt 0.797715 0.000000
vt 0.797715 0.024993
vt 0.670776 0.515413
vt 0.797715 0.488667
vt 0.797715 0.515413
vt 0.670776 0.488667
vt 0.872506 0.026746
vt 0.797715 -0.000000
vt 0.872506 0.000000
vt 0.797715 0.026746
vt 0.271919 0.515413
vt 0.398857 0.490420
vt 0.398857 0.515413
vt 0.271919 0.490420
vt 0.207048 0.490420
vt 0.074791 0.979088
vt 0.000000 0.515413
vt 0.074791 0.515413
vt 0.207048 0.515413
vt 0.193706 0.490420
vt 0.074791 0.979088
vt 0.149583 0.515413
vt 0.149583 0.979088
vt 0.207048 0.000000
vt 0.271919 0.000000
vt 0.728073 0.989062
vt 0.663202 0.914270
vt 0.728073 0.914270
vt 0.737994 0.722461
vt 0.605905 0.488667
vt 0.812785 0.722461
vt 0.812785 0.787332
vt 0.792944 0.989062
vt 0.792944 0.914270
vt 0.737994 0.709119
vt 0.812785 0.657083
vt 0.812785 0.709119
vt 0.592563 0.024993
vt 0.540528 0.000000
vt 0.592563 0.000000
vt 0.663202 0.722461
vt 0.207048 0.026746
vt 0.193706 0.000000
vt 0.592563 0.488667
vt 0.605905 0.024993
vt 0.605905 0.515413
vt 0.540528 0.515413
vt 0.527852 0.488667
vt 0.540528 0.488667
vt 0.149583 0.979088
vt 0.224374 0.515413
vt 0.224374 0.979088
vt 0.999333 0.224374
vt 0.947298 0.149583
vt 0.999333 0.149583
vt 0.193706 0.515413
vt 0.141670 0.490420
vt 0.663202 0.709119
vt 0.737994 0.657083
vt 0.193706 0.026746
vt 0.141670 0.000000
vt 0.999333 0.299166
vt 0.947298 0.224374
vt 0.592563 0.515413
vt 0.663202 0.644408
vt 0.737994 0.594374
vt 0.737994 0.644408
vt 0.128995 0.515413
vt 0.078961 0.490420
vt 0.128995 0.490420
vt 0.540528 0.024993
vt 0.527852 0.000000
vt 0.812785 0.644408
vt 0.141670 0.515413
vt 0.663202 0.657083
vt 0.141670 0.026746
vt 0.128995 0.000000
vt 0.078961 0.515413
vt 0.066953 0.490420
vt 0.224374 0.979088
vt 0.299166 0.515413
vt 0.299166 0.979088
vt 0.128995 0.026746
vt 0.078961 0.000000
vt 0.997332 0.373957
vt 0.947298 0.299166
vt 0.997332 0.299166
vt 0.527852 0.515413
vt 0.477818 0.488667
vt 0.527852 0.024993
vt 0.477819 0.000000
vt 0.812785 0.594374
vt 0.997332 0.448748
vt 0.947298 0.373957
vt 0.465810 0.024993
vt 0.413108 0.000000
vt 0.465810 0.000000
vt 0.465810 0.515413
vt 0.413108 0.488667
vt 0.465810 0.488667
vt 0.663202 0.594374
vt 0.737994 0.582366
vt 0.078961 0.026746
vt 0.066953 0.000000
vt 0.477819 0.024993
vt 0.477818 0.515413
vt 0.812785 0.582366
vt 0.872506 0.488667
vt 0.947298 0.024993
vt 0.947298 0.488667
vt 0.014251 0.026746
vt 0.000000 0.000000
vt 0.014251 0.000000
vt 0.812785 0.529664
vt 1.000000 0.074791
vt 0.947298 0.000000
vt 1.000000 0.000000
vt 0.066953 0.515413
vt 0.014251 0.490420
vt 0.663202 0.582366
vt 0.737994 0.529664
vt 0.066953 0.026746
vt 1.000000 0.149583
vt 0.947298 0.074791
vt 1.000000 0.074791
vt 0.947298 0.515413
vt 0.872506 -0.000000
vt 0.947298 -0.000000
vt 0.413108 0.515413
vt 0.398857 0.488667
vt 0.413108 0.024993
vt 0.398857 0.000000
vt 0.812785 0.515413
vt 0.014251 0.515413
vt -0.000000 0.490420
vt 0.663202 0.529664
vt 0.737994 0.515413
vt 0.000000 0.026746
vt 0.373957 0.515413
vt 0.299166 0.979088
vt 0.299166 0.515413
vt 0.448749 0.515413
vt 0.373957 0.979088
vt 0.523540 0.515413
vt 0.448749 0.979088
vt 0.448749 0.515413
vt 0.598331 0.515413
vt 0.523540 0.979088
vt 0.523540 0.515413
vt 0.663202 0.515413
vt 0.598331 0.979088
vt 0.917523 0.979088
vt 0.865488 0.515413
vt 0.917523 0.515413
vt 0.967557 0.979088
vt 0.917523 0.515413
vt 0.967557 0.515413
vt 0.812785 0.515413
vt 0.865488 0.979088
vt 0.812785 0.979088
vt 0.797715 0.515413
vt 0.000000 0.979088
vt 0.074791 0.515413
vt 0.663202 0.989062
vt 0.728073 0.989062
vt 0.149583 0.515413
vt 0.224374 0.515413
vt 0.947298 0.448748
vt 0.872506 0.024993
vt 0.947298 0.074791
vt 0.947298 0.149583
vt 0.872506 0.515413
vt 0.398857 0.515413
vt 0.398857 0.024993
vt -0.000000 0.515413
vt 0.663202 0.515413
vt 0.448749 0.979088
vt 0.523540 0.979088
vt 0.663202 0.979088
vt 0.865488 0.979088
vt 0.917523 0.979088
vt 0.865488 0.515413
s 0
usemtl shelf
f 16/1/1 19/2/1 1/3/1
f 12/4/2 8/5/2 13/6/2
f 7/7/3 6/8/3 8/9/3
f 2/10/4 14/11/4 9/12/4
f 1/13/5 4/14/5 2/8/5
f 16/1/1 2/15/1 9/16/1
f 5/17/1 10/18/1 6/19/1
f 15/20/1 9/16/1 10/18/1
f 10/21/4 8/22/4 6/23/4
f 9/12/4 13/24/4 10/21/4
f 3/25/2 14/26/2 4/27/2
f 11/28/2 13/6/2 14/26/2
f 3/25/2 23/29/2 11/28/2
f 15/30/6 11/31/6 16/32/6
f 20/33/2 31/34/2 23/29/2
f 25/35/6 30/36/6 32/37/6
f 12/4/2 18/38/2 7/39/2
f 11/40/3 22/41/3 16/42/3
f 7/7/3 21/43/3 5/13/3
f 5/17/1 24/44/1 15/20/1
f 1/13/5 20/45/5 3/46/5
f 15/47/5 17/42/5 12/48/5
f 27/49/5 36/50/5 28/51/5
f 30/52/1 35/53/1 27/54/1
f 18/55/3 29/49/3 21/43/3
f 17/56/2 26/57/2 18/38/2
f 32/58/1 22/59/1 24/44/1
f 21/60/1 32/58/1 24/44/1
f 22/59/1 27/54/1 19/2/1
f 19/43/5 28/51/5 20/45/5
f 37/61/1 48/62/1 40/63/1
f 41/64/6 46/65/6 48/66/6
f 31/67/3 38/68/3 30/69/3
f 28/70/2 39/71/2 31/34/2
f 26/72/3 37/73/3 29/49/3
f 25/74/2 34/75/2 26/57/2
f 32/76/5 33/77/5 25/67/5
f 29/78/1 40/63/1 32/58/1
f 42/79/3 53/80/3 45/81/3
f 44/82/2 55/83/2 47/84/2
f 38/85/1 43/86/1 35/53/1
f 35/73/5 44/87/5 36/50/5
f 48/62/1 38/85/1 40/63/1
f 36/88/2 47/84/2 39/71/2
f 34/89/3 45/81/3 37/73/3
f 33/90/2 42/91/2 34/75/2
f 52/92/2 63/93/2 55/83/2
f 57/94/6 62/95/6 64/96/6
f 41/97/2 50/98/2 42/91/2
f 48/99/5 49/100/5 41/101/5
f 45/102/1 56/103/1 48/62/1
f 46/104/1 51/105/1 43/86/1
f 43/81/5 52/106/5 44/87/5
f 47/107/3 54/108/3 46/99/3
f 62/109/1 67/110/1 59/111/1
f 61/112/1 72/113/1 64/114/1
f 50/115/3 61/116/3 53/80/3
f 49/117/2 58/118/2 50/98/2
f 64/114/1 54/119/1 56/103/1
f 53/120/1 64/114/1 56/103/1
f 54/119/1 59/111/1 51/105/1
f 51/80/5 60/121/5 52/106/5
f 73/122/6 78/123/6 80/124/6
f 65/125/2 74/126/2 66/127/2
f 59/116/5 68/128/5 60/121/5
f 63/129/3 70/130/3 62/131/3
f 60/132/2 71/133/2 63/93/2
f 58/134/3 69/135/3 61/116/3
f 57/136/2 66/127/2 58/118/2
f 64/137/5 65/138/5 57/139/5
f 77/140/6 73/122/6 80/124/6
f 78/123/6 76/141/6 75/142/6
f 69/143/1 80/144/1 72/113/1
f 70/145/1 75/146/1 67/110/1
f 67/135/5 76/147/5 68/128/5
f 80/144/1 70/145/1 72/113/1
f 68/148/2 79/149/2 71/133/2
f 66/150/3 77/151/3 69/135/3
f 65/125/2 79/149/2 73/152/2
f 72/153/4 71/154/4 65/155/4
f 49/117/2 63/93/2 57/136/2
f 56/156/4 55/157/4 49/153/4
f 33/90/2 47/84/2 41/97/2
f 40/158/4 39/159/4 33/160/4
f 17/56/2 31/34/2 25/74/2
f 24/161/4 23/162/4 17/163/4
f 15/164/2 22/165/2 24/161/2
f 30/166/2 40/167/2 32/168/2
f 46/169/2 56/170/2 48/171/2
f 72/172/2 62/173/2 70/174/2
f 16/1/1 22/59/1 19/2/1
f 12/4/2 7/39/2 8/5/2
f 7/7/3 5/13/3 6/8/3
f 2/10/4 4/175/4 14/11/4
f 1/13/5 3/46/5 4/14/5
f 16/1/1 1/3/1 2/15/1
f 5/17/1 15/20/1 10/18/1
f 15/20/1 16/1/1 9/16/1
f 10/21/4 13/24/4 8/22/4
f 9/12/4 14/11/4 13/24/4
f 3/25/2 11/28/2 14/26/2
f 11/28/2 12/4/2 13/6/2
f 3/25/2 20/33/2 23/29/2
f 15/30/6 12/176/6 11/31/6
f 20/33/2 28/70/2 31/34/2
f 25/35/6 31/177/6 30/36/6
f 12/4/2 17/56/2 18/38/2
f 11/40/3 23/178/3 22/41/3
f 7/7/3 18/55/3 21/43/3
f 5/17/1 21/60/1 24/44/1
f 1/13/5 19/43/5 20/45/5
f 15/47/5 24/179/5 17/42/5
f 27/49/5 35/73/5 36/50/5
f 30/52/1 38/85/1 35/53/1
f 18/55/3 26/72/3 29/49/3
f 17/56/2 25/74/2 26/57/2
f 32/58/1 30/52/1 22/59/1
f 21/60/1 29/78/1 32/58/1
f 22/59/1 30/52/1 27/54/1
f 19/43/5 27/49/5 28/51/5
f 37/61/1 45/102/1 48/62/1
f 41/64/6 47/180/6 46/65/6
f 31/67/3 39/77/3 38/68/3
f 28/70/2 36/88/2 39/71/2
f 26/72/3 34/89/3 37/73/3
f 25/74/2 33/90/2 34/75/2
f 32/76/5 40/100/5 33/77/5
f 29/78/1 37/61/1 40/63/1
f 42/79/3 50/115/3 53/80/3
f 44/82/2 52/92/2 55/83/2
f 38/85/1 46/104/1 43/86/1
f 35/73/5 43/81/5 44/87/5
f 48/62/1 46/104/1 38/85/1
f 36/88/2 44/82/2 47/84/2
f 34/89/3 42/79/3 45/81/3
f 33/90/2 41/97/2 42/91/2
f 52/92/2 60/132/2 63/93/2
f 57/94/6 63/181/6 62/95/6
f 41/97/2 49/117/2 50/98/2
f 48/99/5 56/108/5 49/100/5
f 45/102/1 53/120/1 56/103/1
f 46/104/1 54/119/1 51/105/1
f 43/81/5 51/80/5 52/106/5
f 47/107/3 55/182/3 54/108/3
f 62/109/1 70/145/1 67/110/1
f 61/112/1 69/143/1 72/113/1
f 50/115/3 58/134/3 61/116/3
f 49/117/2 57/136/2 58/118/2
f 64/114/1 62/109/1 54/119/1
f 53/120/1 61/112/1 64/114/1
f 54/119/1 62/109/1 59/111/1
f 51/80/5 59/116/5 60/121/5
f 73/122/6 79/183/6 78/123/6
f 65/125/2 73/152/2 74/126/2
f 59/116/5 67/135/5 68/128/5
f 63/129/3 71/184/3 70/130/3
f 60/132/2 68/148/2 71/133/2
f 58/134/3 66/150/3 69/135/3
f 57/136/2 65/125/2 66/127/2
f 64/137/5 72/185/5 65/138/5
f 77/140/6 74/186/6 73/122/6
f 78/123/6 79/183/6 76/141/6
f 69/143/1 77/187/1 80/144/1
f 70/145/1 78/188/1 75/146/1
f 67/135/5 75/151/5 76/147/5
f 80/144/1 78/188/1 70/145/1
f 68/148/2 76/189/2 79/149/2
f 66/150/3 74/190/3 77/151/3
f 65/125/2 71/133/2 79/149/2
f 72/153/4 70/157/4 71/154/4
f 49/117/2 55/83/2 63/93/2
f 56/156/4 54/191/4 55/157/4
f 33/90/2 39/71/2 47/84/2
f 40/158/4 38/192/4 39/159/4
f 17/56/2 23/29/2 31/34/2
f 24/161/4 22/165/4 23/162/4
f 15/164/2 16/193/2 22/165/2
f 30/166/2 38/194/2 40/167/2
f 46/169/2 54/195/2 56/170/2
f 72/172/2 64/196/2 62/173/2
