# Blender 4.3.2
# www.blender.org
mtllib television.mtl
o Cube
v 0.382594 0.382594 0.001786
v 0.382594 -0.437828 0.001786
v 0.379088 0.379088 0.448929
v 0.379088 -0.379088 0.448929
v -0.382594 0.382594 0.001786
v -0.382594 -0.437828 0.001786
v -0.379088 0.379088 0.448929
v -0.379088 -0.379088 0.448929
v -0.448929 -0.448929 0.448929
v -0.448929 0.448929 0.448929
v 0.448929 0.448929 0.448929
v 0.448929 -0.448929 0.448929
v -0.379088 -0.379088 0.398500
v -0.379088 0.379088 0.398500
v 0.379088 0.379088 0.398500
v 0.379088 -0.379088 0.398500
v 0.448929 -0.448929 0.001786
v -0.448929 -0.448929 0.001786
v 0.448929 0.448929 0.001786
v -0.448929 0.448929 0.001786
v 0.228194 -0.435876 -0.463578
v -0.228194 -0.435876 -0.463578
v 0.228194 0.066909 -0.463578
v -0.228194 0.066909 -0.463578
vn -0.0000 1.0000 -0.0000
vn 1.0000 -0.0000 -0.0000
vn -1.0000 -0.0000 -0.0000
vn -0.0000 -1.0000 -0.0000
vn -0.0000 0.8276 -0.5614
vn -0.0000 -0.0000 1.0000
vn -0.0000 -0.0000 -1.0000
vn 0.9491 -0.0000 -0.3149
vn -0.9491 -0.0000 -0.3149
vn -0.0000 -1.0000 -0.0042
vt 0.499337 0.614810
vt 0.333333 0.281476
vt 0.499337 0.281476
vt 0.972197 0.562953
vt 0.953581 0.281476
vt 0.972197 0.281476
vt 0.614810 0.333333
vt 0.779875 0.666667
vt 0.614810 0.666667
vt 0.614810 0.000000
vt 0.780813 0.333333
vt 0.614810 0.333333
vt 0.000000 0.666667
vt 0.165065 1.000000
vt 0.000000 1.000000
vt 0.780813 -0.000000
vt 0.953581 0.226757
vt 0.780813 0.284079
vt 0.025929 0.025928
vt 0.333333 0.000000
vt 0.307405 0.025929
vt 0.307405 0.307405
vt 0.000000 0.333333
vt 0.025928 0.307405
vt 0.000000 0.000000
vt 0.333333 0.333333
vt 0.614810 0.000000
vt 0.614810 0.281476
vt 0.780813 0.470740
vt 0.799535 0.752216
vt 0.780813 0.752216
vt 0.953581 0.562953
vt 0.972197 0.844429
vt 0.953581 0.844429
vt 0.972303 0.281476
vt 0.953581 0.000000
vt 0.972303 0.000000
vt 0.329212 0.357960
vt 0.333333 0.666667
vt 0.329212 0.642040
vt 0.024627 0.357960
vt 0.333333 0.333333
vt 0.024627 0.642040
vt 0.000000 0.666667
vt 0.000000 0.333333
vt 0.780813 0.284079
vt 0.950249 0.470740
vt 0.780813 0.470740
vt 0.342943 0.971252
vt 0.165065 0.783866
vt 0.342943 0.666667
vt 0.342943 0.971252
vt 0.520821 0.783866
vt 0.520821 0.970527
vt 0.693590 0.950746
vt 0.520821 0.723988
vt 0.693590 0.666667
vt 0.333333 0.614810
vt 0.953581 0.562953
vt 0.779875 0.333333
vt 0.780813 0.000000
vt 0.165065 0.666667
vt 0.953581 0.057322
vt 0.333333 -0.000000
vt 0.799535 0.470740
vt 0.953581 0.281476
vt 0.950249 0.284079
vt 0.165065 0.970527
vt 0.342943 0.666667
vt 0.520821 0.893424
s 0
usemtl Material
f 20/1/1 11/2/1 19/3/1
f 8/4/2 14/5/2 7/6/2
f 10/7/3 18/8/3 9/9/3
f 17/10/4 9/11/4 18/12/4
f 19/13/2 12/14/2 17/15/2
f 1/16/5 24/17/5 5/18/5
f 7/19/6 9/20/6 8/21/6
f 4/22/6 11/23/6 3/24/6
f 3/24/6 10/25/6 7/19/6
f 8/21/6 12/26/6 4/22/6
f 15/2/6 13/27/6 16/28/6
f 4/29/1 13/30/1 8/31/1
f 3/32/3 16/33/3 4/34/3
f 7/35/4 15/36/4 3/37/4
f 2/38/7 18/39/7 6/40/7
f 1/41/7 17/42/7 2/38/7
f 5/43/7 18/39/7 20/44/7
f 5/43/7 19/45/7 1/41/7
f 24/46/7 21/47/7 22/48/7
f 2/49/8 23/50/8 1/51/8
f 6/52/9 24/53/9 22/54/9
f 6/55/10 21/56/10 2/57/10
f 20/1/1 10/58/1 11/2/1
f 8/4/2 13/59/2 14/5/2
f 10/7/3 20/60/3 18/8/3
f 17/10/4 12/61/4 9/11/4
f 19/13/2 11/62/2 12/14/2
f 1/16/5 23/63/5 24/17/5
f 7/19/6 10/25/6 9/20/6
f 4/22/6 12/26/6 11/23/6
f 3/24/6 11/23/6 10/25/6
f 8/21/6 9/20/6 12/26/6
f 15/2/6 14/64/6 13/27/6
f 4/29/1 16/65/1 13/30/1
f 3/32/3 15/4/3 16/33/3
f 7/35/4 14/66/4 15/36/4
f 2/38/7 17/42/7 18/39/7
f 1/41/7 19/45/7 17/42/7
f 5/43/7 6/40/7 18/39/7
f 5/43/7 20/44/7 19/45/7
f 24/46/7 23/67/7 21/47/7
f 2/49/8 21/68/8 23/50/8
f 6/52/9 5/69/9 24/53/9
f 6/55/10 22/70/10 21/56/10
